<svg width="274" height="248" viewBox="0 0 274 248" fill="none" xmlns="http://www.w3.org/2000/svg">
<path d="M128.455 190.606C128.455 190.606 132.938 183.044 130.556 175.622C128.315 168.201 125.653 166.801 123.272 165.54C120.891 164.28 115.007 161.339 114.447 157.418C113.746 153.358 118.369 150.137 122.852 147.616C127.194 144.956 134.759 144.816 139.942 144.396C145.125 143.975 155.631 143.275 164.596 140.335C173.561 137.394 194.293 128.012 200.877 117.79C207.461 107.567 206.761 107.707 208.862 100.286C210.963 93.004 212.924 85.4423 212.924 79.281C212.924 70.1789 210.543 59.2565 194.153 42.7328C177.764 26.2091 149.607 22.9884 142.603 22.1482C135.459 21.308 127.474 19.4876 110.665 19.3476C93.7147 19.2076 86.8507 19.2076 72.1421 19.9077C57.4335 20.6079 14.1482 25.2289 14.5685 46.7937C14.9887 68.3585 15.8292 74.2398 16.6697 79.9811C17.6503 85.7224 18.7709 92.724 22.273 99.4455C25.775 106.167 47.3476 129.972 64.7178 138.094C81.9478 146.216 88.6717 154.338 90.913 156.998C93.2944 159.519 94.5552 164.56 101.98 168.341C109.404 172.262 118.649 173.242 122.572 178.703C126.354 184.164 124.813 190.606 124.813 190.606H128.455Z" fill="#14141C"/>
<path d="M184.348 121.71C184.348 121.71 181.406 119.47 179.165 109.528L178.464 116.249L157.592 117.93C157.592 117.93 155.911 111.488 158.012 108.127C160.114 104.907 165.997 99.8656 176.783 99.7256C176.783 99.7256 181.966 100.426 183.367 100.846C183.367 100.846 181.266 93.2841 182.386 90.0634C183.507 86.9827 184.628 84.8823 190.091 86.7027C195.554 88.5231 195.414 93.0041 194.153 95.9447C192.753 99.1654 188.83 102.666 188.83 102.666C188.83 102.666 192.753 103.646 192.753 106.587C192.753 109.528 193.453 120.73 195.274 125.631C196.815 130.112 198.776 133.613 203.679 133.613C208.442 133.613 215.726 134.313 217.127 140.195C218.247 144.816 216.566 146.916 220.909 149.577C224.411 151.817 225.252 153.358 225.111 161.339C225.111 161.339 222.73 156.438 221.329 154.758C219.928 153.077 214.745 149.017 212.924 148.596C212.924 148.596 211.944 148.596 207.881 149.437C203.679 150.277 198.076 151.817 191.212 149.857C184.348 147.756 183.367 144.115 183.087 141.735C182.667 139.354 182.947 133.893 185.328 130.252C185.328 130.252 189.391 130.252 189.391 123.951C189.391 123.951 189.811 120.03 186.309 120.03C185.608 120.45 184.348 121.71 184.348 121.71Z" fill="white"/>
<path d="M227.213 161.899C227.213 161.899 235.898 180.524 239.12 191.586C242.342 202.649 246.124 216.792 245.143 225.334C244.163 233.876 242.201 241.997 227.353 241.997L229.034 247.319H169.499L169.639 240.457C169.639 240.457 167.818 245.918 159.133 243.118C150.448 240.317 132.377 216.792 132.377 216.792L133.918 215.671L134.198 216.372H149.467L142.743 206.149L143.864 205.729C143.864 205.729 144.004 207.27 146.105 208.11C146.105 208.11 148.907 208.25 153.25 207.55C153.25 207.55 157.872 210.91 164.736 216.092L168.238 206.289L160.674 200.828C160.674 200.828 159.973 186.965 159.973 184.164C160.114 181.504 160.114 176.883 163.475 169.321C166.837 161.759 172.441 152.657 173.561 152.097L177.344 147.056C177.344 147.056 175.943 150.837 176.223 154.898C176.223 154.898 175.943 161.479 176.083 166.24C176.363 171.142 177.344 179.683 177.344 179.683C177.344 179.683 179.445 172.402 182.667 166.661C185.889 160.919 187.149 158.819 187.149 158.819C187.149 158.819 192.613 156.158 194.153 151.117C194.153 151.117 197.936 152.097 205.22 150.697C212.504 149.297 215.586 146.916 221.469 153.078C221.329 152.937 224.971 157.138 227.213 161.899Z" fill="#66FFCC"/>
<path d="M185.608 120.73C185.608 120.73 184.068 118.49 181.126 109.808L180.425 116.529L159.553 118.21C159.553 118.21 157.872 111.768 159.973 108.407C162.075 105.187 167.958 100.146 178.744 100.006C178.744 100.006 183.927 100.706 185.328 101.126C185.328 101.126 183.227 93.5642 184.348 90.3434C185.468 87.2628 186.589 85.1623 192.052 86.9827C197.515 88.8031 197.375 93.2841 196.115 96.2248C194.714 99.4455 190.791 102.946 190.791 102.946C190.791 102.946 194.714 103.926 194.714 106.867C194.714 109.808 195.414 121.01 197.235 125.911C198.776 130.392 200.737 133.893 205.64 133.893C210.403 133.893 217.687 134.593 219.088 140.475C220.209 145.096 218.528 147.196 222.87 149.857C226.372 152.097 227.213 153.638 227.073 161.619C227.073 161.619 224.691 156.718 223.29 155.038C221.89 153.358 218.668 149.857 214.886 148.877C214.886 148.877 213.205 148.456 209.142 149.437C204.94 150.277 200.037 152.237 193.173 150.137C186.309 148.036 185.328 144.396 185.048 142.015C184.628 139.634 184.908 134.173 187.289 130.532C187.289 130.532 191.352 130.532 191.352 124.231C191.352 124.231 190.932 119.75 187.429 119.75C186.589 120.17 185.608 120.73 185.608 120.73Z" fill="#1A1A1A"/>
<path d="M176.503 141.315L177.904 144.956L177.204 146.636C177.204 146.636 176.363 150.557 175.242 152.097C175.242 152.097 171.18 153.638 169.359 149.997C167.538 146.356 168.098 142.155 168.098 142.155C168.098 142.155 170.199 142.715 173.982 141.735C175.663 141.315 176.503 141.315 176.503 141.315Z" fill="#1A1A1A"/>
<path d="M180.986 110.508C180.986 110.508 181.406 119.61 184.067 121.43C184.348 121.57 186.589 118.77 189.391 120.59C192.192 122.411 191.352 126.472 190.651 128.012C189.951 129.552 188.13 131.373 185.188 130.392C185.188 130.392 183.087 134.873 182.807 137.954C182.667 141.175 182.527 143.555 184.208 145.936C184.208 145.936 184.067 149.157 181.546 149.577C179.025 149.997 178.464 147.336 178.464 147.336L176.363 141.315C176.363 141.315 170.76 142.575 168.518 142.295C166.277 141.875 163.896 140.055 163.195 137.534C162.355 135.013 161.234 132.493 160.954 127.592C160.534 122.831 159.973 117.79 159.973 117.79L180.285 116.249C180.285 116.389 180.565 111.628 180.986 110.508Z" fill="white"/>
<path d="M167.958 206.149L164.456 215.951C164.456 215.951 161.935 215.111 159.413 214.131C155.071 212.451 150.868 207.27 151.849 208.39C152.829 209.51 154.79 212.871 153.95 213.711C152.549 214.831 149.747 213.291 147.926 210.77C145.965 208.39 145.825 208.11 145.825 208.11C145.825 208.11 143.444 206.849 143.304 204.889C143.164 202.929 143.864 202.508 144.845 201.528C145.965 200.548 147.366 199.568 147.366 199.568C147.366 199.568 142.463 198.728 138.961 197.467C135.459 196.207 135.179 194.947 135.599 194.107C136.019 193.266 136.72 193.126 139.521 193.406C142.323 193.687 153.95 196.627 154.09 196.767C155.631 197.047 167.958 206.149 167.958 206.149Z" fill="white"/>
<path d="M257.47 216.792C256.63 214.971 255.649 213.571 255.929 211.751C256.35 209.09 259.431 207.41 260.832 205.169C262.373 202.789 262.934 199.988 261.813 197.467C260.972 195.507 259.291 193.827 257.75 192.286C256.63 191.166 255.509 190.186 255.089 188.785C254.809 187.945 254.949 187.105 254.949 186.125C255.509 181.364 260.692 170.301 253.408 167.641C249.486 166.24 246.824 172.962 246.404 175.202C245.423 179.683 246.964 184.585 243.742 188.645C242.201 190.746 239.54 192.146 237.439 193.827C234.497 196.207 232.396 199.568 232.256 203.209C232.116 206.429 234.637 208.95 234.497 212.031C234.357 214.551 232.116 216.232 230.855 218.332C227.073 224.493 232.116 231.915 238.419 234.856C239.96 235.556 241.221 236.116 243.042 236.256L257.47 216.792Z" fill="white"/>
<path d="M270.358 203.909C268.397 203.069 266.015 203.489 264.474 205.589C263.214 207.27 262.653 209.23 261.953 211.19C261.253 213.291 260.272 215.251 258.311 216.372C256.35 217.492 253.968 217.492 252.007 218.472C249.486 219.872 247.104 221.833 245.423 224.353C242.902 228.134 241.921 233.035 243.462 237.376C245.283 242.557 251.027 246.198 256.49 245.358C260.832 244.798 264.474 241.437 266.155 237.516C267.976 233.596 267.976 228.974 267.136 224.633C266.295 220.573 269.237 218.612 271.338 215.671C273.019 213.431 274 210.63 273.44 207.97C273.159 206.149 271.899 204.609 270.358 203.909Z" fill="white"/>
<path d="M62.1963 203.769C60.5153 205.029 59.6748 207.27 60.6554 209.79C61.3558 211.751 62.8967 213.151 64.1574 214.831C65.5582 216.512 66.819 218.472 66.6789 220.713C66.5388 222.953 65.2781 225.054 65.2781 227.294C65.138 230.235 65.6983 233.175 66.9591 235.976C68.9202 240.177 72.7024 243.398 77.185 244.378C82.5081 245.498 88.6717 242.417 90.773 237.376C92.4539 233.315 91.6134 228.554 89.092 224.913C86.5705 221.413 82.6482 218.892 78.5858 217.352C74.8036 215.951 74.5235 212.451 73.1227 209.09C72.1421 206.569 70.1809 204.189 67.6595 203.209C65.5582 202.508 63.5971 202.789 62.1963 203.769Z" fill="white"/>
<path d="M149.327 216.372H134.058L117.809 191.166H132.938L149.327 216.372Z" fill="white"/>
<path d="M120.61 195.647L123.972 200.828C123.972 200.828 129.295 200.268 130.556 200.128C131.957 200.128 135.179 200.268 135.459 201.248C135.739 202.228 134.899 203.349 133.638 203.629C133.638 203.629 136.86 203.209 137.56 204.329C138.261 205.449 136.019 206.989 134.058 207.55C134.058 207.55 137.981 206.569 138.681 208.11C139.241 209.65 134.338 212.451 130.696 213.151C127.054 213.711 126.774 213.431 124.953 212.451C123.272 211.47 120.891 206.849 120.47 205.729C120.19 204.609 120.61 195.647 120.61 195.647Z" fill="white"/>
<path d="M61.9162 5.34446C64.7178 6.74477 67.0992 8.98528 69.0603 11.5058C73.5429 16.9671 77.045 23.6886 79.5665 30.27C81.9478 36.5714 83.4887 42.8728 79.0061 48.6141C76.9049 51.1347 74.2433 53.2352 71.5818 55.1956C63.8773 60.7968 56.0327 66.5381 48.1881 72.2794C41.8845 76.9004 34.32 82.5017 26.1953 80.5412C18.2106 78.5808 12.6074 71.0191 8.68507 64.1576C7.42433 61.9171 6.30368 59.6766 5.18303 57.2961C3.92229 54.4954 2.80164 51.5548 2.80164 48.4741C2.80164 45.2534 4.06237 42.1727 5.88343 39.5121C9.80572 33.4907 15.5491 29.0097 20.8722 24.5287C24.9346 21.168 28.9969 17.6672 33.3395 14.5865C37.2618 11.7859 40.7638 8.28512 45.1063 6.18465C49.1687 4.08418 54.0716 2.96393 58.5542 4.08418C59.6748 4.22421 60.9356 4.78434 61.9162 5.34446Z" fill="#66FFCC"/>
<path d="M31.7986 32.3705C31.2383 32.6506 30.678 32.9306 30.3978 33.4908C29.6974 35.3112 32.6391 37.5517 33.6197 38.6719C35.1606 40.3523 36.5614 42.3127 37.682 44.2732C38.6626 46.2336 39.363 48.4741 40.4837 50.4345C40.7638 50.9947 41.1841 51.5548 41.7444 51.8349C42.8651 52.535 43.7056 51.8349 44.406 50.8546C46.5072 47.914 48.3283 44.8333 49.7291 41.6126C50.9898 38.952 52.6708 36.0113 52.2505 32.9306C52.1105 31.8104 51.4101 30.5501 50.4295 29.85C49.1687 29.0098 47.4878 29.0098 46.087 29.0098C43.2853 29.2898 40.3436 29.7099 37.682 30.4101C36.2812 30.6901 34.8804 31.1102 33.4796 31.5303C33.0593 32.0905 32.499 32.2305 31.7986 32.3705Z" fill="#14141C"/>
<path d="M87.9714 55.8958C88.1114 55.6157 88.1114 55.3357 88.2515 54.9156C89.3722 54.4955 90.3527 53.9354 91.4734 53.5153C96.7965 51.5548 101.699 52.255 105.902 56.1759C107.443 57.7162 108.984 59.2566 110.665 60.6569C112.906 62.7573 115.708 64.0176 118.929 64.1577C120.61 64.1577 122.291 64.1577 124.112 64.0176C126.494 63.8776 128.735 64.0176 130.836 65.1379C131.957 65.698 132.938 66.3982 133.498 67.3784C133.638 67.6584 133.778 67.9385 133.638 68.2186C133.078 69.7589 132.517 71.4393 131.957 72.9796C131.117 74.9401 130.416 77.0405 129.436 79.001C127.895 82.0817 125.513 84.0421 122.011 84.7423C120.05 85.1624 118.089 85.1624 116.128 84.7423C113.326 84.1821 110.525 83.482 107.723 82.7818C103.1 81.5215 98.4775 79.8412 94.275 77.3206C91.8936 75.9203 89.7924 74.3799 88.1114 72.1394C86.4305 69.8989 85.59 67.3784 86.1503 64.5777C86.5705 62.4773 86.9908 60.3768 87.411 58.4164C87.5511 57.7162 87.6912 56.876 87.9714 55.8958Z" fill="white"/>
<path d="M136.44 60.7968C136.3 61.2169 136.019 61.777 135.879 62.0571C135.319 61.497 134.759 60.7968 134.198 60.3767C132.237 58.9764 130.136 58.4163 127.755 58.4163C125.934 58.4163 124.253 58.5563 122.432 58.5563C118.789 58.6963 115.568 57.5761 112.766 55.0555C111.225 53.5152 109.684 51.9748 108.003 50.5745C103.801 46.6536 98.8978 45.9535 93.5747 47.7739C92.454 48.194 91.4734 48.6141 90.3528 49.0342C91.4734 44.9733 92.5941 41.3325 94.4152 37.9717C95.3957 36.0113 96.6565 34.0508 98.1974 32.5105C99.4581 31.3902 100.859 30.6901 102.54 30.6901C106.602 30.41 110.525 30.6901 114.587 31.3902C117.108 31.8103 119.63 32.5105 122.151 33.0706C124.393 33.6307 126.354 34.3309 128.175 34.891C129.015 35.1711 129.856 35.5912 130.696 35.8712C132.517 36.5714 134.338 37.4116 135.879 38.6719C138.681 40.6323 140.082 43.2929 139.662 46.7937C139.521 48.054 139.241 49.3142 138.961 50.5745C138.681 51.5547 138.541 52.675 138.261 53.6552C137.981 56.0357 137.14 58.4163 136.44 60.7968ZM127.334 42.4527C124.953 41.6125 122.432 43.1529 121.591 45.2533C120.61 48.194 122.572 50.5745 124.533 51.2747C126.774 51.9748 129.716 50.8546 130.556 48.054C131.117 45.9535 129.856 43.1529 127.334 42.4527Z" fill="#66FFCC"/>
<path d="M75.9244 115.969C75.6442 114.989 75.5041 114.009 75.224 113.029C75.0839 112.608 74.9438 112.328 74.8037 111.908C72.8426 106.727 69.9009 102.246 66.1187 98.3253C60.5154 92.724 53.5113 90.2035 45.5266 90.9036C44.2659 91.0437 43.1452 91.1837 41.8845 91.3237C41.1841 91.4638 40.6238 91.6038 39.9234 91.7438C39.0829 92.0239 38.2424 92.304 37.4019 92.584C29.9775 94.9645 23.8139 99.4455 19.1912 105.747C16.2495 109.808 14.4285 114.429 14.4285 119.47C14.4285 120.59 14.5685 121.711 14.5685 122.971C14.8487 124.091 15.1289 125.211 15.269 126.332C15.409 126.752 15.5491 127.032 15.6892 127.452C17.3702 132.073 20.0317 136.134 23.3937 139.635C28.4366 144.956 34.6002 147.896 42.0246 147.896C43.2853 147.896 44.6861 147.756 45.9469 147.616C47.0675 147.336 48.3283 147.056 49.589 146.776C53.6514 145.516 56.8733 143.835 59.9551 141.735C64.0174 139.074 67.9397 135.994 71.0215 132.213C73.9632 128.572 75.7843 124.371 75.9244 119.61C76.0645 118.21 75.9244 117.089 75.9244 115.969Z" fill="#66FFCC"/>
<path d="M53.0911 108.548C52.6708 106.447 51.8303 104.627 50.1493 103.226C47.768 101.406 44.6862 101.266 42.1647 102.946C39.9234 104.487 38.2424 106.447 36.9817 108.828C36.7015 109.248 36.5614 109.388 36.1412 109.388C34.3201 109.248 32.499 109.528 30.9581 110.648C28.1565 112.468 26.7557 117.229 29.9776 120.31C31.2383 121.57 32.6391 122.691 34.3201 123.531C37.9622 125.491 41.8845 127.172 45.8068 128.292C46.6473 128.572 47.6279 128.712 48.6084 128.712C49.8692 128.852 50.9898 128.292 51.5502 127.032C51.9704 126.191 52.2506 125.491 52.5307 124.651C53.6514 119.75 54.0716 114.709 53.5113 109.668C53.2311 109.248 53.2311 108.968 53.0911 108.548Z" fill="#14141C"/>
<path d="M154.93 65.5579C151.709 62.3372 149.467 58.4163 148.627 53.6552C148.347 51.5547 148.207 49.5943 148.487 47.4938C149.607 37.8317 154.65 28.3095 162.495 22.4282C165.717 20.0477 169.639 18.3673 173.701 17.8072C181.826 16.5469 190.091 17.8072 197.235 21.588C205.78 26.069 213.064 33.9108 213.765 43.853C213.905 45.2533 213.905 46.6536 213.765 48.054C213.345 52.535 211.944 57.016 209.983 61.0769C207.881 65.2778 205.08 69.1987 201.578 72.2794C195.554 77.1805 187.99 79.1409 180.285 78.1607C175.663 77.6006 171.18 76.0602 166.977 74.0998C162.635 71.7193 158.292 69.0587 154.93 65.5579Z" fill="#66FFCC"/>
<path d="M193.033 63.5975C191.072 65.2779 188.55 66.5382 186.169 65.2779C183.087 63.5975 180.145 61.9171 177.204 60.0967C174.122 58.1363 171.18 55.7558 168.098 53.6553C165.857 51.8349 165.157 49.7344 166.277 47.0738C166.978 45.5335 167.538 43.8531 168.098 42.1727C168.939 39.7922 170.76 38.5319 173.141 37.9718C176.503 37.4117 179.865 36.5715 182.947 35.1712C185.328 34.0509 187.009 32.3705 188.41 30.13C189.251 28.8698 190.091 27.6095 191.072 26.4892C191.632 25.7891 192.472 25.369 193.453 25.509C194.714 25.649 195.694 26.4892 195.414 27.7495C195.134 29.99 194.714 32.2305 194.153 34.331C193.733 36.0114 193.173 37.5517 192.753 39.2321C192.332 40.7724 192.753 41.3325 194.153 42.0327C195.975 43.0129 197.936 44.1332 199.617 45.3934C201.298 46.5137 201.718 48.1941 201.017 50.1545C199.617 53.9354 197.936 57.8562 195.274 60.9369C194.854 61.9171 194.013 62.8974 193.033 63.5975Z" fill="#14141C"/>
<path d="M150.448 215.391L149.327 216.372L132.938 191.166L117.949 191.026L119.49 190.326H134.058L150.448 215.391Z" fill="white"/>
<path d="M27.1759 79.0009C26.0552 79.0009 24.7945 78.8609 23.6738 78.5808C14.9888 76.3403 9.38548 68.0785 5.88343 61.9171C4.6227 59.8166 3.50204 57.5761 2.38139 55.0556C1.26074 52.395 0 49.3143 0 46.0936C0 43.1529 1.12065 39.9322 3.0818 36.8515C6.72393 31.2503 12.047 26.9093 17.2301 22.5683L18.2106 21.7281C19.0511 21.028 20.0317 20.1878 20.8722 19.4876L22.4131 18.2273C22.5532 18.0873 22.8333 18.0873 22.9734 18.2273C23.1135 18.3674 23.1135 18.6474 22.9734 18.7875L21.4325 20.0478C20.592 20.7479 19.6114 21.5881 18.771 22.2883L17.7904 23.1284C12.7474 27.3294 7.42433 31.6703 3.92229 37.1316C1.96114 40.0722 0.980572 43.1529 0.980572 45.9535C0.980572 49.0342 2.10123 52.1149 3.22188 54.6355C4.34254 57.156 5.46319 59.3965 6.72393 61.497C10.0859 67.5184 15.5491 75.6402 23.8139 77.7406C31.6585 79.7011 39.2229 74.2399 45.2464 69.7588L68.9202 52.395C71.5818 50.4345 74.2433 48.4741 76.3446 45.9535C80.8272 40.3523 79.1462 34.0509 76.9049 28.0295C74.3834 21.168 70.7413 14.5865 66.5388 9.40538C64.2975 6.74478 61.9162 4.64432 59.3947 3.38403C58.274 2.82391 57.1534 2.40382 56.0327 2.12375C52.1104 1.14353 47.4877 1.84369 42.865 4.08419C40.2035 5.4845 37.8221 7.16488 35.7209 8.98528C35.5808 9.12532 35.3006 9.12532 35.1605 8.98528C35.0204 8.84525 35.0204 8.56519 35.1605 8.42516C37.4018 6.60475 39.7832 4.78435 42.4448 3.52407C47.0675 1.14353 51.9703 0.443378 56.1728 1.4236C57.4335 1.70366 58.5542 2.12375 59.6748 2.82391C62.3364 4.22422 64.7178 6.32469 66.9591 9.12532C71.3016 14.4465 74.9438 21.028 77.4652 28.0295C79.7065 34.1909 81.5276 40.7724 76.7648 46.7937C74.6636 49.4543 71.862 51.4148 69.2004 53.3752L45.8067 70.459C40.4836 74.2399 34.18 79.0009 27.1759 79.0009Z" fill="white"/>
<path d="M39.363 52.8151C38.9428 52.8151 38.6626 52.675 38.2424 52.535C37.682 52.1149 37.2618 51.5548 36.8415 50.9947C36.1411 49.8744 35.7209 48.6141 35.1606 47.4939C34.7403 46.6537 34.4602 45.6735 34.0399 44.8333C32.9193 42.7328 31.3784 40.9124 30.1176 39.232C29.9775 38.952 29.5573 38.6719 29.2771 38.3918C27.8763 37.1316 26.0552 35.3112 26.7557 33.6308C27.0358 33.0707 27.4561 32.6506 28.4366 32.2305C28.8569 32.0904 29.2771 31.9504 29.6974 31.8104C31.6585 31.2503 33.0593 30.8302 34.3201 30.5501C37.4019 29.8499 40.2035 29.2898 42.8651 29.1498C43.2853 29.1498 43.7056 29.1498 43.9857 29.1498C45.5266 29.1498 46.6473 29.4298 47.4878 30.13C48.4683 30.8302 49.1687 32.0904 49.4489 33.4908C49.8692 36.1513 48.6084 38.8119 47.4878 41.1925C47.3477 41.6126 47.0675 42.0327 46.9274 42.4528C45.3865 45.6735 43.5655 48.8942 41.4642 51.6948C40.7638 52.395 40.0634 52.8151 39.363 52.8151ZM43.9857 29.8499C43.5655 29.8499 43.2853 29.8499 42.8651 29.8499C40.2035 29.99 37.542 30.5501 34.4602 31.2502C33.1994 31.5303 31.7986 31.9504 30.3978 32.3705C29.5573 32.6506 29.137 32.7906 28.7168 32.9306C28.1565 33.2107 27.7362 33.4908 27.5961 33.7708C27.1759 34.8911 28.8569 36.5714 29.9775 37.6917C30.2577 37.9718 30.6779 38.3918 30.818 38.5319C32.2188 40.2123 33.7597 42.0327 34.8804 44.2732C35.3006 45.1134 35.7209 46.0936 36.1411 47.0738C36.5614 48.194 37.1217 49.4543 37.682 50.4345C37.9622 50.8546 38.2424 51.4148 38.8027 51.6948C39.6432 52.2549 40.4837 51.5548 40.9039 50.8546C43.0051 48.054 44.8262 44.9733 46.227 41.7526C46.3671 41.3325 46.6473 40.9124 46.7874 40.4923C47.908 38.1118 49.0287 35.7313 48.6084 33.3507C48.4683 32.2305 47.908 31.2502 47.0675 30.5501C46.227 30.13 45.2465 29.8499 43.9857 29.8499Z" fill="#1A1A1A"/>
<path d="M117.949 82.9218C116.968 82.9218 115.848 82.7818 114.867 82.6417C111.645 81.9416 108.984 81.3814 106.462 80.6813C100.999 79.1409 96.6564 77.3205 92.8742 75.2201C90.0725 73.5397 88.1114 71.8593 86.5705 70.0389C84.7494 67.5184 84.049 64.8578 84.4693 62.0571C84.7494 60.5168 85.0296 58.9764 85.4498 57.5761L85.8701 55.8958C86.0102 55.3356 86.1502 54.7755 86.2903 54.2154L86.8507 52.395C87.411 51.9749 87.8312 51.8349 88.1114 51.6948C88.8118 51.4148 89.6523 50.9947 90.3527 50.7146C96.0961 48.6141 100.999 49.5944 105.201 53.5152C105.902 54.2154 106.742 54.9155 107.443 55.6157C108.283 56.4559 109.124 57.156 109.824 57.9962C112.065 60.0967 114.727 61.357 117.809 61.357C119.21 61.357 120.61 61.357 122.011 61.2169H122.992C123.412 61.2169 123.832 61.2169 124.253 61.2169C126.494 61.2169 128.315 61.637 129.996 62.4772C131.257 63.1774 132.237 63.8775 132.938 64.8578C133.218 65.2779 133.218 65.6979 133.078 66.118C132.797 66.6782 132.657 67.3783 132.377 67.9384C132.097 68.9187 131.677 69.8989 131.257 70.8791L130.836 71.8593C130.136 73.5397 129.436 75.3601 128.595 76.9004C126.914 80.2612 124.253 82.2216 120.891 82.9218C119.91 82.7818 118.929 82.9218 117.949 82.9218ZM87.5511 52.395L87.2709 53.0951L87.1308 53.9353C86.9907 54.4954 86.8507 55.0556 86.7106 55.6157L86.2903 57.2961C86.0102 58.8364 85.5899 60.2367 85.3098 61.7771C84.8895 64.2976 85.4498 66.8182 87.2709 69.0587C88.6717 70.8791 90.6329 72.5595 93.2944 74.0998C97.0766 76.3403 101.279 78.0207 106.602 79.561C108.984 80.2612 111.645 80.8213 114.867 81.5215C116.688 81.9416 118.649 81.9416 120.61 81.5215C123.832 80.9614 126.214 79.0009 127.755 76.0603C128.595 74.3799 129.295 72.6995 129.856 71.0191L130.276 70.0389C130.696 69.0587 130.976 68.0785 131.397 67.0983C131.677 66.5381 131.817 65.838 132.097 65.2779C131.397 63.8775 130.696 63.3174 129.436 62.6173C127.895 61.9171 126.214 61.497 124.112 61.497C123.692 61.497 123.272 61.497 122.852 61.497H121.871C120.47 61.637 119.069 61.637 117.669 61.637C114.447 61.497 111.645 60.2367 109.124 57.9962C108.283 57.156 107.443 56.4559 106.602 55.6157C105.902 54.9155 105.061 54.2154 104.361 53.5152C100.439 49.8744 95.8159 48.8942 90.3527 50.8546C89.6523 51.1347 88.9519 51.4148 88.1114 51.6948C88.2515 52.2549 87.8312 52.2549 87.5511 52.395Z" fill="#1A1A1A"/>
<path d="M133.918 61.357C133.498 61.0769 133.218 60.9369 133.078 60.6568C132.658 60.2367 132.377 59.8166 131.957 59.5365C130.276 58.2763 128.175 57.7161 125.934 57.7161C124.673 57.7161 123.692 57.7161 122.572 57.8562C121.871 57.8562 121.171 57.8562 120.47 57.9962C116.688 58.1362 113.326 56.876 110.525 54.3554C109.684 53.5152 108.844 52.815 108.003 51.9749C107.303 51.2747 106.602 50.5745 105.762 49.8744C101.84 46.2336 97.2168 45.2534 91.7536 47.2138C91.0532 47.4939 90.3528 47.7739 89.6524 48.054C89.3722 48.194 88.952 48.334 88.5317 48.4741C89.0921 44.1331 90.2127 40.3523 92.0338 36.8515C92.8743 35.1711 94.135 33.0706 95.9561 31.3903C97.2168 30.13 98.7577 29.5699 100.579 29.4298C104.501 29.1498 108.563 29.4298 112.626 30.13C114.307 30.41 116.128 30.8301 117.809 31.2502C118.649 31.3903 119.49 31.6703 120.19 31.8104C120.61 31.8104 126.214 33.6308 126.214 33.6308L128.735 34.611C130.276 35.1711 132.237 36.1513 134.058 37.4116C137 39.5121 138.401 42.4527 138.121 45.9535C137.981 46.9337 137.841 48.054 137.56 49.0342L137.42 49.7344C137.28 50.4345 137.14 51.1347 136.86 51.8348L137.14 52.535L134.899 59.6766L134.338 61.0769C133.918 61.357 133.918 61.357 133.918 61.357ZM125.934 56.876C128.455 56.876 130.556 57.5761 132.517 58.8364C132.938 59.1165 133.358 59.6766 133.778 59.9566L134.198 59.2565L136.44 52.1149L136.72 51.1347C136.86 50.4345 137 49.7344 137.28 49.0342L137.42 48.334C137.56 47.3538 137.841 46.3736 137.981 45.3934C138.261 42.1727 137 39.6521 134.338 37.6917C132.237 36.5714 130.276 35.7312 128.875 35.1711L126.354 34.1909L120.751 32.5105C119.49 32.2305 118.789 32.0904 117.949 31.9504C116.268 31.5303 114.447 31.1102 112.766 30.8301C108.704 30.13 104.781 29.8499 100.859 30.13C99.318 30.27 97.9172 30.8301 96.7966 31.9504C95.1156 33.4907 93.9949 35.5912 93.0144 37.2716C91.3334 40.6323 90.2127 44.1331 89.2321 47.4939C90.2127 47.0738 90.9131 46.7937 91.7536 46.5136C97.3569 44.4132 102.4 45.3934 106.602 49.3143C107.303 50.0144 108.003 50.7146 108.844 51.4147C109.684 52.2549 110.525 53.0951 111.365 53.7953C113.887 56.1758 117.108 57.296 120.61 57.156C121.311 57.156 122.011 57.156 122.712 57.016C123.832 57.016 124.813 56.876 125.934 56.876V56.876ZM123.972 50.8546C123.412 50.8546 122.992 50.7146 122.432 50.5745C121.171 50.1545 120.05 49.1742 119.49 47.914C118.929 46.6537 118.789 45.3934 119.35 43.9931C120.05 42.0326 122.011 40.6323 124.113 40.6323C124.673 40.6323 125.093 40.7724 125.653 40.9124C126.774 41.1925 127.895 42.0326 128.455 43.1529C129.155 44.2731 129.296 45.8135 129.015 47.0738C128.175 49.5943 125.934 50.8546 123.972 50.8546ZM123.972 41.4725C122.291 41.4725 120.61 42.5928 120.05 44.2731C119.49 45.6735 119.91 46.7937 120.19 47.4939C120.751 48.4741 121.591 49.3143 122.712 49.7344C123.132 49.8744 123.552 49.8744 123.972 49.8744C125.653 49.8744 127.615 48.8942 128.175 46.6537C128.455 45.6735 128.315 44.4132 127.755 43.433C127.194 42.4527 126.354 41.8926 125.373 41.6126C124.813 41.6126 124.393 41.4725 123.972 41.4725Z" fill="white"/>
<path d="M41.7444 145.236C34.6003 145.236 28.4367 142.435 23.2536 136.974C19.7516 133.193 17.09 129.132 15.5491 124.651C15.4091 124.371 15.4091 124.091 15.269 123.811C15.1289 123.531 14.4285 120.17 14.4285 120.17C14.4285 119.75 14.4285 119.33 14.2884 119.05C14.2884 118.21 14.1483 117.51 14.1483 116.669C14.1483 111.768 15.8293 107.007 18.9111 102.666C23.5338 96.3648 29.8375 91.8838 37.2618 89.3633L39.7833 88.5231L41.7444 88.103C42.1647 88.103 42.5849 87.9629 42.8651 87.9629C43.7056 87.8229 44.5461 87.6829 45.3866 87.6829C53.5113 86.9827 60.5154 89.5033 66.2587 95.2446C70.181 99.1654 73.1227 103.786 75.0839 108.968L75.6442 109.948L76.3446 112.889C76.3446 113.309 76.3446 113.729 76.4847 114.009C76.4847 114.849 76.6248 115.689 76.6248 116.389C76.6248 120.87 74.9438 125.211 71.7219 129.272C68.36 133.473 64.1575 136.414 60.5154 138.934C57.1534 141.175 53.7915 142.855 50.4295 143.835C50.1493 143.975 46.3671 144.816 46.3671 144.816C45.9469 144.816 45.5266 144.956 45.1064 144.956C44.2659 145.096 43.2853 145.096 42.3048 145.096L41.7444 145.236ZM48.0481 88.383C47.2076 88.383 46.3671 88.383 45.5266 88.5231C44.6861 88.5231 43.8457 88.6631 43.0052 88.8031C42.5849 88.8031 42.3048 88.9432 41.8845 88.9432L40.0634 89.3633L37.542 90.2034C30.1176 92.584 24.0941 96.9249 19.6115 103.226C16.5297 107.427 14.9888 111.908 14.9888 116.809C14.9888 117.65 14.9888 118.35 15.1289 119.19C15.1289 119.61 15.1289 119.89 15.269 120.31C15.269 120.59 16.1095 123.811 16.1095 123.811C16.2495 124.091 16.3896 124.371 16.3896 124.651C17.9305 128.992 20.5921 133.053 23.954 136.694C28.997 142.015 35.0205 144.816 41.8845 144.816C43.1452 144.816 43.9857 144.676 44.9663 144.676C45.3866 144.676 45.8068 144.536 46.227 144.536L49.7291 143.695C53.3712 142.575 56.5931 141.035 59.9551 138.794C63.5972 136.414 67.6596 133.333 70.8814 129.272C74.1033 125.351 75.6442 121.29 75.6442 116.949C75.6442 116.109 75.6442 115.409 75.5041 114.569C75.5041 114.149 75.5041 113.869 75.3641 113.449L74.6636 110.648L74.2434 109.528C72.4223 104.487 69.4806 100.006 65.5583 96.0848C60.7955 90.7636 54.772 88.383 48.0481 88.383Z" fill="white"/>
<path d="M51.2699 128.572C50.0092 128.432 49.0286 128.432 48.048 128.152C44.4059 127.172 40.7638 125.631 36.4212 123.391C35.0204 122.691 33.6196 121.57 32.0787 120.17C30.6779 118.77 29.9775 116.949 30.1176 114.989C30.2576 112.888 31.3783 110.928 33.0593 109.808C34.6002 108.687 36.4212 108.267 38.5225 108.407C38.8026 108.407 38.8026 108.407 39.0828 108.127C40.4836 105.467 42.1646 103.506 44.4059 101.966C47.0675 100.146 50.4294 100.286 52.8108 102.246C54.4918 103.506 55.4724 105.327 56.0327 107.847C56.1728 108.407 56.3129 108.688 56.3129 108.968C56.8732 114.149 56.4529 119.19 55.3323 124.091C55.0521 124.931 54.772 125.771 54.3517 126.612C53.6513 127.872 52.6707 128.572 51.2699 128.572ZM37.8221 109.108C36.1411 109.108 34.7403 109.528 33.6196 110.368C32.2188 111.348 31.0981 113.168 30.9581 114.989C30.818 116.249 31.0981 117.93 32.639 119.47C34.1799 120.87 35.4407 121.85 36.8415 122.551C41.0439 124.791 44.6861 126.191 48.3282 127.312C49.1687 127.592 50.1493 127.732 50.9898 127.732C52.1104 127.872 52.9509 127.312 53.5112 126.331C53.9315 125.631 54.2116 124.791 54.4918 123.951C55.6125 119.05 56.0327 114.009 55.4724 109.108C55.4724 108.828 55.3323 108.687 55.3323 108.407C54.772 105.747 53.7914 104.066 52.3906 102.946C50.1493 101.126 47.2075 101.126 44.9662 102.666C42.865 104.066 41.184 105.887 39.9233 108.407C39.7832 108.828 39.363 109.108 38.8026 109.108C38.3824 109.108 38.1022 109.108 37.8221 109.108Z" fill="#1A1A1A"/>
<path d="M266.856 127.592C266.576 127.452 261.953 122.831 261.953 122.831C261.813 122.691 261.813 122.411 261.953 122.271C262.093 122.131 262.373 122.131 262.513 122.271L267.136 126.892C267.276 127.032 267.276 127.312 267.136 127.452C266.996 127.592 266.996 127.592 266.856 127.592Z" fill="white"/>
<path d="M262.233 127.592C261.813 127.312 261.813 127.032 261.953 126.892L266.576 122.271C266.716 122.131 266.996 122.131 267.136 122.271C267.276 122.411 267.276 122.691 267.136 122.831L262.513 127.452C262.513 127.592 262.373 127.592 262.233 127.592Z" fill="white"/>
<path d="M272.319 120.17C271.338 120.17 270.638 119.33 270.638 118.49C270.638 117.509 271.479 116.809 272.319 116.809C273.3 116.809 274 117.65 274 118.49C274 119.47 273.3 120.17 272.319 120.17ZM272.319 117.509C271.759 117.509 271.479 117.93 271.479 118.35C271.479 118.91 271.899 119.19 272.319 119.19C272.879 119.19 273.16 118.77 273.16 118.35C273.16 117.93 272.739 117.509 272.319 117.509Z" fill="white"/>
<path d="M24.5144 184.585C23.5338 184.585 22.8334 183.744 22.8334 182.904C22.8334 181.924 23.6739 181.224 24.5144 181.224C25.4949 181.224 26.1953 182.064 26.1953 182.904C26.1953 183.884 25.4949 184.585 24.5144 184.585ZM24.5144 182.064C23.954 182.064 23.6739 182.484 23.6739 182.904C23.6739 183.464 24.0941 183.744 24.5144 183.744C25.0747 183.744 25.3548 183.324 25.3548 182.904C25.3548 182.484 25.0747 182.064 24.5144 182.064Z" fill="white"/>
<path d="M172.441 136.694C170.62 136.694 169.219 135.714 168.939 134.733C168.799 134.173 168.799 133.613 169.219 133.193C169.639 132.633 170.48 132.353 171.46 132.493C171.88 132.633 172.301 132.633 172.441 132.633C173.141 132.353 173.281 132.213 173.421 131.233C173.701 130.112 174.402 129.412 175.382 129.412C175.803 129.412 176.223 129.552 176.503 129.832C177.063 130.252 177.203 131.093 177.203 132.213C177.063 133.753 176.363 135.154 175.102 135.854C174.122 136.414 173.281 136.694 172.441 136.694ZM170.76 133.193C170.339 133.193 169.919 133.333 169.779 133.613C169.639 133.753 169.639 134.033 169.639 134.313C169.779 134.873 170.9 135.714 172.441 135.714C173.141 135.714 173.842 135.434 174.542 135.154C175.522 134.593 176.223 133.333 176.223 132.073C176.223 131.233 176.083 130.673 175.803 130.392C175.242 129.832 174.402 130.392 174.122 131.373C173.842 132.633 173.701 132.913 173.141 133.193C172.721 133.473 172.441 133.613 171.04 133.333C171.04 133.193 170.9 133.193 170.76 133.193Z" fill="#1A1A1A"/>
<path d="M237.018 184.304C232.956 175.062 225.392 158.819 223.991 156.858C222.59 154.758 221.189 152.937 217.547 150.557C214.605 148.736 211.664 149.437 207.881 150.277C203.539 151.257 198.216 152.517 190.791 150.557C187.149 149.577 184.628 147.616 183.367 144.816C180.706 138.654 184.768 130.532 184.908 130.252C185.048 130.112 185.328 129.972 185.468 130.112C185.608 130.252 185.748 130.532 185.608 130.672C185.608 130.812 181.546 138.794 184.067 144.536C185.188 147.056 187.57 148.877 190.932 149.857C198.216 151.817 203.399 150.557 207.601 149.577C211.524 148.596 214.745 147.896 217.967 149.997C221.75 152.377 223.29 154.338 224.691 156.438C226.092 158.399 233.797 174.782 237.439 183.744C237.579 184.024 237.439 184.164 237.159 184.304H237.018Z" fill="#1A1A1A"/>
<path d="M224.551 242.417C196.955 242.417 162.355 222.673 161.935 222.533C161.794 221.973 168.518 203.209 168.518 203.209C168.658 203.069 168.799 202.929 169.079 202.929L223.851 216.652C224.131 216.652 224.271 216.932 224.131 217.212C224.131 217.492 223.851 217.632 223.571 217.492L169.219 203.769L162.635 221.833C166.557 224.073 207.461 246.338 234.217 240.457C234.497 240.457 234.637 240.597 234.777 240.737C234.777 241.017 234.637 241.157 234.497 241.297C231.275 242.137 228.053 242.417 224.551 242.417Z" fill="#1A1A1A"/>
<path d="M186.869 131.233C186.309 131.233 185.608 131.093 184.768 130.812C184.488 130.672 184.488 130.532 184.488 130.252C184.628 129.972 184.768 129.972 185.048 129.972C186.589 130.532 187.99 130.392 188.97 129.692C190.371 128.712 190.931 126.752 190.931 125.351C190.931 124.231 190.651 120.59 187.289 120.45C185.188 120.45 184.067 122.691 184.067 122.691C183.927 122.831 183.647 122.971 183.507 122.831C183.367 122.691 183.227 122.411 183.367 122.271C183.367 122.131 184.768 119.61 187.289 119.61C190.651 119.75 191.772 122.551 191.772 125.351C191.772 126.892 191.072 129.132 189.391 130.392C188.83 130.812 187.99 131.233 186.869 131.233Z" fill="#1A1A1A"/>
<path d="M187.99 128.432C187.85 128.432 184.488 126.612 184.488 126.612C184.348 125.911 187.85 121.991 187.85 121.991C187.99 121.85 188.27 121.85 188.41 121.991C188.55 122.131 188.55 122.411 188.41 122.551L185.188 126.051L187.99 127.592C188.13 127.732 188.27 128.012 188.13 128.152C188.27 128.432 188.13 128.432 187.99 128.432Z" fill="#1A1A1A"/>
<path d="M169.919 142.995C169.359 142.995 168.799 142.995 168.378 142.855C166.137 142.435 164.456 141.035 163.195 138.514C161.374 134.593 160.814 130.252 160.394 126.191C160.114 124.091 159.553 118.35 159.553 118.21C159.553 117.93 159.833 117.79 159.973 117.79C160.254 117.79 160.394 118.07 160.394 118.21C160.394 118.35 160.814 122.411 161.094 125.351C161.654 129.972 162.075 134.313 163.896 138.094C165.016 140.335 166.417 141.595 168.518 142.015C169.779 142.295 171.18 142.155 172.861 141.735C174.962 141.315 176.643 140.895 178.184 140.335C178.464 140.195 178.604 140.335 178.744 140.615C178.884 140.895 178.744 141.035 178.464 141.175C176.923 141.735 175.242 142.155 173.141 142.575C171.88 142.855 170.9 142.995 169.919 142.995Z" fill="#1A1A1A"/>
<path d="M168.518 131.653C167.538 131.513 164.596 131.233 164.036 130.252C163.896 129.972 163.896 129.692 164.036 129.412C166.978 123.811 167.258 120.31 167.258 120.31C167.258 120.03 167.398 119.89 167.678 119.89C167.958 119.89 168.098 120.03 168.098 120.31C168.098 120.45 167.818 123.951 164.876 129.692C165.016 129.972 166.837 130.532 168.659 130.672C168.939 130.672 169.079 130.952 169.079 131.093C168.939 131.513 168.799 131.653 168.518 131.653Z" fill="#1A1A1A"/>
<path d="M160.113 120.87C159.693 120.73 159.693 120.45 159.693 120.31C159.693 120.17 160.814 118.49 164.176 118.91C164.456 118.91 164.596 119.19 164.596 119.33C164.596 119.61 164.316 119.75 164.176 119.75C161.514 119.33 160.674 120.59 160.534 120.73C160.394 120.87 160.254 120.87 160.113 120.87Z" fill="#1A1A1A"/>
<path d="M175.803 120.31C175.382 120.03 173.982 118.21 170.34 118.91C170.059 118.91 169.919 118.77 169.779 118.63C169.779 118.35 169.919 118.21 170.059 118.07C174.122 117.229 175.943 119.47 176.083 119.61C176.223 119.75 176.223 120.03 175.943 120.17C175.943 120.17 175.943 120.31 175.803 120.31Z" fill="#1A1A1A"/>
<path d="M173.141 124.791C173.421 124.791 173.701 124.511 173.701 124.231L173.561 122.551C173.561 122.271 173.281 121.99 173.001 121.99C172.721 121.99 172.441 122.271 172.441 122.551L172.581 124.231C172.581 124.511 172.861 124.791 173.141 124.791Z" fill="#1A1A1A"/>
<path d="M163.335 125.631C163.616 125.631 163.896 125.351 163.896 125.071L163.756 123.391C163.756 123.111 163.475 122.831 163.195 122.831C162.915 122.831 162.635 123.111 162.635 123.391L162.775 125.071C162.635 125.351 162.915 125.631 163.335 125.631Z" fill="#1A1A1A"/>
<path d="M227.213 162.32C226.933 162.32 226.792 162.039 226.792 161.899C227.353 153.638 224.971 151.957 222.73 150.417C221.049 149.157 219.228 147.896 219.228 143.835C219.368 135.293 212.504 134.873 204.519 134.453C195.554 133.893 194.574 115.129 194.434 107.007C194.434 106.727 194.434 106.447 194.294 106.167C193.873 105.047 192.753 104.487 191.632 104.067C181.826 100.006 173.281 99.5855 165.857 102.806C161.935 104.627 157.312 107.567 157.312 111.908C157.312 117.089 157.452 118.07 157.452 118.21C157.312 118.77 157.032 118.91 156.892 118.77C156.612 118.63 156.471 118.49 156.471 111.908C156.471 108.127 159.553 104.767 165.437 102.106C173.001 98.7453 181.826 99.1654 191.772 103.226C193.033 103.786 194.434 104.347 194.994 105.887C195.134 106.307 195.134 106.587 195.134 107.007C195.134 113.169 195.974 133.053 204.239 133.613C211.944 134.173 219.928 134.593 219.788 143.835C219.788 147.476 221.189 148.456 222.87 149.717C225.252 151.397 227.913 153.218 227.353 162.039C227.493 162.039 227.353 162.32 227.213 162.32Z" fill="#1A1A1A"/>
<path d="M185.468 159.099C181.826 158.819 180.565 156.018 180.005 153.638C179.585 155.458 178.884 157.138 177.624 157.278C177.063 157.278 176.643 157.138 176.223 156.578C174.962 154.898 175.382 149.857 177.343 144.956C177.484 144.676 177.624 144.676 177.904 144.676C178.184 144.816 178.184 144.956 178.184 145.236C176.223 150.277 176.083 154.758 176.923 156.018C177.063 156.298 177.343 156.438 177.624 156.298C178.884 156.158 179.725 152.377 179.725 149.577C179.725 149.297 179.865 149.157 180.145 149.157C180.425 149.157 180.565 149.297 180.565 149.577C180.565 149.857 180.285 157.558 185.048 157.979C190.231 157.979 193.733 150.557 193.733 150.557C193.873 150.417 194.013 150.277 194.293 150.417C194.433 150.557 194.574 150.697 194.433 150.977C194.433 151.537 190.651 159.099 185.468 159.099Z" fill="#1A1A1A"/>
<path d="M218.388 216.232C217.967 215.812 212.924 200.268 204.519 178.423C204.379 178.143 204.519 178.003 204.8 177.863C205.08 177.723 205.22 177.863 205.36 178.143C213.765 199.988 218.808 215.531 218.808 215.671C218.808 215.952 218.808 216.092 218.388 216.232C218.388 216.232 218.528 216.232 218.388 216.232Z" fill="#1A1A1A"/>
<path d="M169.219 247.318C168.939 247.318 168.799 247.178 168.799 246.898L169.359 226.174C169.359 225.894 169.499 225.754 169.779 225.754C170.059 225.754 170.199 225.894 170.199 226.174L169.639 246.898C169.639 247.178 169.499 247.318 169.219 247.318Z" fill="#1A1A1A"/>
<path d="M228.754 247.458C228.333 247.178 226.792 242.137 226.792 242.137C226.792 241.857 226.792 241.717 227.073 241.577C227.353 241.577 227.493 241.577 227.633 241.857L229.174 246.898C229.174 247.038 229.034 247.318 228.754 247.458Z" fill="#1A1A1A"/>
<path d="M168.238 205.729C167.818 205.449 160.534 194.807 161.654 184.304C162.775 174.222 169.779 153.638 176.643 146.636C176.783 146.496 177.063 146.496 177.204 146.636C177.344 146.776 177.344 147.056 177.204 147.196C170.62 153.778 163.475 174.362 162.355 184.304C161.234 194.527 168.378 204.889 168.378 204.889C168.518 205.029 168.518 205.309 168.238 205.449C168.518 205.729 168.378 205.729 168.238 205.729Z" fill="#1A1A1A"/>
<path d="M149.327 216.792H134.198C133.778 216.652 131.677 213.151 131.677 213.151C131.537 213.011 131.677 212.731 131.817 212.591C131.957 212.451 132.237 212.591 132.377 212.731L134.479 215.951H148.487L132.657 191.586H118.509L124.393 200.688C124.533 200.828 124.533 201.108 124.253 201.248C124.112 201.388 123.832 201.388 123.692 201.108L117.389 191.446C117.809 190.746 132.938 190.746 132.938 190.746C133.358 190.886 149.607 216.091 149.607 216.091C149.607 216.652 149.467 216.792 149.327 216.792Z" fill="#1A1A1A"/>
<path d="M149.327 216.792C148.907 216.372 148.907 216.092 149.047 216.092L149.888 215.531L133.918 190.886H119.63L117.949 191.586C117.669 191.726 117.529 191.586 117.389 191.306C117.248 191.026 117.389 190.886 117.669 190.746L119.49 189.906C119.63 189.906 134.198 189.906 134.198 189.906C134.619 190.046 150.868 215.251 150.868 215.251C151.008 215.391 151.008 215.671 150.728 215.812L149.607 216.652C149.467 216.792 149.327 216.792 149.327 216.792Z" fill="#1A1A1A"/>
<path d="M162.775 244.238C162.355 244.238 161.935 244.238 161.514 244.238C152.549 243.678 132.798 218.192 131.957 217.072C132.097 216.512 133.638 215.531 133.638 215.531C133.778 215.391 134.058 215.531 134.198 215.671C134.338 215.811 134.198 216.092 134.058 216.232L132.938 216.932C135.459 220.152 153.53 242.837 161.654 243.398C164.876 243.538 167.118 242.978 168.378 241.717C169.499 240.597 169.219 239.197 169.219 239.057C169.219 238.777 169.359 238.637 169.499 238.637C169.779 238.637 169.919 238.777 169.919 238.917C169.919 239.057 170.199 240.737 168.799 242.277C167.678 243.538 165.577 244.238 162.775 244.238Z" fill="#1A1A1A"/>
<path d="M160.394 201.108C160.113 201.108 159.973 200.968 159.973 200.688C159.973 200.688 159.693 197.467 159.273 183.884C158.853 170.021 173.001 151.677 173.561 150.837C173.701 150.697 173.982 150.557 174.122 150.697C174.262 150.837 174.402 151.117 174.262 151.257C174.122 151.397 159.693 170.301 160.113 183.744C160.534 197.327 160.814 200.548 160.814 200.548C160.814 200.828 160.674 200.968 160.394 201.108Z" fill="#1A1A1A"/>
<path d="M59.0056 247.458C57.0018 247.458 56 247.318 56 247.038C56 246.758 57.0018 246.618 59.0056 246.618L258.387 246.478C260.391 246.478 261.393 246.618 261.393 246.898C261.393 247.178 260.391 247.318 258.387 247.318L59.0056 247.458Z" fill="#1A1A1A"/>
<path d="M239.82 231.215C237.999 231.075 236.598 230.515 235.057 229.815C230.855 227.854 227.493 224.213 226.372 220.432C225.532 217.772 225.952 215.111 227.353 212.731C227.773 212.031 228.193 211.47 228.754 210.91C229.874 209.51 230.855 208.25 230.855 206.709C230.855 205.309 230.294 203.909 229.734 202.508C229.034 200.968 228.473 199.568 228.613 197.747C228.894 194.247 230.855 190.746 234.077 188.085C234.497 187.805 234.917 187.525 235.337 187.105C235.477 186.965 235.758 186.965 235.898 187.245C236.038 187.385 236.038 187.665 235.758 187.805C235.337 188.085 234.917 188.365 234.637 188.645C231.555 191.166 229.734 194.387 229.594 197.747C229.454 199.288 230.154 200.688 230.715 202.088C231.275 203.489 231.975 205.029 231.835 206.569C231.695 208.53 230.575 209.93 229.454 211.33C229.034 211.891 228.473 212.451 228.053 213.151C226.792 215.251 226.512 217.632 227.213 220.152C228.333 223.793 231.555 227.294 235.477 229.114C237.018 229.815 238.279 230.235 239.96 230.515C240.24 230.515 240.38 230.795 240.38 230.935C240.24 231.075 239.96 231.215 239.82 231.215Z" fill="#1A1A1A"/>
<path d="M239.82 231.215C237.999 231.075 236.598 230.515 235.057 229.815C230.855 227.854 227.493 224.213 226.372 220.432C225.532 217.772 225.952 215.111 227.353 212.731C227.773 212.031 228.193 211.47 228.754 210.91C229.874 209.51 230.855 208.25 230.855 206.709C230.855 205.309 230.294 203.909 229.734 202.508C229.034 200.968 228.473 199.568 228.613 197.747C228.894 194.247 230.855 190.746 234.077 188.085C234.497 187.805 234.917 187.525 235.337 187.105C235.477 186.965 235.758 186.965 235.898 187.245C236.038 187.385 236.038 187.665 235.758 187.805C235.337 188.085 234.917 188.365 234.637 188.645C231.555 191.166 229.734 194.387 229.594 197.747C229.454 199.288 230.154 200.688 230.715 202.088C231.275 203.489 231.975 205.029 231.835 206.569C231.695 208.53 230.575 209.93 229.454 211.33C229.034 211.891 228.473 212.451 228.053 213.151C226.792 215.251 226.512 217.632 227.213 220.152C228.333 223.793 231.555 227.294 235.477 229.114C237.018 229.815 238.279 230.235 239.96 230.515C240.24 230.515 240.38 230.795 240.38 230.935C240.24 231.075 239.96 231.215 239.82 231.215Z" fill="#1A1A1A"/>
<path d="M254.809 214.411C254.249 213.711 254.108 213.431 253.828 213.011C253.128 211.611 252.568 210.35 252.848 208.81C253.128 206.989 254.529 205.589 255.789 204.329C256.49 203.629 257.33 202.789 257.751 202.088C258.871 200.268 259.992 197.607 258.591 194.667C257.751 192.706 256.21 191.026 254.529 189.626C253.268 188.365 252.147 187.385 251.727 185.845C251.447 184.865 251.587 184.024 251.587 183.044C251.727 181.924 252.147 180.384 252.568 178.843C253.968 173.522 255.649 166.941 250.326 165.12C249.486 164.84 248.785 164.84 248.085 165.26C245.844 166.52 244.303 170.581 243.882 172.262C243.602 173.802 243.462 175.482 243.462 177.023C243.462 179.123 243.322 181.224 242.622 183.184C242.482 183.464 242.342 183.464 242.061 183.464C241.781 183.324 241.781 183.184 241.781 182.904C242.482 181.084 242.482 179.123 242.482 177.023C242.482 175.342 242.622 173.662 242.902 172.122C243.182 170.581 244.863 166.1 247.525 164.56C248.505 164 249.486 164 250.466 164.28C256.49 166.38 254.529 173.662 253.128 179.123C252.708 180.664 252.287 182.204 252.287 183.184C252.147 184.024 252.147 184.865 252.287 185.565C252.568 186.825 253.688 187.805 254.669 188.785C256.49 190.466 258.031 192.146 259.011 194.247C260.132 196.767 259.852 199.708 258.031 202.368C257.47 203.209 256.63 204.049 255.929 204.749C254.669 206.009 253.408 207.27 253.128 208.81C252.848 210.21 253.408 211.19 254.108 212.451C254.249 212.871 254.529 213.151 254.669 213.571C254.809 213.851 254.669 213.991 254.389 214.131C254.949 214.411 254.809 214.411 254.809 214.411Z" fill="#1A1A1A"/>
<path d="M252.287 243.258C247.104 243.258 242.061 239.757 240.38 234.856C238.839 230.655 239.68 225.474 242.342 221.413C244.022 219.032 246.264 216.932 249.065 215.391C250.046 214.831 251.307 214.551 252.427 214.271C253.548 213.991 254.529 213.711 255.509 213.291C257.33 212.311 258.311 210.35 259.011 208.39C259.151 208.11 259.291 207.69 259.431 207.41C259.992 205.729 260.552 204.189 261.673 202.649C262.793 201.108 264.334 200.268 266.015 200.268C266.716 200.268 267.416 200.408 268.117 200.688C269.938 201.528 271.198 203.209 271.619 205.169C272.179 207.69 271.338 210.63 269.377 213.151C268.957 213.711 268.397 214.271 267.976 214.831C266.155 216.932 264.615 218.752 265.175 221.833C266.155 226.734 265.735 231.215 264.194 234.856C262.233 239.337 258.451 242.417 254.108 242.978C253.408 243.118 252.848 243.258 252.287 243.258ZM265.875 201.108C264.474 201.108 263.214 201.808 262.233 203.069C261.253 204.329 260.692 206.009 260.132 207.55C259.992 207.83 259.852 208.25 259.712 208.53C258.871 210.63 257.891 212.871 255.789 213.991C254.809 214.551 253.688 214.831 252.567 215.111C251.447 215.391 250.466 215.672 249.486 216.092C246.824 217.492 244.583 219.452 243.042 221.833C240.52 225.614 239.82 230.515 241.221 234.576C242.762 239.057 247.525 242.417 252.427 242.417C252.848 242.417 253.408 242.417 253.828 242.277C257.751 241.717 261.393 238.777 263.214 234.576C264.755 231.075 265.175 226.734 264.194 221.973C263.494 218.612 265.315 216.512 267.136 214.271C267.556 213.711 268.117 213.151 268.537 212.591C270.358 210.21 271.058 207.55 270.638 205.309C270.218 203.489 269.097 202.088 267.556 201.388C266.996 201.248 266.436 201.108 265.875 201.108Z" fill="#1A1A1A"/>
<path d="M79.4263 242.557C78.5858 242.557 77.8854 242.417 77.0449 242.277C72.7024 241.437 68.64 238.076 66.5388 233.595C65.278 230.935 64.7177 227.994 64.8578 224.774C64.8578 223.513 65.278 222.393 65.5582 221.413C65.8384 220.293 66.2586 219.312 66.2586 218.332C66.3987 216.232 65.138 214.411 63.8772 212.731C63.597 212.451 63.457 212.171 63.1768 211.891C62.0561 210.63 60.9355 209.23 60.2351 207.55C59.2545 205.029 59.9549 202.509 61.9161 201.108C63.457 199.988 65.5582 199.708 67.5193 200.408C70.0408 201.248 72.002 203.489 73.2627 206.429C73.5429 207.13 73.823 207.83 73.9631 208.53C74.6635 210.49 75.2238 212.451 76.7647 213.571C76.9048 213.711 77.0449 213.991 76.9048 214.131C76.7647 214.271 76.4846 214.411 76.3445 214.271C74.5234 212.871 73.9631 210.91 73.2627 208.81C72.9825 208.11 72.8425 207.41 72.5623 206.85C71.4416 204.049 69.6206 202.088 67.3793 201.248C65.6983 200.688 63.8772 200.828 62.4764 201.808C60.7954 203.069 60.2351 205.169 61.0756 207.27C61.6359 208.81 62.7566 210.07 63.8772 211.331C64.1574 211.611 64.2975 211.891 64.5776 212.171C65.9784 213.991 67.3793 215.952 67.2392 218.332C67.2392 219.452 66.8189 220.573 66.5388 221.693C66.2586 222.813 65.8384 223.793 65.8384 224.914C65.6983 227.994 66.2586 230.795 67.3793 233.315C69.3404 237.516 73.1226 240.597 77.3251 241.437C82.6482 242.557 88.3915 239.617 90.4928 234.716C92.0337 231.075 91.3333 226.454 88.8118 222.673C87.9713 221.413 86.8506 220.293 85.5899 219.172C85.4498 219.032 85.4498 218.752 85.5899 218.612C85.73 218.472 86.0101 218.472 86.1502 218.612C87.551 219.732 88.6717 220.853 89.5122 222.253C92.3138 226.174 93.0142 231.075 91.3333 234.996C89.0919 239.617 84.3292 242.557 79.4263 242.557Z" fill="#1A1A1A"/>
<path d="M88.8119 247.038C82.3681 235.976 64.7178 204.889 64.4377 204.469C64.2976 204.329 64.4377 204.049 64.5777 203.909C64.7178 203.769 64.998 203.909 65.1381 204.049C65.2782 204.329 83.0685 235.416 89.0921 246.338C89.2321 246.478 89.0921 246.758 88.952 246.898C88.952 247.038 88.952 247.038 88.8119 247.038Z" fill="#1A1A1A"/>
<path d="M236.038 247.599C235.758 247.599 235.618 247.318 235.618 247.038L249.486 172.262C249.486 171.982 249.766 171.842 249.906 171.982C250.186 171.982 250.326 172.262 250.186 172.402L236.318 247.178C236.458 247.459 236.178 247.599 236.038 247.599Z" fill="#1A1A1A"/>
<path d="M244.723 247.739C244.303 247.599 244.303 247.318 244.303 247.178L265.875 206.429C266.015 206.289 266.295 206.149 266.436 206.289C266.576 206.429 266.716 206.709 266.576 206.849L245.003 247.599C245.003 247.599 244.863 247.739 244.723 247.739Z" fill="#1A1A1A"/>
<path d="M180.986 150.277C180.565 150.277 180.285 150.137 179.865 149.997C178.604 149.297 178.044 147.616 177.904 146.776C177.203 144.676 176.083 141.595 176.083 141.595C175.943 141.315 176.083 141.175 176.363 141.035C176.643 140.895 176.783 141.035 176.923 141.315C176.923 141.315 178.044 144.396 178.744 146.356C179.025 147.336 179.445 148.877 180.425 149.297C180.846 149.437 181.266 149.577 181.826 149.297C184.067 148.456 184.067 146.076 184.067 145.936C184.067 145.656 184.208 145.516 184.488 145.516C184.628 145.516 184.908 145.656 184.908 145.936C184.908 145.936 185.048 149.017 182.106 149.997C181.686 150.277 181.266 150.277 180.986 150.277Z" fill="#1A1A1A"/>
<path d="M171.04 153.217C170.199 153.217 169.219 153.077 168.238 152.377C165.997 150.697 164.876 147.056 165.297 141.175C165.297 140.895 165.437 140.755 165.717 140.755C165.997 140.755 166.137 141.035 166.137 141.175C165.857 146.496 166.697 150.137 168.799 151.537C170.62 152.797 172.861 151.957 172.861 151.957C173.001 151.817 173.281 151.957 173.421 152.237C173.561 152.517 173.421 152.657 173.141 152.797C173.001 152.797 172.161 153.217 171.04 153.217Z" fill="#1A1A1A"/>
<path d="M128.455 190.746C128.035 190.606 128.035 190.326 128.035 190.186C130.136 186.405 131.537 179.963 129.716 173.942C128.455 170.021 126.074 167.081 122.572 165.4C116.968 162.6 114.027 159.659 113.886 156.578C113.746 153.498 116.548 150.277 122.151 147.196C126.774 144.676 132.657 144.255 139.521 143.835C146.105 143.415 153.53 142.995 161.935 140.615C162.215 140.615 162.355 140.615 162.495 140.895C162.495 141.175 162.495 141.315 162.215 141.455C153.67 143.835 146.245 144.255 139.662 144.676C132.938 145.096 127.054 145.516 122.572 148.036C117.248 150.977 114.727 153.918 114.727 156.718C114.867 159.519 117.529 162.319 122.992 164.84C126.634 166.66 129.295 169.741 130.556 173.942C132.517 180.103 130.976 186.825 128.735 190.746C128.735 190.746 128.595 190.746 128.455 190.746Z" fill="#1A1A1A"/>
<path d="M199.196 120.31C198.776 120.03 198.776 119.75 198.916 119.61C206.34 110.228 207.881 103.366 210.263 93.0041C210.543 91.7438 210.823 90.6235 211.103 89.2232C212.364 83.902 213.485 77.4606 212.084 70.5991C212.084 70.319 212.224 70.179 212.364 70.179C212.644 70.179 212.784 70.319 212.784 70.459C214.185 77.4606 213.064 83.902 211.804 89.3632C211.523 90.6235 211.243 91.8838 210.963 93.1441C208.582 103.646 207.041 110.648 199.476 120.17C199.476 120.17 199.336 120.31 199.196 120.31Z" fill="#1A1A1A"/>
<path d="M161.234 25.649C150.728 23.1284 141.202 22.0082 132.097 20.8879C129.436 20.6078 126.774 20.3278 124.112 19.9077C123.832 19.9077 123.692 19.6276 123.692 19.4876C123.692 19.2075 123.972 19.0675 124.112 19.0675C126.774 19.3476 129.436 19.7677 132.097 20.0477C141.202 21.168 150.728 22.2882 161.234 24.8088C161.514 24.8088 161.654 25.0889 161.514 25.3689C161.514 25.5089 161.374 25.649 161.234 25.649Z" fill="#1A1A1A"/>
<path d="M184.348 122.131C182.246 121.01 181.406 117.23 180.986 114.009C180.846 115.409 180.846 116.389 180.846 116.529C180.846 116.809 180.706 116.949 180.425 116.949L157.452 118.63C157.172 118.63 157.032 118.49 157.032 118.21C157.032 117.93 157.172 117.79 157.452 117.79L180.005 116.109C180.005 115.129 180.145 112.188 180.565 109.808C180.565 109.668 180.706 109.388 180.986 109.528C181.266 109.528 181.406 109.668 181.406 109.948C181.546 112.749 182.246 120.17 184.628 121.43C184.768 121.57 184.908 121.851 184.768 121.991C184.628 121.991 184.488 122.131 184.348 122.131Z" fill="#1A1A1A"/>
<path d="M190.932 103.506C190.511 103.226 190.511 102.946 190.651 102.806C190.651 102.806 197.375 96.7849 196.535 92.0239C196.255 90.2034 194.714 88.6631 192.192 87.6829C188.55 86.2826 185.889 86.2826 184.208 87.6829C182.106 89.6433 181.826 94.1243 183.647 100.566C183.647 100.846 183.647 100.986 183.367 101.126C183.087 101.126 182.947 101.126 182.807 100.846C180.846 94.1243 181.126 89.3633 183.647 87.1228C185.468 85.4424 188.55 85.3024 192.472 86.9827C195.274 88.103 196.955 89.7834 197.375 92.0239C198.216 97.205 191.492 103.366 191.212 103.506C191.212 103.506 191.072 103.506 190.932 103.506Z" fill="#1A1A1A"/>
<path d="M177.063 180.384C176.783 180.384 176.643 180.243 176.643 179.963C176.643 179.823 174.682 165.54 175.663 155.458C175.663 155.178 175.943 155.038 176.083 155.038C176.363 155.038 176.503 155.318 176.503 155.458C175.803 163.02 176.643 173.102 177.204 177.443C179.025 171.141 183.227 163.72 186.449 158.259C186.589 158.119 186.869 157.979 187.009 158.119C187.149 158.259 187.289 158.539 187.149 158.679C183.507 164.7 178.744 173.242 177.344 179.823C177.484 180.243 177.344 180.384 177.063 180.384Z" fill="#1A1A1A"/>
<path d="M164.456 216.372C159.553 214.971 156.331 213.011 154.23 211.47C154.51 212.311 154.65 213.151 154.37 213.571C154.09 214.131 153.53 214.271 152.689 214.271C149.047 213.991 146.105 209.23 145.545 208.39C145.125 208.25 144.985 207.97 144.985 207.83C145.125 207.55 145.265 207.55 145.545 207.55C146.105 207.83 149.187 213.151 152.829 213.571C153.109 213.571 153.53 213.571 153.67 213.291C153.95 212.731 153.109 211.05 152.129 209.51C151.568 208.81 151.288 208.25 151.148 208.25C151.008 208.11 151.148 207.83 151.288 207.69C151.428 207.55 151.709 207.55 151.849 207.83C151.989 207.97 152.269 208.39 152.689 208.95C154.09 210.63 157.592 213.711 164.456 215.671C164.736 215.671 164.876 215.951 164.736 216.231C164.736 216.231 164.596 216.372 164.456 216.372Z" fill="#1A1A1A"/>
<path d="M143.584 205.589C142.743 204.609 142.883 203.629 143.023 203.349C143.304 202.088 145.125 200.548 146.385 199.708C145.545 199.568 144.004 199.148 141.202 198.588C139.101 198.028 138.121 197.467 138.121 197.467C137.981 197.327 137.84 197.047 137.981 196.907C138.121 196.767 138.401 196.627 138.541 196.767C138.541 196.767 139.521 197.327 141.483 197.887C146.385 199.008 147.506 199.288 147.506 199.288C146.666 200.688 144.144 202.509 143.864 203.769C143.724 204.189 143.724 204.889 144.004 205.169C144.144 205.309 144.144 205.589 143.864 205.729C143.724 205.589 143.724 205.589 143.584 205.589Z" fill="#1A1A1A"/>
<path d="M167.678 206.429C164.176 203.909 155.491 197.467 153.53 197.047L152.689 196.767C149.327 195.927 141.342 193.827 137.84 193.546C137.14 193.406 136.58 193.546 136.44 193.827C136.299 193.967 136.019 193.967 135.879 193.827C135.739 193.687 135.739 193.406 135.879 193.266C136.299 192.846 137 192.706 137.98 192.706C141.623 192.986 149.607 195.087 152.969 196.067L153.81 196.347C156.331 197.047 167.538 205.449 167.958 205.869C168.098 206.009 168.238 206.289 168.098 206.429C167.958 206.289 167.818 206.429 167.678 206.429Z" fill="#1A1A1A"/>
<path d="M145.825 208.39C145.405 208.11 144.144 205.309 145.545 203.909C146.806 202.789 149.327 201.388 149.467 201.388C149.607 201.248 149.887 201.388 150.028 201.528C150.168 201.668 150.028 201.948 149.887 202.088C149.887 202.088 147.366 203.349 146.105 204.469C145.125 205.449 146.245 207.69 146.245 207.69C146.385 207.83 146.245 208.11 146.105 208.25C145.965 208.39 145.825 208.39 145.825 208.39Z" fill="#1A1A1A"/>
<path d="M188.41 79.9811C187.149 79.9811 185.748 79.8411 184.348 79.701C180.005 79.1409 175.382 77.7406 170.9 75.5001C165.717 72.9795 161.654 70.1789 158.713 67.0982C155.211 63.4574 153.109 59.3965 152.409 54.9155C152.129 52.815 151.989 50.7146 152.269 48.6141C153.53 38.3918 158.853 28.8697 166.417 23.2684C169.779 20.7479 173.701 19.2075 177.764 18.5074C179.865 18.2273 181.966 18.0873 183.927 18.0873C190.231 18.0873 196.115 19.4876 201.578 22.4283C211.524 27.7494 217.687 36.0113 218.388 45.1133C218.528 46.5136 218.528 47.9139 218.388 49.3143C217.967 53.7953 216.707 58.1362 214.465 62.4772C211.944 67.2383 209.142 71.0191 205.92 73.8197C201.017 77.8806 194.994 79.9811 188.41 79.9811ZM184.067 19.0675C182.106 19.0675 180.005 19.2075 178.044 19.4876C173.982 20.0477 170.199 21.7281 166.978 24.1086C159.553 29.5698 154.37 38.8119 153.25 48.8942C152.969 50.9946 152.969 52.9551 153.39 54.9155C154.09 59.2565 156.191 63.1774 159.553 66.6781C162.495 69.6188 166.417 72.4194 171.6 74.8C175.943 76.9004 180.425 78.3007 184.768 78.8609C186.029 79.0009 187.429 79.1409 188.69 79.1409C195.134 79.1409 201.017 77.0405 205.78 73.1196C208.862 70.459 211.804 66.8182 214.185 62.0571C216.286 57.8562 217.547 53.5152 217.967 49.3143C218.107 47.9139 218.107 46.5136 217.967 45.2534C217.267 36.4314 211.383 28.4496 201.578 23.2684C195.974 20.4678 190.231 19.0675 184.067 19.0675Z" fill="white"/>
<path d="M188.83 69.4788C187.99 69.4788 187.289 69.3388 186.449 68.9187C183.367 67.2383 180.285 65.5579 177.484 63.5975C175.382 62.1972 173.141 60.6568 171.18 59.1165C170.199 58.4163 169.359 57.7162 168.378 57.1561C165.857 55.0556 165.156 52.6751 166.417 50.0145C166.977 48.8942 167.398 47.6339 167.818 46.5137C167.958 46.0936 168.098 45.6735 168.238 45.2534C169.079 42.8729 170.9 41.3325 173.701 40.7724C176.503 40.2123 180.005 39.5121 183.367 37.9718C185.468 36.9916 187.149 35.4512 188.69 33.0707C189.531 31.6704 190.511 30.4101 191.352 29.4299C192.052 28.5897 193.033 28.1696 194.153 28.3096C195.834 28.5897 196.675 29.5699 196.535 31.1102C196.255 33.0707 195.834 35.1711 195.274 37.6917C195.134 38.5319 194.854 39.5121 194.574 40.3523C194.293 41.0525 194.153 41.8927 193.873 42.5928C193.593 43.9931 193.733 44.2732 195.134 44.9733C196.955 45.9536 198.916 47.0738 200.737 48.3341C202.558 49.5944 203.119 51.4148 202.278 53.6553C201.017 57.016 199.336 61.217 196.395 64.5777C195.554 65.5579 194.714 66.3981 193.873 67.0983C192.192 68.6386 190.371 69.4788 188.83 69.4788ZM168.939 56.4559C169.919 57.1561 170.76 57.8562 171.74 58.4163C173.841 59.9567 175.943 61.497 178.044 62.8973C180.846 64.7178 183.927 66.3981 186.869 68.0785C188.83 69.1987 191.072 68.6386 193.453 66.5382C194.293 65.838 194.994 64.9978 195.834 64.0176C198.636 60.6568 200.317 56.5959 201.578 53.2352C202.278 51.4148 201.858 50.0145 200.317 48.8942C198.496 47.6339 196.675 46.5137 194.854 45.5335C193.313 44.6933 192.753 43.9931 193.173 42.1727C193.313 41.3325 193.593 40.6324 193.873 39.7922C194.153 38.952 194.434 38.1118 194.574 37.2716C195.134 34.7511 195.554 32.6506 195.834 30.6901C195.974 29.2898 194.714 29.0098 194.153 28.8697C193.313 28.7297 192.753 29.0098 192.192 29.7099C191.352 30.6901 190.371 31.9504 189.531 33.3507C187.99 35.7313 186.169 37.4116 183.927 38.5319C180.425 40.0722 176.783 40.9124 173.982 41.4726C171.6 41.8927 170.059 43.1529 169.219 45.3934C169.079 45.8135 168.939 46.2336 168.799 46.6537C168.378 47.774 167.958 49.0342 167.398 50.2945C166.277 52.6751 166.697 54.6355 168.939 56.4559C168.939 56.4559 168.658 56.736 168.939 56.4559Z" fill="#1A1A1A"/>
<path d="M98.8977 135.154C95.956 135.154 93.1543 133.753 91.0531 131.233C87.2709 126.472 85.73 120.87 86.7106 114.569C86.9907 112.468 88.2515 110.788 90.0725 109.528C93.8548 107.147 97.9171 105.467 101.839 103.787L102.96 103.226C110.104 100.146 117.248 97.6251 124.112 95.5247C128.035 94.4044 131.817 93.2842 135.739 93.0041C138.961 92.724 141.623 93.9843 143.864 96.5049C146.526 99.4455 147.506 103.086 148.347 106.307C149.747 111.768 150.168 117.37 150.448 122.411C149.187 122.831 148.627 122.551 148.207 122.411C146.946 121.991 145.685 121.57 144.564 121.29C143.864 121.15 143.304 121.01 142.603 121.01C140.782 121.01 139.101 121.57 137.42 122.131C133.078 123.811 129.155 125.351 125.513 126.892C119.63 129.552 114.167 131.513 109.124 132.773C108.283 133.053 107.443 133.193 106.602 133.473C104.641 134.033 102.68 134.593 100.719 134.873C100.158 135.154 99.458 135.154 98.8977 135.154ZM136.44 93.8443C136.159 93.8443 136.019 93.8443 135.739 93.8443C131.817 94.1244 128.035 95.1046 124.253 96.3649C117.388 98.4653 110.244 100.986 103.24 104.067L102.12 104.627C98.1973 106.307 94.1349 107.987 90.4928 110.368C88.8118 111.488 87.8312 113.029 87.5511 114.849C86.5705 121.01 87.9713 126.332 91.7535 130.953C94.1349 133.893 97.2167 135.013 100.579 134.453C102.54 134.033 104.501 133.613 106.322 133.053C107.163 132.773 108.003 132.633 108.844 132.353C113.886 130.953 119.21 129.132 125.093 126.472C128.735 124.791 132.657 123.251 137 121.711C138.681 121.15 140.502 120.59 142.463 120.59C143.164 120.59 144.004 120.73 144.704 120.87C145.965 121.15 147.226 121.57 148.487 121.991C148.907 122.131 149.187 122.271 149.607 122.411C149.327 117.51 148.907 112.188 147.506 107.007C146.666 103.787 145.825 100.286 143.304 97.4851C141.342 94.9645 139.101 93.8443 136.44 93.8443Z" fill="white"/>
<path d="M117.389 117.51C116.548 117.51 115.708 117.23 115.007 116.529C113.606 115.269 113.606 113.169 115.007 111.768C115.708 111.068 116.688 110.648 117.669 110.648C118.509 110.648 119.35 110.928 120.05 111.488C120.751 112.048 121.171 112.889 121.171 113.869C121.171 114.709 120.891 115.549 120.19 116.249C119.35 117.09 118.369 117.51 117.389 117.51ZM117.669 111.488C116.828 111.488 116.128 111.768 115.567 112.328C114.447 113.449 114.447 114.989 115.567 115.969C116.548 116.949 118.509 116.809 119.49 115.689C119.91 115.269 120.19 114.569 120.19 113.869C120.19 113.169 119.91 112.609 119.35 112.048C118.929 111.768 118.369 111.488 117.669 111.488Z" fill="white"/>
<path d="M134.058 111.348C133.218 111.348 132.377 111.068 131.677 110.508C130.416 109.528 130.276 107.287 131.397 105.887C132.097 105.047 133.218 104.487 134.338 104.487C135.179 104.487 135.879 104.767 136.58 105.327C137.981 106.447 138.261 108.548 137.14 109.948C136.3 110.788 135.179 111.348 134.058 111.348ZM134.338 105.327C133.498 105.327 132.657 105.747 132.097 106.447C131.257 107.427 131.397 109.108 132.377 109.808C133.638 110.788 135.459 110.648 136.58 109.388C137.42 108.408 137.14 106.867 136.16 105.887C135.459 105.607 134.899 105.327 134.338 105.327Z" fill="white"/>
<path d="M100.859 123.531C100.018 123.531 99.1779 123.251 98.4775 122.551C97.0767 121.29 97.0767 119.33 98.3374 117.93C99.0378 117.09 100.158 116.669 101.139 116.669C101.98 116.669 102.82 116.949 103.52 117.51C104.781 118.63 104.921 120.87 103.801 122.131C103.1 123.111 101.98 123.531 100.859 123.531ZM101.279 117.51C100.439 117.51 99.5982 117.93 99.0378 118.49C98.0573 119.61 98.0573 121.15 99.1779 121.991C100.299 122.971 102.12 122.831 103.24 121.571C104.081 120.73 103.941 119.05 103.1 118.21C102.54 117.79 101.839 117.51 101.279 117.51Z" fill="white"/>
<path d="M124.113 20.0478C123.832 20.0478 101.279 18.6475 75.9244 19.7677C75.6442 19.7677 75.5042 19.6277 75.5042 19.3476C75.5042 19.0676 75.6442 18.9275 75.9244 18.9275C101.419 17.8073 123.972 19.2076 124.253 19.2076C124.533 19.2076 124.673 19.4877 124.673 19.6277C124.533 19.7677 124.393 20.0478 124.113 20.0478Z" fill="#1A1A1A"/>
<path d="M21.7127 98.3252C17.9305 90.6235 17.2301 85.8624 16.3896 80.4012C16.1095 79.0009 15.9694 77.4606 15.6892 75.9202C15.6892 75.6402 15.8293 75.5001 15.9694 75.5001C16.2495 75.5001 16.3896 75.6401 16.3896 75.7802C16.6698 77.3205 16.9499 78.8609 17.09 80.2612C17.9305 85.7224 18.6309 90.4835 21.9929 97.7651C22.133 97.9051 21.9929 98.1852 21.8528 98.3252C21.8528 98.3252 21.7127 98.3252 21.7127 98.3252Z" fill="#1A1A1A"/>
<path d="M124.813 190.746C124.393 190.606 124.393 190.466 124.393 190.186C124.533 189.906 126.774 183.464 120.61 177.443C117.949 174.782 114.027 173.382 109.964 171.982C104.221 169.881 98.3374 167.781 94.4151 162.179C88.9519 154.338 82.9284 147.196 64.4376 138.374C64.2975 138.234 64.1574 138.094 64.2975 137.814C64.4376 137.534 64.7178 137.534 64.8579 137.674C81.8077 145.796 88.5317 152.377 95.1155 161.759C98.8977 167.221 104.641 169.321 110.244 171.282C114.447 172.822 118.369 174.222 121.171 177.023C127.755 183.464 125.093 190.606 125.093 190.606C125.093 190.606 124.953 190.746 124.813 190.746Z" fill="#1A1A1A"/>
<path d="M128.595 213.851C128.315 213.851 128.035 213.851 127.755 213.851C123.972 213.431 121.451 208.25 120.61 206.429C119.63 204.469 120.33 196.767 120.47 195.927C120.47 195.647 120.61 195.507 120.891 195.507C121.171 195.507 121.311 195.787 121.311 195.927C121.031 199.148 120.75 204.609 121.171 205.589C122.291 207.83 124.533 212.591 127.895 213.011C130.976 213.431 136.44 211.33 138.121 209.51C138.401 209.23 138.681 208.81 138.541 208.53C137.42 207.69 135.459 207.97 134.619 208.25C134.198 208.39 134.058 208.25 133.918 207.97C133.918 207.69 133.918 207.55 134.198 207.41C136.3 206.849 137.28 205.869 137.42 205.029C137.42 204.749 137.42 204.469 137.14 204.189C136.299 203.629 134.338 204.049 133.778 204.189C133.498 204.189 133.358 204.189 133.218 203.909C133.078 203.629 133.218 203.489 133.498 203.349C134.198 203.069 135.739 202.228 135.599 201.528C135.459 200.828 133.218 199.988 128.315 200.688C124.112 201.248 122.992 201.248 122.992 201.248C122.712 201.248 122.571 200.968 122.571 200.828C122.571 200.548 122.712 200.408 122.992 200.408C122.992 200.408 124.112 200.548 128.175 199.848C133.638 199.148 136.159 200.128 136.44 201.528C136.58 202.088 136.159 202.649 135.739 203.069C136.44 203.069 137.14 203.209 137.56 203.489C138.121 203.909 138.401 204.469 138.261 205.169C138.121 205.729 137.84 206.429 137 206.99C137.56 206.99 138.121 207.13 138.541 207.41C138.961 207.69 139.101 207.97 139.241 208.39C139.381 208.95 139.101 209.51 138.541 210.07C136.86 212.031 131.817 213.851 128.595 213.851Z" fill="#1A1A1A"/>
<path d="M124.533 206.149C124.112 205.589 124.253 205.309 124.533 205.309C128.035 204.749 133.498 203.489 133.498 203.489C133.778 203.489 133.918 203.629 134.058 203.769C134.058 204.049 133.918 204.189 133.778 204.329C133.638 204.329 128.035 205.589 124.533 206.149Z" fill="#1A1A1A"/>
<path d="M125.793 209.93C125.373 209.37 125.513 209.09 125.793 209.09C129.295 208.53 134.759 207.27 134.759 207.27C135.039 207.27 135.179 207.41 135.319 207.55C135.319 207.83 135.179 207.97 135.039 208.11C134.899 208.11 129.436 209.23 125.793 209.93C125.793 209.93 125.934 209.93 125.793 209.93Z" fill="#1A1A1A"/>
</svg>
