<svg width="274" height="247" viewBox="0 0 274 247" fill="none" xmlns="http://www.w3.org/2000/svg">
<path d="M128.455 189.611C128.455 189.611 132.938 182.049 130.556 174.628C128.315 167.206 125.653 165.806 123.272 164.545C120.891 163.285 115.007 160.345 114.447 156.424C113.746 152.363 118.369 149.142 122.852 146.621C127.194 143.961 134.759 143.821 139.942 143.401C145.125 142.981 155.631 142.281 164.596 139.34C173.561 136.399 194.293 127.017 200.877 116.795C207.461 106.573 206.761 106.713 208.862 99.2909C210.963 92.0093 212.924 84.4476 212.924 78.2862C212.924 69.1842 210.543 58.2617 194.153 41.7381C177.764 25.2144 149.607 21.9936 142.603 21.1535C135.459 20.3133 127.474 18.4929 110.665 18.3528C93.7147 18.2128 86.8507 18.2128 72.1421 18.913C57.4335 19.6131 14.1482 24.2342 14.5685 45.799C14.9887 67.3638 15.8292 73.2451 16.6697 78.9864C17.6503 84.7277 18.7709 91.7292 22.273 98.4507C25.775 105.172 47.3476 128.978 64.7178 137.099C81.9478 145.221 88.6717 153.343 90.913 156.004C93.2944 158.524 94.5552 163.565 101.98 167.346C109.404 171.267 118.649 172.247 122.572 177.708C126.354 183.17 124.813 189.611 124.813 189.611H128.455Z" fill="#A86FD8"/>
<path d="M184.348 120.716C184.348 120.716 181.406 118.475 179.165 108.533L178.464 115.254L157.592 116.935C157.592 116.935 155.911 110.493 158.012 107.133C160.114 103.912 165.997 98.8708 176.783 98.7308C176.783 98.7308 181.966 99.4309 183.367 99.851C183.367 99.851 181.266 92.2893 182.387 89.0686C183.507 85.9879 184.628 83.8874 190.091 85.7079C195.554 87.5283 195.414 92.0093 194.153 94.9499C192.753 98.1706 188.83 101.671 188.83 101.671C188.83 101.671 192.753 102.652 192.753 105.592C192.753 108.533 193.453 119.735 195.274 124.637C196.815 129.118 198.776 132.618 203.679 132.618C208.442 132.618 215.726 133.318 217.127 139.2C218.248 143.821 216.567 145.921 220.909 148.582C224.411 150.822 225.252 152.363 225.112 160.345C225.112 160.345 222.73 155.443 221.329 153.763C219.929 152.083 214.746 148.022 212.924 147.602C212.924 147.602 211.944 147.602 207.881 148.442C203.679 149.282 198.076 150.822 191.212 148.862C184.348 146.761 183.367 143.121 183.087 140.74C182.667 138.36 182.947 132.898 185.328 129.258C185.328 129.258 189.391 129.258 189.391 122.956C189.391 122.956 189.811 119.035 186.309 119.035C185.608 119.455 184.348 120.716 184.348 120.716Z" fill="white"/>
<path d="M227.213 160.905C227.213 160.905 235.898 179.529 239.12 190.591C242.342 201.654 246.124 215.797 245.143 224.339C244.163 232.881 242.202 241.003 227.353 241.003L229.034 246.324H169.499L169.639 239.462C169.639 239.462 167.818 244.923 159.133 242.123C150.448 239.322 132.377 215.797 132.377 215.797L133.918 214.677L134.199 215.377H149.467L142.743 205.155L143.864 204.734C143.864 204.734 144.004 206.275 146.105 207.115C146.105 207.115 148.907 207.255 153.25 206.555C153.25 206.555 157.872 209.916 164.736 215.097L168.238 205.295L160.674 199.833C160.674 199.833 159.974 185.97 159.974 183.17C160.114 180.509 160.114 175.888 163.476 168.326C166.838 160.765 172.441 151.663 173.562 151.102L177.344 146.061C177.344 146.061 175.943 149.842 176.223 153.903C176.223 153.903 175.943 160.485 176.083 165.246C176.363 170.147 177.344 178.689 177.344 178.689C177.344 178.689 179.445 171.407 182.667 165.666C185.889 159.924 187.149 157.824 187.149 157.824C187.149 157.824 192.613 155.163 194.154 150.122C194.154 150.122 197.936 151.102 205.22 149.702C212.504 148.302 215.586 145.921 221.469 152.083C221.329 151.943 224.972 156.144 227.213 160.905Z" fill="#448C58"/>
<path d="M185.608 119.735C185.608 119.735 184.067 117.495 181.126 108.813L180.425 115.534L159.553 117.215C159.553 117.215 157.872 110.773 159.973 107.413C162.075 104.192 167.958 99.1508 178.744 99.0108C178.744 99.0108 183.927 99.7109 185.328 100.131C185.328 100.131 183.227 92.5694 184.348 89.3486C185.468 86.2679 186.589 84.1675 192.052 85.9879C197.515 87.8083 197.375 92.2893 196.114 95.2299C194.714 98.4507 190.791 101.951 190.791 101.951C190.791 101.951 194.714 102.932 194.714 105.872C194.714 108.813 195.414 120.015 197.235 124.917C198.776 129.398 200.737 132.898 205.64 132.898C210.403 132.898 217.687 133.599 219.088 139.48C220.209 144.101 218.528 146.201 222.87 148.862C226.372 151.102 227.213 152.643 227.073 160.625C227.073 160.625 224.691 155.723 223.29 154.043C221.889 152.363 218.668 148.862 214.885 147.882C214.885 147.882 213.204 147.462 209.142 148.442C204.94 149.282 200.037 151.242 193.173 149.142C186.309 147.042 185.328 143.401 185.048 141.02C184.628 138.64 184.908 133.178 187.289 129.538C187.289 129.538 191.352 129.538 191.352 123.236C191.352 123.236 190.931 118.755 187.429 118.755C186.589 119.175 185.608 119.735 185.608 119.735Z" fill="#572F7A"/>
<path d="M176.503 140.32L177.904 143.961L177.204 145.641C177.204 145.641 176.363 149.562 175.243 151.102C175.243 151.102 171.18 152.643 169.359 149.002C167.538 145.361 168.098 141.16 168.098 141.16C168.098 141.16 170.2 141.72 173.982 140.74C175.663 140.32 176.503 140.32 176.503 140.32Z" fill="#572F7A"/>
<path d="M180.986 109.513C180.986 109.513 181.406 118.615 184.068 120.436C184.348 120.576 186.589 117.775 189.391 119.595C192.192 121.416 191.352 125.477 190.652 127.017C189.951 128.557 188.13 130.378 185.188 129.398C185.188 129.398 183.087 133.879 182.807 136.959C182.667 140.18 182.527 142.561 184.208 144.941C184.208 144.941 184.068 148.162 181.546 148.582C179.025 149.002 178.464 146.341 178.464 146.341L176.363 140.32C176.363 140.32 170.76 141.58 168.519 141.3C166.277 140.88 163.896 139.06 163.196 136.539C162.355 134.019 161.234 131.498 160.954 126.597C160.534 121.836 159.974 116.795 159.974 116.795L180.285 115.254C180.285 115.394 180.566 110.633 180.986 109.513Z" fill="white"/>
<path d="M167.958 205.155L164.456 214.957C164.456 214.957 161.934 214.117 159.413 213.136C155.07 211.456 150.868 206.275 151.849 207.395C152.829 208.515 154.79 211.876 153.95 212.716C152.549 213.836 149.747 212.296 147.926 209.776C145.965 207.395 145.825 207.115 145.825 207.115C145.825 207.115 143.444 205.855 143.304 203.894C143.163 201.934 143.864 201.514 144.844 200.534C145.965 199.553 147.366 198.573 147.366 198.573C147.366 198.573 142.463 197.733 138.961 196.473C135.459 195.212 135.179 193.952 135.599 193.112C136.019 192.272 136.72 192.132 139.521 192.412C142.323 192.692 153.95 195.632 154.09 195.772C155.631 196.053 167.958 205.155 167.958 205.155Z" fill="white"/>
<path d="M257.471 215.797C256.63 213.977 255.65 212.576 255.93 210.756C256.35 208.095 259.432 206.415 260.833 204.174C262.373 201.794 262.934 198.993 261.813 196.473C260.973 194.512 259.292 192.832 257.751 191.291C256.63 190.171 255.509 189.191 255.089 187.791C254.809 186.95 254.949 186.11 254.949 185.13C255.509 180.369 260.692 169.307 253.408 166.646C249.486 165.246 246.824 171.967 246.404 174.208C245.424 178.689 246.964 183.59 243.743 187.651C242.202 189.751 239.54 191.151 237.439 192.832C234.497 195.212 232.396 198.573 232.256 202.214C232.116 205.435 234.637 207.955 234.497 211.036C234.357 213.556 232.116 215.237 230.855 217.337C227.073 223.499 232.116 230.92 238.419 233.861C239.96 234.561 241.221 235.121 243.042 235.261L257.471 215.797Z" fill="white"/>
<path d="M270.358 202.914C268.397 202.074 266.015 202.494 264.474 204.594C263.214 206.275 262.653 208.235 261.953 210.196C261.253 212.296 260.272 214.257 258.311 215.377C256.35 216.497 253.968 216.497 252.007 217.477C249.486 218.878 247.104 220.838 245.423 223.359C242.902 227.139 241.921 232.04 243.462 236.381C245.283 241.563 251.027 245.203 256.49 244.363C260.832 243.803 264.474 240.442 266.155 236.522C267.976 232.601 267.976 227.98 267.136 223.639C266.295 219.578 269.237 217.617 271.338 214.677C273.019 212.436 274 209.635 273.44 206.975C273.159 205.154 271.899 203.614 270.358 202.914Z" fill="white"/>
<path d="M62.1963 202.774C60.5153 204.034 59.6748 206.275 60.6554 208.795C61.3558 210.756 62.8967 212.156 64.1574 213.836C65.5582 215.517 66.819 217.477 66.6789 219.718C66.5388 221.958 65.2781 224.059 65.2781 226.299C65.138 229.24 65.6983 232.181 66.9591 234.981C68.9202 239.182 72.7024 242.403 77.185 243.383C82.5081 244.503 88.6717 241.423 90.773 236.382C92.4539 232.321 91.6134 227.56 89.092 223.919C86.5705 220.418 82.6482 217.897 78.5858 216.357C74.8036 214.957 74.5235 211.456 73.1227 208.095C72.1421 205.575 70.1809 203.194 67.6595 202.214C65.5582 201.514 63.5971 201.794 62.1963 202.774Z" fill="white"/>
<path d="M149.327 215.377H134.058L117.809 190.171H132.937L149.327 215.377Z" fill="white"/>
<path d="M120.61 194.652L123.972 199.833C123.972 199.833 129.295 199.273 130.556 199.133C131.957 199.133 135.179 199.273 135.459 200.253C135.739 201.234 134.899 202.354 133.638 202.634C133.638 202.634 136.86 202.214 137.56 203.334C138.261 204.454 136.019 205.995 134.058 206.555C134.058 206.555 137.981 205.575 138.681 207.115C139.241 208.655 134.338 211.456 130.696 212.156C127.054 212.716 126.774 212.436 124.953 211.456C123.272 210.476 120.891 205.855 120.47 204.734C120.19 203.614 120.61 194.652 120.61 194.652Z" fill="white"/>
<path d="M61.9163 4.34971C64.7179 5.75002 67.0993 7.99052 69.0604 10.5111C73.5431 15.9723 77.0451 22.6938 79.5666 29.2753C81.948 35.5767 83.4889 41.8781 79.0062 47.6194C76.905 50.1399 74.2435 52.2404 71.5819 54.2008C63.8774 59.8021 56.0328 65.5434 48.1883 71.2847C41.8846 75.9057 34.3202 81.5069 26.1954 79.5465C18.2108 77.5861 12.6075 70.0244 8.68519 63.1628C7.42446 60.9223 6.3038 58.6818 5.18315 56.3013C3.92241 53.5007 2.80176 50.56 2.80176 47.4793C2.80176 44.2586 4.06249 41.1779 5.88356 38.5173C9.80585 32.496 15.5492 28.015 20.8723 23.534C24.9347 20.1732 28.9971 16.6725 33.3396 13.5918C37.2619 10.7911 40.7639 7.29037 45.1065 5.1899C49.1688 3.08943 54.0717 1.96918 58.5543 3.08943C59.675 3.22946 60.9357 3.78959 61.9163 4.34971Z" fill="#448C58"/>
<path d="M75.9241 114.974C75.644 113.994 75.5039 113.014 75.2237 112.034C75.0836 111.614 74.9436 111.334 74.8035 110.913C72.8423 105.732 69.9006 101.251 66.1184 97.3304C60.5151 91.7292 53.511 89.2086 45.5264 89.9088C44.2656 90.0488 43.145 90.1888 41.8843 90.3289C41.1838 90.4689 40.6235 90.6089 39.9231 90.749C39.0826 91.029 38.2421 91.3091 37.4016 91.5891C29.9773 93.9697 23.8137 98.4507 19.191 104.752C16.2493 108.813 14.4282 113.434 14.4282 118.475C14.4282 119.595 14.5683 120.716 14.5683 121.976C14.8485 123.096 15.1286 124.216 15.2687 125.337C15.4088 125.757 15.5489 126.037 15.689 126.457C17.3699 131.078 20.0315 135.139 23.3935 138.64C28.4364 143.961 34.6 146.901 42.0243 146.901C43.2851 146.901 44.6859 146.761 45.9466 146.621C47.0673 146.341 48.328 146.061 49.5888 145.781C53.6511 144.521 56.873 142.841 59.9548 140.74C64.0172 138.08 67.9395 134.999 71.0213 131.218C73.963 127.577 75.7841 123.376 75.9241 118.615C76.0642 117.215 75.9241 116.095 75.9241 114.974Z" fill="#448C58"/>
<path d="M154.596 66.2285C151.375 63.0078 149.133 59.0869 148.293 54.3259C148.013 52.2254 147.873 50.265 148.153 48.1645C149.273 38.5023 154.316 28.9802 162.161 23.0989C165.383 20.7184 169.305 19.038 173.367 18.4779C181.492 17.2176 189.757 18.4779 196.901 22.2587C205.446 26.7397 212.73 34.5815 213.431 44.5237C213.571 45.924 213.571 47.3243 213.431 48.7246C213.011 53.2056 211.61 57.6866 209.649 61.7475C207.547 65.9485 204.746 69.8693 201.244 72.95C195.22 77.8511 187.656 79.8116 179.951 78.8313C175.329 78.2712 170.846 76.7309 166.644 74.7704C162.301 72.3899 157.958 69.7293 154.596 66.2285Z" fill="#448C58"/>
<path d="M150.448 214.397L149.327 215.377L132.937 190.171L117.949 190.031L119.49 189.331H134.058L150.448 214.397Z" fill="white"/>
<path d="M27.1759 78.0062C26.0552 78.0062 24.7945 77.8661 23.6738 77.5861C14.9888 75.3456 9.38548 67.0837 5.88343 60.9224C4.6227 58.8219 3.50204 56.5814 2.38139 54.0608C1.26074 51.4002 0 48.3195 0 45.0988C0 42.1582 1.12065 38.9374 3.0818 35.8568C6.72393 30.2555 12.047 25.9145 17.2301 21.5736L18.2106 20.7334C19.0511 20.0332 20.0317 19.193 20.8722 18.4929L22.4131 17.2326C22.5532 17.0926 22.8333 17.0926 22.9734 17.2326C23.1135 17.3726 23.1135 17.6527 22.9734 17.7927L21.4325 19.053C20.592 19.7532 19.6115 20.5933 18.771 21.2935L17.7904 22.1337C12.7474 26.3346 7.42433 30.6756 3.92229 36.1368C1.96115 39.0775 0.980573 42.1582 0.980573 44.9588C0.980573 48.0395 2.10123 51.1202 3.22188 53.6407C4.34254 56.1613 5.46319 58.4018 6.72393 60.5023C10.0859 66.5236 15.5491 74.6454 23.8139 76.7459C31.6585 78.7063 39.2229 73.2451 45.2464 68.7641L68.9202 51.4002C71.5818 49.4398 74.2433 47.4793 76.3446 44.9588C80.8272 39.3575 79.1462 33.0561 76.9049 27.0348C74.3834 20.1733 70.7413 13.5918 66.5388 8.41063C64.2975 5.75003 61.9162 3.64956 59.3947 2.38928C58.274 1.82916 57.1534 1.40906 56.0327 1.129C52.1104 0.148783 47.4877 0.84894 42.865 3.08944C40.2035 4.48975 37.8221 6.17013 35.7209 7.99053C35.5808 8.13056 35.3006 8.13056 35.1605 7.99053C35.0204 7.8505 35.0204 7.57044 35.1605 7.43041C37.4018 5.61 39.7832 3.7896 42.4448 2.52931C47.0675 0.148783 51.9703 -0.551373 56.1728 0.428846C57.4335 0.708908 58.5542 1.129 59.6748 1.82916C62.3364 3.22947 64.7178 5.32994 66.9591 8.13056C71.3016 13.4518 74.9438 20.0332 77.4652 27.0348C79.7065 33.1962 81.5276 39.7776 76.7648 45.799C74.6636 48.4596 71.862 50.42 69.2004 52.3804L45.8067 69.4643C40.4836 73.2451 34.18 78.0062 27.1759 78.0062Z" fill="white"/>
<path d="M41.7445 144.241C34.6004 144.241 28.4368 141.44 23.2538 135.979C19.7517 132.198 17.0902 128.137 15.5493 123.656C15.4092 123.376 15.4092 123.096 15.2691 122.816C15.129 122.536 14.4286 119.175 14.4286 119.175C14.4286 118.755 14.4286 118.335 14.2885 118.055C14.2885 117.215 14.1484 116.515 14.1484 115.675C14.1484 110.773 15.8294 106.012 18.9112 101.671C23.5339 95.37 29.8376 90.889 37.2619 88.3684L39.7834 87.5283L41.7445 87.1082C42.1648 87.1082 42.585 86.9681 42.8652 86.9681C43.7057 86.8281 44.5462 86.6881 45.3867 86.6881C53.5114 85.9879 60.5155 88.5085 66.2589 94.2498C70.1811 98.1706 73.1229 102.792 75.084 107.973L75.6443 108.953L76.3448 111.894C76.3448 112.314 76.3447 112.734 76.4848 113.014C76.4848 113.854 76.6249 114.694 76.6249 115.394C76.6249 119.875 74.9439 124.216 71.722 128.277C68.3601 132.478 64.1576 135.419 60.5155 137.94C57.1535 140.18 53.7916 141.86 50.4296 142.841C50.1495 142.981 46.3672 143.821 46.3672 143.821C45.947 143.821 45.5268 143.961 45.1065 143.961C44.266 144.101 43.2854 144.101 42.3049 144.101L41.7445 144.241ZM48.0482 87.3882C47.2077 87.3882 46.3672 87.3882 45.5268 87.5283C44.6863 87.5283 43.8458 87.6683 43.0053 87.8083C42.585 87.8083 42.3049 87.9484 41.8846 87.9484L40.0636 88.3684L37.5421 89.2086C30.1178 91.5892 24.0942 95.9301 19.6116 102.232C16.5298 106.432 14.9889 110.913 14.9889 115.815C14.9889 116.655 14.9889 117.355 15.129 118.195C15.129 118.615 15.129 118.895 15.2691 119.315C15.2691 119.595 16.1096 122.816 16.1096 122.816C16.2497 123.096 16.3897 123.376 16.3897 123.656C17.9306 127.997 20.5922 132.058 23.9542 135.699C28.9971 141.02 35.0206 143.821 41.8846 143.821C43.1454 143.821 43.9859 143.681 44.9664 143.681C45.3867 143.681 45.8069 143.541 46.2272 143.541L49.7292 142.701C53.3713 141.58 56.5932 140.04 59.9552 137.799C63.5973 135.419 67.6597 132.338 70.8816 128.277C74.1034 124.356 75.6443 120.296 75.6443 115.955C75.6443 115.114 75.6443 114.414 75.5043 113.574C75.5043 113.154 75.5043 112.874 75.3642 112.454L74.6638 109.653L74.2435 108.533C72.4225 103.492 69.4807 99.0108 65.5584 95.0899C60.7957 89.7688 54.7722 87.3882 48.0482 87.3882Z" fill="white"/>
<path d="M191.185 76.8756C184.19 80.3651 176.788 80.6338 169.046 77.8187C163.771 75.8276 159.181 73.1518 155.484 69.5174C155.21 69.3116 155.073 69.0374 154.799 68.8316C154.526 68.6259 152.198 65.6777 152.198 65.6777C151.993 65.2664 151.788 64.8551 151.514 64.6493C151.104 63.8267 150.624 63.2097 150.214 62.3871C147.82 57.5887 147.14 52.1064 148.037 46.3511C149.485 37.9238 153.468 30.4577 159.506 24.3636L161.564 22.3095L163.279 20.9403C163.69 20.735 164.033 20.3926 164.307 20.2558C165.062 19.7082 165.816 19.1605 166.639 18.75C174.252 14.096 182.34 13.1427 190.768 15.9583C196.523 17.8812 201.66 20.9685 206.111 25.0832L207.138 25.7692L209.26 28.3061C209.465 28.7174 209.67 29.1287 209.944 29.3344C210.355 30.157 210.902 30.9112 211.244 31.5967C213.433 35.9837 213.908 41.0548 212.737 46.6043C211.497 52.3593 208.819 57.291 206.485 61.5377C204.287 65.3734 201.817 68.6607 199.004 71.2625C198.798 71.5364 195.505 74.2064 195.505 74.2064C195.094 74.4117 194.751 74.754 194.34 74.9593C193.585 75.5069 192.625 75.9859 191.665 76.4648L191.185 76.8756ZM169.587 18.1355C168.764 18.546 167.941 18.9565 167.187 19.5042C166.364 19.9147 165.609 20.4623 164.855 21.01C164.444 21.2152 164.238 21.4892 163.826 21.6944L162.249 22.9952L160.19 25.0494C154.084 31.0064 150.307 38.1985 148.997 46.5574C148.031 52.1756 148.711 57.3153 151.105 62.1137C151.516 62.9362 151.858 63.6217 152.405 64.3759C152.61 64.7872 152.747 65.0614 153.09 65.4042C153.226 65.6784 155.622 68.4211 155.622 68.4211C155.896 68.6269 156.17 68.8327 156.307 69.1068C159.936 72.6042 164.525 75.28 169.595 77.2023C177.131 79.9488 184.397 79.7486 191.117 76.3959C192.351 75.7801 193.106 75.2325 194.066 74.7535C194.477 74.5483 194.82 74.2059 195.232 74.0006L198.25 71.4675C201.268 68.5918 203.67 65.51 205.868 61.6743C208.271 57.5647 210.743 52.5643 211.914 47.0148C213.153 41.6024 212.678 36.874 210.558 32.624C210.148 31.8014 209.806 31.1159 209.258 30.3618C209.053 29.9505 208.916 29.6763 208.574 29.3334L206.52 26.9336L205.561 26.0421C201.316 21.9961 196.247 19.0459 190.492 17.123C183.23 14.2397 176.17 14.8512 169.587 18.1355Z" fill="white"/>
<path d="M172.441 135.699C170.62 135.699 169.219 134.719 168.939 133.739C168.799 133.178 168.799 132.618 169.219 132.198C169.639 131.638 170.48 131.358 171.46 131.498C171.88 131.638 172.301 131.638 172.441 131.638C173.141 131.358 173.281 131.218 173.421 130.238C173.702 129.118 174.402 128.417 175.383 128.417C175.803 128.417 176.223 128.557 176.503 128.838C177.064 129.258 177.204 130.098 177.204 131.218C177.064 132.758 176.363 134.159 175.102 134.859C174.122 135.419 173.281 135.699 172.441 135.699ZM170.76 132.198C170.34 132.198 169.919 132.338 169.779 132.618C169.639 132.758 169.639 133.038 169.639 133.319C169.779 133.879 170.9 134.719 172.441 134.719C173.141 134.719 173.842 134.439 174.542 134.159C175.523 133.599 176.223 132.338 176.223 131.078C176.223 130.238 176.083 129.678 175.803 129.398C175.242 128.838 174.402 129.398 174.122 130.378C173.842 131.638 173.702 131.918 173.141 132.198C172.721 132.478 172.441 132.618 171.04 132.338C171.04 132.198 170.9 132.198 170.76 132.198Z" fill="#1A1A1A"/>
<path d="M237.019 183.31C232.956 174.068 225.392 157.824 223.991 155.864C222.59 153.763 221.189 151.943 217.547 149.562C214.606 147.742 211.664 148.442 207.882 149.282C203.539 150.262 198.216 151.523 190.792 149.562C187.15 148.582 184.628 146.621 183.367 143.821C180.706 137.659 184.768 129.538 184.908 129.258C185.048 129.118 185.328 128.978 185.469 129.118C185.609 129.258 185.749 129.538 185.609 129.678C185.609 129.818 181.546 137.8 184.068 143.541C185.188 146.061 187.57 147.882 190.932 148.862C198.216 150.822 203.399 149.562 207.601 148.582C211.524 147.602 214.746 146.902 217.968 149.002C221.75 151.383 223.291 153.343 224.691 155.443C226.092 157.404 233.797 173.788 237.439 182.75C237.579 183.03 237.439 183.17 237.159 183.31H237.019Z" fill="#1A1A1A"/>
<path d="M224.551 241.423C196.955 241.423 162.355 221.678 161.935 221.538C161.795 220.978 168.519 202.214 168.519 202.214C168.659 202.074 168.799 201.934 169.079 201.934L223.851 215.657C224.131 215.657 224.271 215.937 224.131 216.217C224.131 216.497 223.851 216.637 223.571 216.497L169.219 202.774L162.635 220.838C166.557 223.079 207.461 245.344 234.217 239.462C234.497 239.462 234.637 239.602 234.777 239.742C234.777 240.022 234.637 240.162 234.497 240.302C231.275 241.143 228.053 241.423 224.551 241.423Z" fill="#1A1A1A"/>
<path d="M186.869 130.238C186.309 130.238 185.608 130.098 184.768 129.818C184.488 129.678 184.488 129.538 184.488 129.258C184.628 128.978 184.768 128.978 185.048 128.978C186.589 129.538 187.99 129.398 188.97 128.697C190.371 127.717 190.932 125.757 190.932 124.357C190.932 123.236 190.651 119.595 187.289 119.455C185.188 119.455 184.068 121.696 184.068 121.696C183.927 121.836 183.647 121.976 183.507 121.836C183.367 121.696 183.227 121.416 183.367 121.276C183.367 121.136 184.768 118.615 187.289 118.615C190.651 118.755 191.772 121.556 191.772 124.357C191.772 125.897 191.072 128.137 189.391 129.398C188.83 129.818 187.99 130.238 186.869 130.238Z" fill="#1A1A1A"/>
<path d="M187.99 127.437C187.85 127.437 184.488 125.617 184.488 125.617C184.348 124.917 187.85 120.996 187.85 120.996C187.99 120.856 188.27 120.856 188.41 120.996C188.55 121.136 188.55 121.416 188.41 121.556L185.188 125.057L187.99 126.597C188.13 126.737 188.27 127.017 188.13 127.157C188.27 127.437 188.13 127.437 187.99 127.437Z" fill="#1A1A1A"/>
<path d="M169.919 142C169.359 142 168.799 142 168.378 141.86C166.137 141.44 164.456 140.04 163.195 137.519C161.374 133.599 160.814 129.258 160.394 125.197C160.114 123.096 159.553 117.355 159.553 117.215C159.553 116.935 159.833 116.795 159.973 116.795C160.254 116.795 160.394 117.075 160.394 117.215C160.394 117.355 160.814 121.416 161.094 124.356C161.654 128.978 162.075 133.318 163.896 137.099C165.016 139.34 166.417 140.6 168.518 141.02C169.779 141.3 171.18 141.16 172.861 140.74C174.962 140.32 176.643 139.9 178.184 139.34C178.464 139.2 178.604 139.34 178.744 139.62C178.884 139.9 178.744 140.04 178.464 140.18C176.923 140.74 175.242 141.16 173.141 141.58C171.88 141.86 170.9 142 169.919 142Z" fill="#1A1A1A"/>
<path d="M168.518 130.658C167.538 130.518 164.596 130.238 164.036 129.258C163.896 128.978 163.896 128.697 164.036 128.417C166.977 122.816 167.258 119.315 167.258 119.315C167.258 119.035 167.398 118.895 167.678 118.895C167.958 118.895 168.098 119.035 168.098 119.315C168.098 119.455 167.818 122.956 164.876 128.697C165.016 128.978 166.837 129.538 168.658 129.678C168.939 129.678 169.079 129.958 169.079 130.098C168.939 130.518 168.799 130.658 168.518 130.658Z" fill="#1A1A1A"/>
<path d="M160.114 119.876C159.693 119.735 159.693 119.455 159.693 119.315C159.693 119.175 160.814 117.495 164.176 117.915C164.456 117.915 164.596 118.195 164.596 118.335C164.596 118.615 164.316 118.755 164.176 118.755C161.514 118.335 160.674 119.595 160.534 119.735C160.394 119.875 160.254 119.876 160.114 119.876Z" fill="#1A1A1A"/>
<path d="M175.803 119.315C175.383 119.035 173.982 117.215 170.34 117.915C170.059 117.915 169.919 117.775 169.779 117.635C169.779 117.355 169.919 117.215 170.059 117.075C174.122 116.235 175.943 118.475 176.083 118.615C176.223 118.755 176.223 119.035 175.943 119.175C175.943 119.175 175.943 119.315 175.803 119.315Z" fill="#1A1A1A"/>
<path d="M173.141 123.796C173.421 123.796 173.702 123.516 173.702 123.236L173.562 121.556C173.562 121.276 173.281 120.996 173.001 120.996C172.721 120.996 172.441 121.276 172.441 121.556L172.581 123.236C172.581 123.516 172.861 123.796 173.141 123.796Z" fill="#1A1A1A"/>
<path d="M163.335 124.637C163.615 124.637 163.895 124.357 163.895 124.076L163.755 122.396C163.755 122.116 163.475 121.836 163.195 121.836C162.915 121.836 162.635 122.116 162.635 122.396L162.775 124.076C162.635 124.357 162.915 124.637 163.335 124.637Z" fill="#1A1A1A"/>
<path d="M227.212 161.325C226.932 161.325 226.792 161.045 226.792 160.905C227.353 152.643 224.971 150.962 222.73 149.422C221.049 148.162 219.228 146.902 219.228 142.841C219.368 134.299 212.504 133.879 204.519 133.459C195.554 132.898 194.573 114.134 194.433 106.012C194.433 105.732 194.433 105.452 194.293 105.172C193.873 104.052 192.752 103.492 191.632 103.072C181.826 99.0108 173.281 98.5907 165.857 101.811C161.934 103.632 157.312 106.573 157.312 110.913C157.312 116.095 157.452 117.075 157.452 117.215C157.312 117.775 157.032 117.915 156.891 117.775C156.611 117.635 156.471 117.495 156.471 110.913C156.471 107.133 159.553 103.772 165.436 101.111C173.001 97.7505 181.826 98.1706 191.772 102.232C193.033 102.792 194.433 103.352 194.994 104.892C195.134 105.312 195.134 105.592 195.134 106.012C195.134 112.174 195.974 132.058 204.239 132.618C211.944 133.178 219.928 133.599 219.788 142.841C219.788 146.481 221.189 147.462 222.87 148.722C225.251 150.402 227.913 152.223 227.353 161.045C227.493 161.045 227.353 161.325 227.212 161.325Z" fill="#1A1A1A"/>
<path d="M185.468 158.104C181.826 157.824 180.566 155.023 180.005 152.643C179.585 154.463 178.885 156.144 177.624 156.284C177.064 156.284 176.643 156.144 176.223 155.583C174.962 153.903 175.383 148.862 177.344 143.961C177.484 143.681 177.624 143.681 177.904 143.681C178.184 143.821 178.184 143.961 178.184 144.241C176.223 149.282 176.083 153.763 176.923 155.023C177.064 155.303 177.344 155.443 177.624 155.303C178.885 155.163 179.725 151.383 179.725 148.582C179.725 148.302 179.865 148.162 180.145 148.162C180.426 148.162 180.566 148.302 180.566 148.582C180.566 148.862 180.285 156.564 185.048 156.984C190.231 156.984 193.733 149.562 193.733 149.562C193.873 149.422 194.013 149.282 194.294 149.422C194.434 149.562 194.574 149.702 194.434 149.982C194.434 150.542 190.651 158.104 185.468 158.104Z" fill="#1A1A1A"/>
<path d="M218.387 215.237C217.967 214.817 212.924 199.273 204.519 177.428C204.379 177.148 204.519 177.008 204.799 176.868C205.08 176.728 205.22 176.868 205.36 177.148C213.765 198.993 218.808 214.537 218.808 214.677C218.808 214.957 218.808 215.097 218.387 215.237C218.527 215.237 218.387 215.237 218.387 215.237Z" fill="#1A1A1A"/>
<path d="M169.219 246.324C168.939 246.324 168.799 246.184 168.799 245.904L169.359 225.179C169.359 224.899 169.499 224.759 169.779 224.759C170.06 224.759 170.2 224.899 170.2 225.179L169.639 245.904C169.639 246.184 169.499 246.324 169.219 246.324Z" fill="#1A1A1A"/>
<path d="M228.754 246.464C228.333 246.184 226.792 241.143 226.792 241.143C226.792 240.863 226.792 240.722 227.073 240.582C227.353 240.582 227.493 240.582 227.633 240.863L229.174 245.904C229.174 246.044 229.034 246.324 228.754 246.464Z" fill="#1A1A1A"/>
<path d="M168.238 204.734C167.818 204.454 160.534 193.812 161.654 183.31C162.775 173.227 169.779 152.643 176.643 145.641C176.783 145.501 177.063 145.501 177.203 145.641C177.343 145.781 177.343 146.061 177.203 146.201C170.619 152.783 163.475 173.367 162.355 183.31C161.234 193.532 168.378 203.894 168.378 203.894C168.518 204.034 168.518 204.314 168.238 204.454C168.518 204.734 168.378 204.734 168.238 204.734Z" fill="#1A1A1A"/>
<path d="M149.327 215.797H134.198C133.778 215.657 131.677 212.156 131.677 212.156C131.537 212.016 131.677 211.736 131.817 211.596C131.957 211.456 132.237 211.596 132.377 211.736L134.479 214.957H148.487L132.658 190.591H118.509L124.393 199.693C124.533 199.833 124.533 200.113 124.253 200.253C124.113 200.393 123.832 200.393 123.692 200.113L117.389 190.451C117.809 189.751 132.938 189.751 132.938 189.751C133.358 189.891 149.607 215.097 149.607 215.097C149.607 215.657 149.467 215.797 149.327 215.797Z" fill="#1A1A1A"/>
<path d="M149.327 215.797C148.907 215.377 148.907 215.097 149.047 215.097L149.887 214.537L133.918 189.891H119.63L117.949 190.591C117.669 190.731 117.529 190.591 117.388 190.311C117.248 190.031 117.388 189.891 117.669 189.751L119.49 188.911C119.63 188.911 134.198 188.911 134.198 188.911C134.619 189.051 150.868 214.257 150.868 214.257C151.008 214.397 151.008 214.677 150.728 214.817L149.607 215.657C149.467 215.797 149.327 215.797 149.327 215.797Z" fill="#1A1A1A"/>
<path d="M162.775 243.243C162.355 243.243 161.935 243.243 161.514 243.243C152.549 242.683 132.798 217.197 131.957 216.077C132.097 215.517 133.638 214.537 133.638 214.537C133.778 214.397 134.058 214.537 134.198 214.677C134.338 214.817 134.198 215.097 134.058 215.237L132.938 215.937C135.459 219.158 153.53 241.843 161.654 242.403C164.876 242.543 167.118 241.983 168.378 240.723C169.499 239.602 169.219 238.202 169.219 238.062C169.219 237.782 169.359 237.642 169.499 237.642C169.779 237.642 169.919 237.782 169.919 237.922C169.919 238.062 170.199 239.742 168.799 241.283C167.678 242.543 165.577 243.243 162.775 243.243Z" fill="#1A1A1A"/>
<path d="M160.394 200.113C160.113 200.113 159.973 199.973 159.973 199.693C159.973 199.693 159.693 196.473 159.273 182.89C158.853 169.026 173.001 150.682 173.561 149.842C173.701 149.702 173.981 149.562 174.122 149.702C174.262 149.842 174.402 150.122 174.262 150.262C174.122 150.402 159.693 169.307 160.113 182.75C160.534 196.333 160.814 199.553 160.814 199.553C160.814 199.833 160.674 199.973 160.394 200.113Z" fill="#1A1A1A"/>
<path d="M239.82 230.22C237.999 230.08 236.598 229.52 235.057 228.82C230.855 226.859 227.493 223.219 226.372 219.438C225.532 216.777 225.952 214.117 227.353 211.736C227.773 211.036 228.193 210.476 228.754 209.916C229.874 208.515 230.855 207.255 230.855 205.715C230.855 204.314 230.294 202.914 229.734 201.514C229.034 199.973 228.473 198.573 228.613 196.753C228.894 193.252 230.855 189.751 234.077 187.091C234.497 186.81 234.917 186.53 235.337 186.11C235.477 185.97 235.758 185.97 235.898 186.25C236.038 186.39 236.038 186.67 235.758 186.81C235.337 187.091 234.917 187.371 234.637 187.651C231.555 190.171 229.734 193.392 229.594 196.753C229.454 198.293 230.154 199.693 230.715 201.094C231.275 202.494 231.975 204.034 231.835 205.575C231.695 207.535 230.575 208.935 229.454 210.336C229.034 210.896 228.473 211.456 228.053 212.156C226.792 214.257 226.512 216.637 227.213 219.158C228.333 222.798 231.555 226.299 235.477 228.12C237.018 228.82 238.279 229.24 239.96 229.52C240.24 229.52 240.38 229.8 240.38 229.94C240.24 230.08 239.96 230.22 239.82 230.22Z" fill="#1A1A1A"/>
<path d="M239.82 230.22C237.999 230.08 236.598 229.52 235.057 228.82C230.855 226.859 227.493 223.219 226.372 219.438C225.532 216.777 225.952 214.117 227.353 211.736C227.773 211.036 228.193 210.476 228.754 209.916C229.874 208.515 230.855 207.255 230.855 205.715C230.855 204.314 230.294 202.914 229.734 201.514C229.034 199.973 228.473 198.573 228.613 196.753C228.894 193.252 230.855 189.751 234.077 187.091C234.497 186.81 234.917 186.53 235.337 186.11C235.477 185.97 235.758 185.97 235.898 186.25C236.038 186.39 236.038 186.67 235.758 186.81C235.337 187.091 234.917 187.371 234.637 187.651C231.555 190.171 229.734 193.392 229.594 196.753C229.454 198.293 230.154 199.693 230.715 201.094C231.275 202.494 231.975 204.034 231.835 205.575C231.695 207.535 230.575 208.935 229.454 210.336C229.034 210.896 228.473 211.456 228.053 212.156C226.792 214.257 226.512 216.637 227.213 219.158C228.333 222.798 231.555 226.299 235.477 228.12C237.018 228.82 238.279 229.24 239.96 229.52C240.24 229.52 240.38 229.8 240.38 229.94C240.24 230.08 239.96 230.22 239.82 230.22Z" fill="#1A1A1A"/>
<path d="M254.809 213.416C254.249 212.716 254.108 212.436 253.828 212.016C253.128 210.616 252.568 209.355 252.848 207.815C253.128 205.995 254.529 204.594 255.789 203.334C256.49 202.634 257.33 201.794 257.751 201.094C258.871 199.273 259.992 196.613 258.591 193.672C257.751 191.712 256.21 190.031 254.529 188.631C253.268 187.371 252.147 186.39 251.727 184.85C251.447 183.87 251.587 183.03 251.587 182.049C251.727 180.929 252.147 179.389 252.568 177.848C253.968 172.527 255.649 165.946 250.326 164.125C249.486 163.845 248.785 163.845 248.085 164.265C245.844 165.526 244.303 169.587 243.882 171.267C243.602 172.807 243.462 174.488 243.462 176.028C243.462 178.128 243.322 180.229 242.622 182.189C242.482 182.469 242.342 182.469 242.061 182.469C241.781 182.329 241.781 182.189 241.781 181.909C242.482 180.089 242.482 178.128 242.482 176.028C242.482 174.348 242.622 172.667 242.902 171.127C243.182 169.587 244.863 165.106 247.525 163.565C248.505 163.005 249.486 163.005 250.466 163.285C256.49 165.386 254.529 172.667 253.128 178.128C252.708 179.669 252.287 181.209 252.287 182.189C252.147 183.03 252.147 183.87 252.287 184.57C252.568 185.83 253.688 186.81 254.669 187.791C256.49 189.471 258.031 191.151 259.011 193.252C260.132 195.772 259.852 198.713 258.031 201.374C257.47 202.214 256.63 203.054 255.929 203.754C254.669 205.014 253.408 206.275 253.128 207.815C252.848 209.215 253.408 210.196 254.108 211.456C254.249 211.876 254.529 212.156 254.669 212.576C254.809 212.856 254.669 212.996 254.389 213.136C254.949 213.416 254.809 213.416 254.809 213.416Z" fill="#1A1A1A"/>
<path d="M252.287 242.263C247.104 242.263 242.061 238.762 240.38 233.861C238.839 229.66 239.68 224.479 242.341 220.418C244.022 218.037 246.264 215.937 249.065 214.397C250.046 213.836 251.307 213.556 252.427 213.276C253.548 212.996 254.528 212.716 255.509 212.296C257.33 211.316 258.311 209.355 259.011 207.395C259.151 207.115 259.291 206.695 259.431 206.415C259.992 204.734 260.552 203.194 261.673 201.654C262.793 200.113 264.334 199.273 266.015 199.273C266.716 199.273 267.416 199.413 268.116 199.693C269.937 200.533 271.198 202.214 271.618 204.174C272.179 206.695 271.338 209.636 269.377 212.156C268.957 212.716 268.397 213.276 267.976 213.836C266.155 215.937 264.614 217.757 265.175 220.838C266.155 225.739 265.735 230.22 264.194 233.861C262.233 238.342 258.451 241.423 254.108 241.983C253.408 242.123 252.848 242.263 252.287 242.263ZM265.875 200.113C264.474 200.113 263.214 200.814 262.233 202.074C261.252 203.334 260.692 205.014 260.132 206.555C259.992 206.835 259.852 207.255 259.712 207.535C258.871 209.635 257.89 211.876 255.789 212.996C254.809 213.556 253.688 213.836 252.567 214.117C251.447 214.397 250.466 214.677 249.486 215.097C246.824 216.497 244.583 218.457 243.042 220.838C240.52 224.619 239.82 229.52 241.221 233.581C242.762 238.062 247.524 241.423 252.427 241.423C252.848 241.423 253.408 241.423 253.828 241.283C257.75 240.722 261.393 237.782 263.214 233.581C264.754 230.08 265.175 225.739 264.194 220.978C263.494 217.617 265.315 215.517 267.136 213.276C267.556 212.716 268.116 212.156 268.537 211.596C270.358 209.215 271.058 206.555 270.638 204.314C270.218 202.494 269.097 201.094 267.556 200.393C266.996 200.253 266.435 200.113 265.875 200.113Z" fill="#1A1A1A"/>
<path d="M79.4262 241.563C78.5857 241.563 77.8853 241.423 77.0448 241.283C72.7023 240.442 68.6399 237.082 66.5386 232.601C65.2779 229.94 64.7176 226.999 64.8577 223.779C64.8577 222.518 65.2779 221.398 65.5581 220.418C65.8382 219.298 66.2585 218.317 66.2585 217.337C66.3986 215.237 65.1378 213.416 63.8771 211.736C63.5969 211.456 63.4568 211.176 63.1767 210.896C62.056 209.635 60.9354 208.235 60.235 206.555C59.2544 204.034 59.9548 201.514 61.9159 200.113C63.4568 198.993 65.5581 198.713 67.5192 199.413C70.0407 200.253 72.0018 202.494 73.2626 205.435C73.5427 206.135 73.8229 206.835 73.963 207.535C74.6634 209.495 75.2237 211.456 76.7646 212.576C76.9047 212.716 77.0448 212.996 76.9047 213.136C76.7646 213.276 76.4845 213.416 76.3444 213.276C74.5233 211.876 73.963 209.916 73.2626 207.815C72.9824 207.115 72.8423 206.415 72.5622 205.855C71.4415 203.054 69.6204 201.094 67.3791 200.253C65.6982 199.693 63.8771 199.833 62.4763 200.814C60.7953 202.074 60.235 204.174 61.0755 206.275C61.6358 207.815 62.7564 209.075 63.8771 210.336C64.1573 210.616 64.2973 210.896 64.5775 211.176C65.9783 212.996 67.3791 214.957 67.2391 217.337C67.2391 218.457 66.8188 219.578 66.5386 220.698C66.2585 221.818 65.8382 222.798 65.8382 223.919C65.6982 226.999 66.2585 229.8 67.3791 232.321C69.3403 236.521 73.1225 239.602 77.325 240.442C82.6481 241.563 88.3914 238.622 90.4926 233.721C92.0335 230.08 91.3331 225.459 88.8117 221.678C87.9712 220.418 86.8505 219.298 85.5898 218.177C85.4497 218.037 85.4497 217.757 85.5898 217.617C85.7299 217.477 86.01 217.477 86.1501 217.617C87.5509 218.738 88.6716 219.858 89.5121 221.258C92.3137 225.179 93.0141 230.08 91.3331 234.001C89.0918 238.622 84.329 241.563 79.4262 241.563Z" fill="#1A1A1A"/>
<path d="M88.8117 246.044C82.3679 234.981 64.7176 203.894 64.4374 203.474C64.2973 203.334 64.4374 203.054 64.5775 202.914C64.7176 202.774 64.9977 202.914 65.1378 203.054C65.2779 203.334 83.0683 234.421 89.0918 245.343C89.2319 245.484 89.0918 245.764 88.9517 245.904C88.9517 246.044 88.9517 246.044 88.8117 246.044Z" fill="#1A1A1A"/>
<path d="M236.038 246.604C235.758 246.604 235.618 246.324 235.618 246.044L249.486 171.267C249.486 170.987 249.766 170.847 249.906 170.987C250.186 170.987 250.326 171.267 250.186 171.407L236.318 246.184C236.458 246.464 236.178 246.604 236.038 246.604Z" fill="#1A1A1A"/>
<path d="M244.723 246.744C244.303 246.604 244.303 246.324 244.303 246.184L265.875 205.435C266.015 205.295 266.296 205.155 266.436 205.295C266.576 205.435 266.716 205.715 266.576 205.855L245.003 246.604C245.003 246.604 244.863 246.744 244.723 246.744Z" fill="#1A1A1A"/>
<path d="M180.986 149.282C180.565 149.282 180.285 149.142 179.865 149.002C178.604 148.302 178.044 146.621 177.904 145.781C177.203 143.681 176.083 140.6 176.083 140.6C175.943 140.32 176.083 140.18 176.363 140.04C176.643 139.9 176.783 140.04 176.923 140.32C176.923 140.32 178.044 143.401 178.744 145.361C179.025 146.341 179.445 147.882 180.425 148.302C180.846 148.442 181.266 148.582 181.826 148.302C184.067 147.462 184.067 145.081 184.067 144.941C184.067 144.661 184.208 144.521 184.488 144.521C184.628 144.521 184.908 144.661 184.908 144.941C184.908 144.941 185.048 148.022 182.106 149.002C181.686 149.282 181.266 149.282 180.986 149.282Z" fill="#1A1A1A"/>
<path d="M171.04 152.223C170.199 152.223 169.219 152.083 168.238 151.382C165.997 149.702 164.876 146.061 165.297 140.18C165.297 139.9 165.437 139.76 165.717 139.76C165.997 139.76 166.137 140.04 166.137 140.18C165.857 145.501 166.697 149.142 168.799 150.542C170.62 151.803 172.861 150.962 172.861 150.962C173.001 150.822 173.281 150.962 173.421 151.242C173.561 151.523 173.421 151.663 173.141 151.803C173.001 151.803 172.161 152.223 171.04 152.223Z" fill="#1A1A1A"/>
<path d="M128.455 189.751C128.035 189.611 128.035 189.331 128.035 189.191C130.136 185.41 131.537 178.969 129.716 172.947C128.455 169.026 126.073 166.086 122.571 164.405C116.968 161.605 114.026 158.664 113.886 155.583C113.746 152.503 116.548 149.282 122.151 146.201C126.774 143.681 132.657 143.261 139.521 142.841C146.105 142.42 153.53 142 161.934 139.62C162.215 139.62 162.355 139.62 162.495 139.9C162.495 140.18 162.495 140.32 162.215 140.46C153.67 142.841 146.245 143.261 139.661 143.681C132.937 144.101 127.054 144.521 122.571 147.042C117.248 149.982 114.727 152.923 114.727 155.723C114.867 158.524 117.528 161.325 122.992 163.845C126.634 165.666 129.295 168.746 130.556 172.947C132.517 179.109 130.976 185.83 128.735 189.751C128.735 189.751 128.595 189.751 128.455 189.751Z" fill="#1A1A1A"/>
<path d="M199.196 119.315C198.776 119.035 198.776 118.755 198.916 118.615C206.341 109.233 207.882 102.372 210.263 92.0092C210.543 90.749 210.823 89.6287 211.103 88.2284C212.364 82.9072 213.485 76.4658 212.084 69.6042C212.084 69.3242 212.224 69.1841 212.364 69.1841C212.644 69.1841 212.784 69.3242 212.784 69.4642C214.185 76.4658 213.065 82.9072 211.804 88.3684C211.524 89.6287 211.243 90.889 210.963 92.1493C208.582 102.652 207.041 109.653 199.477 119.175C199.477 119.175 199.337 119.315 199.196 119.315Z" fill="#1A1A1A"/>
<path d="M161.234 24.6542C150.728 22.1337 141.203 21.0134 132.097 19.8932C129.436 19.6131 126.774 19.333 124.113 18.9129C123.832 18.9129 123.692 18.6329 123.692 18.4928C123.692 18.2128 123.973 18.0728 124.113 18.0728C126.774 18.3528 129.436 18.7729 132.097 19.053C141.203 20.1732 150.728 21.2935 161.234 23.814C161.514 23.814 161.655 24.0941 161.514 24.3742C161.514 24.5142 161.374 24.6542 161.234 24.6542Z" fill="#1A1A1A"/>
<path d="M184.348 121.136C182.246 120.015 181.406 116.235 180.986 113.014C180.846 114.414 180.846 115.394 180.846 115.534C180.846 115.815 180.706 115.955 180.425 115.955L157.452 117.635C157.172 117.635 157.032 117.495 157.032 117.215C157.032 116.935 157.172 116.795 157.452 116.795L180.005 115.114C180.005 114.134 180.145 111.194 180.565 108.813C180.565 108.673 180.706 108.393 180.986 108.533C181.266 108.533 181.406 108.673 181.406 108.953C181.546 111.754 182.246 119.175 184.628 120.436C184.768 120.576 184.908 120.856 184.768 120.996C184.628 120.996 184.488 121.136 184.348 121.136Z" fill="#1A1A1A"/>
<path d="M190.932 102.512C190.512 102.232 190.512 101.951 190.652 101.811C190.652 101.811 197.376 95.7901 196.535 91.029C196.255 89.2086 194.714 87.6683 192.192 86.6881C188.55 85.2878 185.889 85.2878 184.208 86.6881C182.107 88.6485 181.826 93.1295 183.648 99.571C183.648 99.851 183.647 99.991 183.367 100.131C183.087 100.131 182.947 100.131 182.807 99.851C180.846 93.1295 181.126 88.3685 183.648 86.128C185.469 84.4476 188.55 84.3075 192.473 85.9879C195.274 87.1082 196.955 88.7885 197.376 91.029C198.216 96.2102 191.492 102.372 191.212 102.512C191.212 102.512 191.072 102.512 190.932 102.512Z" fill="#1A1A1A"/>
<path d="M177.064 179.389C176.783 179.389 176.643 179.249 176.643 178.969C176.643 178.829 174.682 164.545 175.663 154.463C175.663 154.183 175.943 154.043 176.083 154.043C176.363 154.043 176.503 154.323 176.503 154.463C175.803 162.025 176.643 172.107 177.204 176.448C179.025 170.147 183.227 162.725 186.449 157.264C186.589 157.124 186.869 156.984 187.009 157.124C187.149 157.264 187.29 157.544 187.149 157.684C183.507 163.705 178.745 172.247 177.344 178.829C177.484 179.249 177.344 179.389 177.064 179.389Z" fill="#1A1A1A"/>
<path d="M164.456 215.377C159.553 213.976 156.331 212.016 154.23 210.476C154.51 211.316 154.651 212.156 154.37 212.576C154.09 213.136 153.53 213.276 152.689 213.276C149.047 212.996 146.106 208.235 145.545 207.395C145.125 207.255 144.985 206.975 144.985 206.835C145.125 206.555 145.265 206.555 145.545 206.555C146.106 206.835 149.187 212.156 152.829 212.576C153.11 212.576 153.53 212.576 153.67 212.296C153.95 211.736 153.11 210.056 152.129 208.515C151.569 207.815 151.289 207.255 151.148 207.255C151.008 207.115 151.148 206.835 151.289 206.695C151.429 206.555 151.709 206.555 151.849 206.835C151.989 206.975 152.269 207.395 152.689 207.955C154.09 209.635 157.592 212.716 164.456 214.677C164.736 214.677 164.876 214.957 164.736 215.237C164.736 215.237 164.596 215.377 164.456 215.377Z" fill="#1A1A1A"/>
<path d="M143.584 204.594C142.743 203.614 142.883 202.634 143.023 202.354C143.303 201.094 145.125 199.553 146.385 198.713C145.545 198.573 144.004 198.153 141.202 197.593C139.101 197.033 138.12 196.473 138.12 196.473C137.98 196.333 137.84 196.052 137.98 195.912C138.12 195.772 138.401 195.632 138.541 195.772C138.541 195.772 139.521 196.333 141.482 196.893C146.385 198.013 147.506 198.293 147.506 198.293C146.665 199.693 144.144 201.514 143.864 202.774C143.724 203.194 143.724 203.894 144.004 204.174C144.144 204.314 144.144 204.594 143.864 204.734C143.724 204.594 143.724 204.594 143.584 204.594Z" fill="#1A1A1A"/>
<path d="M167.678 205.435C164.176 202.914 155.491 196.473 153.53 196.053L152.689 195.772C149.327 194.932 141.343 192.832 137.841 192.552C137.14 192.412 136.58 192.552 136.44 192.832C136.3 192.972 136.02 192.972 135.879 192.832C135.739 192.692 135.739 192.412 135.879 192.272C136.3 191.852 137 191.712 137.981 191.712C141.623 191.992 149.607 194.092 152.969 195.072L153.81 195.352C156.331 196.053 167.538 204.454 167.958 204.874C168.098 205.015 168.238 205.295 168.098 205.435C167.958 205.295 167.818 205.435 167.678 205.435Z" fill="#1A1A1A"/>
<path d="M145.825 207.395C145.405 207.115 144.144 204.314 145.545 202.914C146.806 201.794 149.327 200.393 149.467 200.393C149.607 200.253 149.887 200.393 150.027 200.533C150.168 200.674 150.027 200.954 149.887 201.094C149.887 201.094 147.366 202.354 146.105 203.474C145.125 204.454 146.245 206.695 146.245 206.695C146.385 206.835 146.245 207.115 146.105 207.255C145.965 207.395 145.825 207.395 145.825 207.395Z" fill="#1A1A1A"/>
<path d="M98.8976 134.159C95.9559 134.159 93.1542 132.758 91.053 130.238C87.2708 125.477 85.7299 119.875 86.7105 113.574C86.9906 111.474 88.2514 109.793 90.0724 108.533C93.8546 106.152 97.917 104.472 101.839 102.792L102.96 102.232C110.104 99.1508 117.248 96.6303 124.112 94.5298C128.035 93.4095 131.817 92.2893 135.739 92.0092C138.961 91.7292 141.623 92.9894 143.864 95.51C146.525 98.4507 147.506 102.091 148.346 105.312C149.747 110.773 150.168 116.375 150.448 121.416C149.187 121.836 148.627 121.556 148.206 121.416C146.946 120.996 145.685 120.576 144.564 120.296C143.864 120.156 143.304 120.015 142.603 120.015C140.782 120.015 139.101 120.576 137.42 121.136C133.078 122.816 129.155 124.356 125.513 125.897C119.63 128.557 114.166 130.518 109.124 131.778C108.283 132.058 107.443 132.198 106.602 132.478C104.641 133.038 102.68 133.599 100.719 133.879C100.158 134.159 99.4579 134.159 98.8976 134.159ZM136.44 92.8494C136.159 92.8494 136.019 92.8494 135.739 92.8494C131.817 93.1295 128.035 94.1097 124.252 95.37C117.388 97.4705 110.244 99.991 103.24 103.072L102.119 103.632C98.1972 105.312 94.1348 106.993 90.4927 109.373C88.8117 110.493 87.8311 112.034 87.5509 113.854C86.5704 120.015 87.9712 125.337 91.7534 129.958C94.1348 132.898 97.2166 134.019 100.579 133.458C102.54 133.038 104.501 132.618 106.322 132.058C107.162 131.778 108.003 131.638 108.843 131.358C113.886 129.958 119.209 128.137 125.093 125.477C128.735 123.796 132.657 122.256 137 120.716C138.681 120.156 140.502 119.595 142.463 119.595C143.163 119.595 144.004 119.735 144.704 119.875C145.965 120.156 147.226 120.576 148.487 120.996C148.907 121.136 149.187 121.276 149.607 121.416C149.327 116.515 148.907 111.194 147.506 106.012C146.665 102.792 145.825 99.2909 143.304 96.4902C141.342 93.9697 139.101 92.8494 136.44 92.8494Z" fill="white"/>
<path d="M117.389 116.515C116.548 116.515 115.708 116.235 115.007 115.535C113.606 114.274 113.606 112.174 115.007 110.773C115.708 110.073 116.688 109.653 117.669 109.653C118.509 109.653 119.35 109.933 120.05 110.493C120.751 111.054 121.171 111.894 121.171 112.874C121.171 113.714 120.891 114.554 120.19 115.254C119.35 116.095 118.369 116.515 117.389 116.515ZM117.669 110.493C116.828 110.493 116.128 110.773 115.567 111.334C114.447 112.454 114.447 113.994 115.567 114.974C116.548 115.955 118.509 115.815 119.49 114.694C119.91 114.274 120.19 113.574 120.19 112.874C120.19 112.174 119.91 111.614 119.35 111.054C118.929 110.773 118.369 110.493 117.669 110.493Z" fill="white"/>
<path d="M134.058 110.353C133.218 110.353 132.377 110.073 131.677 109.513C130.416 108.533 130.276 106.292 131.397 104.892C132.097 104.052 133.218 103.492 134.338 103.492C135.179 103.492 135.879 103.772 136.58 104.332C137.98 105.452 138.261 107.553 137.14 108.953C136.299 109.793 135.179 110.353 134.058 110.353ZM134.338 104.332C133.498 104.332 132.657 104.752 132.097 105.452C131.257 106.432 131.397 108.113 132.377 108.813C133.638 109.793 135.459 109.653 136.58 108.393C137.42 107.413 137.14 105.872 136.159 104.892C135.459 104.612 134.899 104.332 134.338 104.332Z" fill="white"/>
<path d="M100.859 122.536C100.018 122.536 99.1779 122.256 98.4775 121.556C97.0767 120.296 97.0767 118.335 98.3374 116.935C99.0378 116.095 100.158 115.675 101.139 115.675C101.98 115.675 102.82 115.955 103.52 116.515C104.781 117.635 104.921 119.875 103.801 121.136C103.1 122.116 101.98 122.536 100.859 122.536ZM101.279 116.515C100.439 116.515 99.5982 116.935 99.0378 117.495C98.0573 118.615 98.0573 120.156 99.1779 120.996C100.299 121.976 102.12 121.836 103.24 120.576C104.081 119.735 103.941 118.055 103.1 117.215C102.54 116.795 101.839 116.515 101.279 116.515Z" fill="white"/>
<path d="M124.112 19.053C123.832 19.053 101.279 17.6527 75.9242 18.7729C75.644 18.7729 75.5039 18.6329 75.5039 18.3528C75.5039 18.0728 75.644 17.9327 75.9242 17.9327C101.419 16.8125 123.972 18.2128 124.252 18.2128C124.533 18.2128 124.673 18.4929 124.673 18.6329C124.533 18.7729 124.392 19.053 124.112 19.053Z" fill="#1A1A1A"/>
<path d="M21.7125 97.3304C17.9303 89.6287 17.2299 84.8676 16.3894 79.4064C16.1092 78.0061 15.9691 76.4657 15.689 74.9254C15.689 74.6453 15.829 74.5053 15.9691 74.5053C16.2493 74.5053 16.3894 74.6453 16.3894 74.7854C16.6695 76.3257 16.9497 77.8661 17.0898 79.2664C17.9303 84.7276 18.6307 89.4887 21.9926 96.7703C22.1327 96.9103 21.9926 97.1904 21.8526 97.3304H21.7125Z" fill="#1A1A1A"/>
<path d="M124.813 189.751C124.393 189.611 124.393 189.471 124.393 189.191C124.533 188.911 126.774 182.469 120.611 176.448C117.949 173.788 114.027 172.387 109.964 170.987C104.221 168.886 98.3376 166.786 94.4154 161.185C88.9522 153.343 82.9286 146.201 64.4378 137.379C64.2978 137.239 64.1577 137.099 64.2978 136.819C64.4379 136.539 64.718 136.539 64.8581 136.679C81.808 144.801 88.5319 151.383 95.1158 160.765C98.898 166.226 104.641 168.326 110.245 170.287C114.447 171.827 118.369 173.227 121.171 176.028C127.755 182.469 125.093 189.611 125.093 189.611C125.093 189.611 124.953 189.751 124.813 189.751Z" fill="#1A1A1A"/>
<path d="M128.595 212.856C128.315 212.856 128.035 212.856 127.755 212.856C123.972 212.436 121.451 207.255 120.61 205.435C119.63 203.474 120.33 195.772 120.47 194.932C120.47 194.652 120.61 194.512 120.891 194.512C121.171 194.512 121.311 194.792 121.311 194.932C121.031 198.153 120.751 203.614 121.171 204.594C122.291 206.835 124.533 211.596 127.895 212.016C130.977 212.436 136.44 210.336 138.121 208.515C138.401 208.235 138.681 207.815 138.541 207.535C137.42 206.695 135.459 206.975 134.619 207.255C134.198 207.395 134.058 207.255 133.918 206.975C133.918 206.695 133.918 206.555 134.198 206.415C136.3 205.855 137.28 204.875 137.42 204.034C137.42 203.754 137.42 203.474 137.14 203.194C136.3 202.634 134.338 203.054 133.778 203.194C133.498 203.194 133.358 203.194 133.218 202.914C133.078 202.634 133.218 202.494 133.498 202.354C134.198 202.074 135.739 201.234 135.599 200.534C135.459 199.833 133.218 198.993 128.315 199.693C124.113 200.253 122.992 200.253 122.992 200.253C122.712 200.253 122.572 199.973 122.572 199.833C122.572 199.553 122.712 199.413 122.992 199.413C122.992 199.413 124.113 199.553 128.175 198.853C133.638 198.153 136.16 199.133 136.44 200.534C136.58 201.094 136.16 201.654 135.739 202.074C136.44 202.074 137.14 202.214 137.56 202.494C138.121 202.914 138.401 203.474 138.261 204.174C138.121 204.734 137.841 205.435 137 205.995C137.56 205.995 138.121 206.135 138.541 206.415C138.961 206.695 139.101 206.975 139.241 207.395C139.381 207.955 139.101 208.515 138.541 209.075C136.86 211.036 131.817 212.856 128.595 212.856Z" fill="#1A1A1A"/>
<path d="M124.533 205.155C124.113 204.594 124.253 204.314 124.533 204.314C128.035 203.754 133.498 202.494 133.498 202.494C133.778 202.494 133.918 202.634 134.058 202.774C134.058 203.054 133.918 203.194 133.778 203.334C133.638 203.334 128.035 204.594 124.533 205.155Z" fill="#1A1A1A"/>
<path d="M125.794 208.935C125.373 208.375 125.513 208.095 125.794 208.095C129.296 207.535 134.759 206.275 134.759 206.275C135.039 206.275 135.179 206.415 135.319 206.555C135.319 206.835 135.179 206.975 135.039 207.115C134.899 207.115 129.436 208.235 125.794 208.935C125.934 208.935 125.794 208.935 125.794 208.935Z" fill="#1A1A1A"/>
<path d="M17.4206 58.9535L18.8205 57.8985L18.3324 54.2004L18.6951 53.9271L18.1487 49.5026L16.78 50.5341L17.2852 54.0603L16.9187 54.3365L17.4206 58.9535ZM13.2237 53.2142L17.4161 54.9398L17.4278 54.931L20.8287 56.3851L22.5678 55.0744L18.2279 53.3315L18.2123 53.3433L14.9502 51.9192L13.2237 53.2142ZM21.3174 52.7579C21.8111 53.4131 22.42 53.7857 23.1442 53.8758C23.8664 53.9633 24.5992 53.7269 25.3427 53.1666C25.8081 52.8159 26.1539 52.431 26.3801 52.0118C26.607 51.5881 26.6946 51.2041 26.6431 50.8599L25.1706 50.9424C25.1815 51.1624 25.1472 51.39 25.0677 51.6252C24.9881 51.8604 24.8379 52.0613 24.6169 52.2278C24.305 52.4629 23.9851 52.5307 23.6574 52.4312C23.3278 52.3291 23.0277 52.0987 22.7574 51.74L22.6016 51.5333C22.3254 51.1667 22.1771 50.8158 22.1568 50.4806C22.1365 50.1454 22.255 49.8808 22.5124 49.6868C22.788 49.4791 23.0534 49.4177 23.3088 49.5024C23.5623 49.5844 23.7494 49.7002 23.8702 49.8497L23.9348 49.9355L21.95 51.4313L22.5819 52.2697L25.9861 49.7042L25.6187 49.2167C25.1231 48.559 24.5398 48.1854 23.8691 48.0958C23.2009 48.0042 22.5275 48.2141 21.849 48.7255C21.1809 49.229 20.7865 49.8441 20.6658 50.571C20.5457 51.2933 20.7316 51.9807 21.2233 52.6332L21.3174 52.7579ZM28.0466 50.9455L29.4777 49.867L27.3824 47.0867C27.3226 46.8505 27.3156 46.6356 27.3613 46.4422C27.4071 46.2487 27.5132 46.0893 27.6796 45.9639C27.8745 45.817 28.0694 45.77 28.2642 45.8229C28.4616 45.8739 28.6641 46.0371 28.8718 46.3127L30.7996 48.8707L32.2307 47.7922L30.1354 45.0119C30.0821 44.779 30.0787 44.5635 30.1251 44.3655C30.1741 44.1655 30.2818 44.0028 30.4482 43.8774C30.6399 43.737 30.8319 43.6942 31.0241 43.7491C31.2169 43.7994 31.4165 43.9588 31.6228 44.2272L33.5565 46.7931L34.9876 45.7145L33.0921 43.1994C32.5945 42.5391 32.0959 42.175 31.5964 42.1072C31.0969 42.0393 30.6223 42.1748 30.1726 42.5138C29.884 42.7312 29.6522 43.0078 29.4772 43.3435C29.3028 43.6746 29.2343 44.0137 29.2716 44.3606L29.2638 44.3665C28.9815 44.2083 28.6757 44.1514 28.3464 44.1957C28.0196 44.2382 27.6951 44.3808 27.3727 44.6238C27.131 44.806 26.9378 45.0229 26.7932 45.2745C26.6466 45.5236 26.5802 45.7897 26.5939 46.0729L26.5744 46.0876L26.1954 45.6333L24.8228 46.6678L28.0466 50.9455ZM36.6359 42.2957L36.6888 42.3659C37.0258 42.813 37.4736 43.0258 38.0321 43.0044C38.5933 42.9809 39.2131 42.7135 39.8916 42.2022C40.5779 41.685 41.0005 41.1668 41.1595 40.6475C41.3191 40.1237 41.2333 39.6421 40.9022 39.2028C40.6417 38.857 40.3131 38.6644 39.9165 38.625C39.518 38.5829 39.0082 38.7287 38.3872 39.0621C37.7312 39.4139 37.3266 39.5883 37.1736 39.5854C37.0212 39.578 36.901 39.5158 36.8128 39.3988C36.7266 39.2844 36.7032 39.1614 36.7426 39.0298C36.7801 38.8956 36.9002 38.7521 37.103 38.5993C37.3083 38.4445 37.4967 38.378 37.6679 38.3997C37.8398 38.4169 37.9885 38.5087 38.1139 38.6751L38.1668 38.7452L39.5784 37.6814L39.5196 37.6034C39.2022 37.1823 38.762 36.9821 38.1989 37.003C37.6364 37.0193 37.051 37.2566 36.4427 37.7151C35.8318 38.1755 35.4413 38.6633 35.2713 39.1787C35.1013 39.6941 35.171 40.1571 35.4806 40.5679C35.7353 40.9058 36.0645 41.102 36.4683 41.1564C36.8701 41.2082 37.3841 41.0654 38.0102 40.728C38.6156 40.4063 38.9951 40.2365 39.1487 40.2186C39.303 40.1961 39.433 40.255 39.5388 40.3954C39.6563 40.5514 39.6921 40.7017 39.6463 40.8463C39.601 40.9864 39.4601 41.1456 39.2235 41.3239C39.0078 41.4865 38.8052 41.5719 38.6157 41.5802C38.4263 41.5884 38.2607 41.5012 38.119 41.3186L38.0544 41.2328L36.6359 42.2957ZM40.9082 37.9938C41.4078 38.6567 42.0268 39.0237 42.7653 39.095C43.5037 39.1662 44.2278 38.9343 44.9375 38.3995C45.6446 37.8666 46.0656 37.2354 46.2007 36.5059C46.3383 35.7745 46.1573 35.0773 45.6577 34.4144L45.5637 34.2896C45.0661 33.6293 44.4467 33.2645 43.7057 33.1953C42.9672 33.1241 42.2445 33.3549 41.5374 33.8878C40.8277 34.4227 40.4053 35.0548 40.2703 35.7843C40.1352 36.5138 40.3165 37.2087 40.8142 37.869L40.9082 37.9938ZM42.248 36.7211C41.9757 36.3598 41.8424 36.018 41.8482 35.6957C41.8566 35.3715 42.0037 35.1016 42.2897 34.8861C42.573 34.6725 42.8704 34.6074 43.1818 34.6907C43.4958 34.772 43.789 34.9933 44.0613 35.3546L44.22 35.5652C44.4943 35.9292 44.6285 36.2723 44.6228 36.5945C44.6196 36.9149 44.4737 37.1838 44.1852 37.4012C43.894 37.6207 43.5927 37.6887 43.2813 37.6055C42.9725 37.5202 42.682 37.297 42.4097 36.9356L42.248 36.7211ZM40.2828 31.5011L39.5887 32.0242L39.5438 34.577L40.6084 33.7747L40.7048 32.7911L41.6885 32.9607L42.7648 32.1496L40.2828 31.5011ZM40.8871 30.9723L42.1136 30.9529L42.4807 28.8114L40.8782 28.8268L40.8871 30.9723ZM48.2031 32.5023C48.6792 33.134 49.2445 33.5191 49.8992 33.6575C50.5518 33.7934 51.1823 33.6321 51.7906 33.1736C52.061 32.9699 52.2633 32.738 52.3974 32.4779C52.5342 32.2159 52.5854 31.9755 52.551 31.7568L52.5666 31.7451L52.9407 32.1846L54.3133 31.1502L49.8082 25.1723L48.381 26.2479L49.9709 28.3575C49.7578 28.2858 49.5179 28.2811 49.2511 28.3436C48.9843 28.406 48.7158 28.5391 48.4454 28.7429C47.8605 29.1837 47.5392 29.7417 47.4815 30.417C47.4219 31.0897 47.6311 31.7432 48.1091 32.3775L48.2031 32.5023ZM49.6948 31.4392L49.542 31.2365C49.2932 30.9063 49.1632 30.5824 49.152 30.2647C49.1435 29.9451 49.2796 29.6794 49.5604 29.4679C49.7631 29.315 49.9697 29.243 50.18 29.2516C50.3929 29.2582 50.5893 29.3161 50.7692 29.425L51.7714 30.7547C51.8226 30.9525 51.8205 31.1579 51.765 31.371C51.7121 31.582 51.5894 31.76 51.3971 31.905C51.1137 32.1186 50.8218 32.1775 50.5215 32.0818C50.2192 31.9836 49.9436 31.7694 49.6948 31.4392ZM49.7002 27.4304L51.1274 26.3548L50.3927 25.38L49.1215 26.338L47.7255 27.3901L48.4445 28.3767L49.7002 27.4304ZM53.5658 28.4547C54.0595 29.1098 54.6685 29.4824 55.3926 29.5725C56.1149 29.66 56.8477 29.4236 57.5912 28.8633C58.0565 28.5126 58.4023 28.1277 58.6286 27.7086C58.8555 27.2849 58.9431 26.9009 58.8915 26.5566L57.4191 26.6391C57.43 26.8591 57.3957 27.0867 57.3162 27.322C57.2366 27.5572 57.0864 27.758 56.8654 27.9246C56.5534 28.1597 56.2336 28.2275 55.9059 28.128C55.5762 28.0259 55.2762 27.7954 55.0059 27.4367L54.8501 27.23C54.5739 26.8635 54.4256 26.5126 54.4053 26.1773C54.385 25.8421 54.5035 25.5775 54.7609 25.3835C55.0364 25.1759 55.3019 25.1144 55.5573 25.1991C55.8108 25.2812 55.9979 25.3969 56.1187 25.5464L56.1833 25.6322L54.1985 27.128L54.8303 27.9664L58.2346 25.4009L57.8672 24.9134C57.3715 24.2557 56.7883 23.8821 56.1175 23.7925C55.4494 23.7009 54.776 23.9108 54.0975 24.4222C53.4294 24.9257 53.035 25.5409 52.9143 26.2677C52.7942 26.99 52.98 27.6774 53.4718 28.3299L53.5658 28.4547ZM57.6499 30.6044C57.7969 30.7994 57.9869 30.9109 58.22 30.939C58.4577 30.9678 58.7014 30.8881 58.9509 30.7C59.2031 30.51 59.3468 30.2977 59.3821 30.0633C59.4219 29.8295 59.3693 29.6164 59.2243 29.424C59.0774 29.229 58.8864 29.1162 58.6513 29.0855C58.4182 29.0574 58.1742 29.1393 57.9194 29.3313C57.6699 29.5194 57.5252 29.7303 57.4854 29.9641C57.4501 30.1986 57.5049 30.412 57.6499 30.6044ZM61.5176 28.2644L62.9487 27.1859L61.4235 25.162C61.6398 25.2436 61.8872 25.2446 62.1657 25.1652C62.4448 25.0812 62.7195 24.9374 62.9899 24.7336C63.5618 24.3026 63.8733 23.756 63.9245 23.0937C63.9757 22.4315 63.7594 21.7793 63.2755 21.1372L63.1814 21.0125C62.6975 20.3703 62.1286 19.9859 61.4747 19.8592C60.8188 19.7298 60.1983 19.8856 59.6134 20.3264C59.3431 20.5301 59.1343 20.7669 58.9871 21.0368C58.8406 21.3021 58.7845 21.5441 58.8189 21.7628L58.7994 21.7775L58.4322 21.3389L57.0713 22.3645L61.5176 28.2644ZM60.6065 24.078L59.6132 22.76C59.5639 22.5648 59.5683 22.3597 59.6264 22.1447C59.6826 21.9271 59.8107 21.7429 60.0109 21.5921C60.2917 21.3805 60.5764 21.3229 60.865 21.4192C61.1517 21.5129 61.4253 21.7327 61.6859 22.0784L61.8416 22.2851C62.1022 22.6308 62.239 22.9557 62.2521 23.2597C62.2632 23.5611 62.1297 23.8167 61.8515 24.0263C61.6565 24.1732 61.4428 24.2466 61.2104 24.2465C60.9786 24.2419 60.7773 24.1857 60.6065 24.078Z" fill="white"/>
<path d="M155.204 51.5989L157.489 51.5333L159.615 47.6035L160.148 47.5882L162.779 42.8467L160.576 42.9099L158.586 46.66L158.058 46.6751L155.204 51.5989ZM155.077 43.0678L158.165 47.7214L158.159 47.7215L160.523 51.4462L163.305 51.3663L160.084 46.5935L160.078 46.5937L157.812 43.001L155.077 43.0678ZM163.527 48.2942C163.555 49.2782 163.892 50.0559 164.538 50.6275C165.183 51.199 166.047 51.4693 167.129 51.4382C167.812 51.4186 168.412 51.2822 168.928 51.029C169.445 50.7758 169.794 50.4414 169.978 50.0258L168.344 49.0469C168.213 49.2578 168.037 49.4484 167.815 49.6189C167.597 49.7854 167.34 49.8729 167.043 49.8814C166.649 49.8928 166.338 49.7669 166.112 49.5037C165.889 49.2366 165.771 48.8511 165.756 48.3474L165.744 47.914C165.729 47.3947 165.815 46.9956 166.002 46.7166C166.194 46.4376 166.457 46.2933 166.793 46.2836C167.141 46.2736 167.401 46.3717 167.575 46.5777C167.749 46.7837 167.84 47.0039 167.846 47.2382L167.856 47.3668L165.132 47.445L165.169 48.7219L170.13 48.5794L170.108 47.8121C170.08 46.8282 169.771 46.0691 169.181 45.5351C168.591 44.9971 167.8 44.7424 166.808 44.7708C165.832 44.7989 165.032 45.1169 164.409 45.7249C163.789 46.3288 163.493 47.1228 163.522 48.1068L163.527 48.2942ZM171.182 51.1401L173.449 51.075L173.333 47.022C173.419 46.7694 173.541 46.5803 173.697 46.4546C173.854 46.3251 174.041 46.2572 174.26 46.2509C174.518 46.2435 174.711 46.3219 174.841 46.4863C174.971 46.6506 175.043 46.9025 175.056 47.2421L175.165 51.0257L177.438 50.9604L177.321 46.9074C177.408 46.6626 177.531 46.4735 177.692 46.3399C177.856 46.2062 178.049 46.1382 178.272 46.1357C178.518 46.1286 178.704 46.2073 178.83 46.3717C178.959 46.5321 179.029 46.7763 179.038 47.1043L179.148 50.9113L181.42 50.8461L181.315 47.1738C181.286 46.182 181.057 45.4812 180.627 45.0715C180.201 44.6578 179.668 44.4601 179.027 44.4785C178.614 44.4904 178.204 44.5999 177.8 44.8069C177.396 45.0139 177.107 45.2918 176.933 45.6407L176.921 45.641C176.763 45.3056 176.51 45.0452 176.16 44.8598C175.815 44.6704 175.41 44.5824 174.945 44.5958C174.609 44.6054 174.285 44.6792 173.973 44.8171C173.664 44.955 173.431 45.159 173.275 45.4292L173.24 45.4302L173.186 44.7694L171.001 44.8321L171.182 51.1401ZM184.886 46.0102L189.004 45.892L188.959 44.3164L184.841 44.4347L184.886 46.0102ZM185.777 48.64C185.799 49.4131 186.032 49.975 186.476 50.3257C186.92 50.6764 187.495 50.8416 188.202 50.8213C188.389 50.8159 188.562 50.7934 188.721 50.7536C188.884 50.7138 189.006 50.6692 189.087 50.62L189.044 49.1148C188.974 49.148 188.899 49.1776 188.818 49.2034C188.74 49.2251 188.662 49.2371 188.584 49.2394C188.428 49.2438 188.3 49.1967 188.199 49.098C188.098 48.9993 188.044 48.8094 188.036 48.5282L187.878 43.0344L185.623 43.0992L185.679 45.032L185.678 45.202L185.777 48.64ZM189.954 47.969C189.983 48.9569 190.218 49.6575 190.66 50.0708C191.105 50.48 191.656 50.6752 192.312 50.6564C192.702 50.6452 193.056 50.5686 193.372 50.4266C193.688 50.2847 193.923 50.0884 194.076 49.8378L194.105 49.837L194.165 50.4801L196.35 50.4173L196.168 44.1094L193.902 44.1745L194.019 48.2392C193.942 48.4446 193.817 48.6221 193.641 48.7717C193.466 48.9175 193.266 48.9935 193.044 48.9999C192.81 49.0066 192.618 48.9398 192.47 48.7995C192.321 48.6553 192.241 48.3801 192.229 47.9741L192.121 44.2256L189.849 44.2909L189.954 47.969ZM197.386 47.3218C197.415 48.3253 197.764 49.1067 198.432 49.6658C199.105 50.2249 199.959 50.4895 200.993 50.4598C202.028 50.4301 202.863 50.1169 203.499 49.5203C204.134 48.9237 204.438 48.1236 204.409 47.1202L204.403 46.9327C204.374 45.9253 204.026 45.144 203.357 44.5888C202.688 44.0296 201.837 43.7649 200.802 43.7946C199.767 43.8243 198.93 44.1375 198.291 44.7343C197.655 45.327 197.352 46.127 197.381 47.1344L197.386 47.3218ZM199.702 46.9388C199.687 46.4117 199.784 46.0298 199.992 45.7933C200.204 45.5566 200.49 45.4331 200.849 45.4228C201.204 45.4126 201.492 45.5196 201.714 45.7438C201.939 45.9679 202.059 46.3435 202.074 46.8707L202.087 47.3158C202.102 47.8429 202.008 48.2247 201.804 48.4611C201.599 48.6975 201.314 48.821 200.947 48.8316C200.58 48.8421 200.285 48.7353 200.064 48.5111C199.847 48.2868 199.73 47.911 199.715 47.3839L199.702 46.9388ZM201.231 40.5524L200.188 40.5824L198.337 43.0916L199.948 43.0454L200.748 42.1314L201.617 42.9974L203.24 42.9508L201.231 40.5524ZM202.319 41.1132L203.321 41.0844L203.315 40.8912C203.845 40.833 204.243 40.6769 204.509 40.4231C204.78 40.1691 204.909 39.8333 204.897 39.4155C204.885 39.0211 204.742 38.7106 204.465 38.4841C204.189 38.2576 203.794 38.1517 203.278 38.1665C202.927 38.1766 202.586 38.2294 202.257 38.3248C201.927 38.4163 201.688 38.5053 201.538 38.5916L201.993 39.5516C202.043 39.515 202.184 39.4582 202.416 39.3812C202.648 39.3042 202.849 39.2633 203.016 39.2584C203.157 39.2544 203.267 39.2747 203.346 39.3193C203.43 39.3638 203.473 39.4368 203.476 39.5383C203.479 39.6438 203.452 39.7207 203.395 39.7693C203.337 39.8178 203.239 39.8519 203.099 39.8716C202.838 39.9064 202.639 40.0059 202.503 40.17C202.367 40.3303 202.304 40.5646 202.312 40.8731L202.319 41.1132ZM205.627 50.1509L207.905 50.0855L207.724 43.7775L205.446 43.8429L205.627 50.1509ZM205.243 42.272C205.252 42.596 205.371 42.8662 205.6 43.0823C205.833 43.2945 206.156 43.3946 206.57 43.3827C206.988 43.3707 207.305 43.2522 207.521 43.0272C207.737 42.8021 207.841 42.5256 207.831 42.1976C207.822 41.8735 207.703 41.6053 207.474 41.3931C207.245 41.1808 206.922 41.0807 206.504 41.0927C206.09 41.1046 205.773 41.2231 205.553 41.4483C205.337 41.6733 205.233 41.9479 205.243 42.272Z" fill="white"/>
<path d="M30.2045 112.599L32.4887 112.533L34.6151 108.603L35.148 108.588L37.7786 103.847L35.5764 103.91L33.5856 107.66L33.0585 107.675L30.2045 112.599ZM30.0767 104.068L33.1647 108.721L33.1589 108.722L35.5226 112.446L38.3047 112.366L35.0843 107.594L35.0784 107.594L32.8123 104.001L30.0767 104.068ZM38.5271 109.294C38.5554 110.278 38.8923 111.056 39.5379 111.627C40.1835 112.199 41.047 112.469 42.1286 112.438C42.8119 112.419 43.4118 112.282 43.9282 112.029C44.4445 111.776 44.7945 111.441 44.9779 111.026L43.3437 110.047C43.213 110.258 43.0367 110.448 42.815 110.619C42.597 110.785 42.3396 110.873 42.0429 110.881C41.6485 110.893 41.3381 110.767 41.1117 110.504C40.8891 110.237 40.7706 109.851 40.7561 109.347L40.7437 108.914C40.7288 108.395 40.815 107.996 41.0024 107.717C41.1937 107.438 41.4572 107.293 41.793 107.284C42.1405 107.274 42.4013 107.372 42.5752 107.578C42.7492 107.784 42.8395 108.004 42.8462 108.238L42.8558 108.367L40.1323 108.445L40.169 109.722L45.1298 109.579L45.1078 108.812C45.0795 107.828 44.7705 107.069 44.1807 106.535C43.5908 105.997 42.8 105.742 41.8082 105.771C40.832 105.799 40.0322 106.117 39.4088 106.725C38.7892 107.329 38.4935 108.123 38.5217 109.107L38.5271 109.294ZM46.1823 112.14L48.4489 112.075L48.3325 108.022C48.4191 107.769 48.5406 107.58 48.6972 107.455C48.8538 107.325 49.0413 107.257 49.26 107.251C49.5177 107.243 49.7114 107.322 49.8412 107.486C49.971 107.651 50.0427 107.903 50.0564 108.242L50.165 112.026L52.4375 111.96L52.3211 107.907C52.4079 107.663 52.5314 107.473 52.6917 107.34C52.8559 107.206 53.0493 107.138 53.272 107.136C53.518 107.129 53.7039 107.207 53.8298 107.372C53.9595 107.532 54.029 107.776 54.0384 108.104L54.1477 111.911L56.4202 111.846L56.3148 108.174C56.2863 107.182 56.0571 106.481 55.6272 106.072C55.2011 105.658 54.6678 105.46 54.0275 105.479C53.6136 105.49 53.2045 105.6 52.8001 105.807C52.3957 106.014 52.1067 106.292 51.933 106.641L51.9213 106.641C51.7632 106.306 51.5095 106.045 51.1603 105.86C50.8149 105.67 50.4098 105.582 49.9452 105.596C49.6094 105.605 49.2852 105.679 48.9726 105.817C48.664 105.955 48.4314 106.159 48.2751 106.429L48.2399 106.43L48.1858 105.769L46.0011 105.832L46.1823 112.14ZM31.4381 126.569L33.7047 126.504L33.588 122.439C33.6749 122.199 33.8102 122.013 33.994 121.883C34.1779 121.752 34.3694 121.684 34.5685 121.679C34.8184 121.671 35.0136 121.732 35.1541 121.861C35.2945 121.99 35.3697 122.226 35.3796 122.57L35.4911 126.453L37.7577 126.388L37.6484 122.581C37.62 121.593 37.3797 120.914 36.9275 120.544C36.4792 120.174 35.9134 119.999 35.2301 120.018C34.8513 120.029 34.504 120.111 34.1879 120.265C33.8719 120.419 33.6527 120.611 33.5303 120.841L33.5011 120.842L33.4474 120.198L31.2569 120.261L31.4381 126.569ZM39.3705 128.047C39.682 128.281 40.0861 128.472 40.5828 128.622C41.0834 128.772 41.6285 128.838 42.2181 128.821C43.1943 128.793 44.0005 128.497 44.6369 127.931C45.2734 127.37 45.577 126.579 45.5477 125.56L45.3839 119.856L43.1934 119.919L43.1769 120.57L43.1535 120.57C43.0297 120.343 42.8097 120.164 42.4933 120.032C42.1808 119.901 41.839 119.84 41.4681 119.851C40.6208 119.875 39.9457 120.182 39.4429 120.771C38.9399 121.356 38.7024 122.134 38.7303 123.107L38.7357 123.294C38.7637 124.266 39.0455 125.032 39.5813 125.591C40.1209 126.146 40.8124 126.411 41.6558 126.387C42.0385 126.376 42.3726 126.308 42.6582 126.183C42.9476 126.057 43.1574 125.877 43.2875 125.643L43.2886 125.684C43.3038 126.211 43.1939 126.603 42.959 126.86C42.7281 127.12 42.4252 127.256 42.0504 127.267C41.6365 127.279 41.248 127.223 40.885 127.101C40.5259 126.982 40.2646 126.863 40.1009 126.743L39.3705 128.047ZM41.0643 123.344L41.0524 122.929C41.0397 122.487 41.1253 122.133 41.3091 121.866C41.4928 121.595 41.7642 121.454 42.1235 121.444C42.3773 121.437 42.596 121.501 42.7796 121.636C42.9633 121.772 43.0998 121.965 43.1891 122.216L43.2397 123.979C43.1711 124.177 43.0511 124.354 42.8798 124.511C42.7085 124.669 42.4998 124.751 42.2538 124.758C41.8712 124.769 41.5804 124.646 41.3816 124.39C41.1827 124.134 41.077 123.786 41.0643 123.344ZM46.654 124.28C46.6731 124.944 46.9059 125.431 47.3526 125.743C47.7991 126.051 48.3425 126.195 48.9829 126.177C49.4944 126.162 49.9253 126.062 50.2755 125.876C50.6258 125.69 50.8485 125.484 50.9436 125.259C50.9631 125.391 50.9904 125.527 51.0257 125.667C51.0649 125.806 51.1052 125.919 51.1467 126.003L53.39 125.939L53.3873 125.845C53.3048 125.695 53.2349 125.508 53.1777 125.283C53.1242 125.054 53.0939 124.816 53.0869 124.57L53.0011 121.583C52.9801 120.853 52.6992 120.326 52.1585 120.001C51.6176 119.673 50.8864 119.522 49.9649 119.548C49.0434 119.575 48.2932 119.784 47.7144 120.176C47.1355 120.567 46.8546 121.06 46.8717 121.654L46.875 121.771L49.1183 121.706L49.1149 121.589C49.11 121.417 49.1683 121.273 49.29 121.156C49.4117 121.039 49.621 120.977 49.9177 120.968C50.2145 120.96 50.4233 121.018 50.5441 121.144C50.6649 121.269 50.7283 121.433 50.7341 121.636L50.744 121.982L49.6898 122.012C48.8035 122.042 48.0707 122.242 47.4913 122.615C46.9119 122.987 46.6328 123.542 46.654 124.28ZM48.927 124.027C48.9202 123.789 49.0028 123.607 49.1751 123.481C49.3512 123.355 49.6267 123.286 50.0016 123.275L50.7805 123.253L50.7928 123.68C50.8016 123.985 50.7091 124.236 50.5155 124.433C50.3257 124.63 50.063 124.733 49.7272 124.743C49.4538 124.751 49.2527 124.688 49.1239 124.555C48.9988 124.418 48.9332 124.242 48.927 124.027ZM50.2824 118.765L51.5105 117.851L49.8935 115.84L48.2902 116.959L50.2824 118.765ZM54.7542 128.332C54.8687 128.376 55.0025 128.407 55.1555 128.426C55.3123 128.445 55.4825 128.452 55.666 128.447C56.2908 128.429 56.8094 128.256 57.2221 127.927C57.6348 127.603 57.9534 127.131 58.1779 126.511L60.6999 119.416L58.6441 119.475L57.6089 122.822C57.5663 122.972 57.5333 123.116 57.5099 123.253C57.4903 123.387 57.4709 123.53 57.4519 123.683L57.4167 123.684C57.3889 123.532 57.3574 123.388 57.3223 123.253C57.291 123.117 57.2479 122.977 57.193 122.834L55.9323 119.553L53.6071 119.619L56.3465 125.813L56.5281 125.808C56.4608 126.185 56.3319 126.458 56.1413 126.628C55.9547 126.797 55.7267 126.886 55.4573 126.894C55.348 126.897 55.2246 126.887 55.0871 126.863C54.9498 126.844 54.8338 126.82 54.7392 126.791L54.7542 128.332Z" fill="white"/>
<rect x="54.8926" y="10.8929" width="109.44" height="109.44" fill="url(#paint0_radial_648_240)"/>
<path d="M88.889 52.7365C88.8138 47.4904 93.0056 43.1765 98.2517 43.1012L118.903 42.8049C124.149 42.7296 128.463 46.9215 128.538 52.1676L128.834 72.8184C128.909 78.0646 124.718 82.3784 119.471 82.4537L98.8207 82.75C93.5745 82.8253 89.2606 78.6335 89.1854 73.3873L88.889 52.7365Z" fill="url(#paint1_linear_648_240)" stroke="url(#paint2_radial_648_240)"/>
<path fill-rule="evenodd" clip-rule="evenodd" d="M122.898 53.6379C122.891 53.0944 122.639 52.5778 122.187 52.2758C120.128 50.8996 117.648 50.1125 114.988 50.1507C107.982 50.2512 102.386 56.0366 102.487 63.0727C102.587 70.1087 108.348 75.7311 115.353 75.6306C118.016 75.5924 120.475 74.7328 122.495 73.2954C122.934 72.9831 123.169 72.4641 123.161 71.9254C123.149 71.0908 122.544 70.3983 121.768 70.09C121.66 70.047 121.553 70.0016 121.447 69.9539C120.545 69.5479 119.478 69.5632 118.589 69.9949C117.591 70.4791 116.475 70.7574 115.294 70.7744C110.965 70.8365 107.404 67.3617 107.342 63.0131C107.279 58.6646 110.739 55.089 115.068 55.0269C116.249 55.01 117.373 55.2562 118.384 55.7115C119.285 56.1175 120.352 56.1022 121.242 55.6705C121.342 55.6216 121.444 55.5748 121.548 55.5301C122.32 55.1956 122.91 54.4799 122.898 53.6379Z" fill="#291117"/>
<circle cx="115.023" cy="62.2618" r="4.79841" transform="rotate(-0.822087 115.023 62.2618)" fill="white"/>
<path fill-rule="evenodd" clip-rule="evenodd" d="M94.8584 71.544C94.8666 72.1169 95.1327 72.6615 95.6121 72.9753C97.6357 74.2997 100.063 75.0552 102.663 75.0179C109.6 74.9183 115.144 69.2138 115.044 62.2765C114.944 55.3392 109.24 49.796 102.303 49.8956C99.6625 49.9335 97.2242 50.7831 95.2221 52.2036C94.8121 52.4945 94.592 52.978 94.5992 53.4807C94.6103 54.2578 95.1745 54.9028 95.9014 55.178C96.0619 55.2388 96.2198 55.3047 96.375 55.3756C97.2957 55.7961 98.3861 55.7989 99.3091 55.3834C100.248 54.9608 101.287 54.7191 102.382 54.7034C106.669 54.6419 110.195 58.0677 110.257 62.3552C110.318 66.6427 106.892 70.1683 102.605 70.2299C101.371 70.2476 100.2 69.9764 99.1566 69.479C98.3108 69.0758 97.3009 69.0732 96.4528 69.4718C96.3957 69.4987 96.3382 69.5248 96.2804 69.5503C95.4696 69.9074 94.8456 70.6582 94.8584 71.544Z" fill="white"/>
<circle cx="102.467" cy="62.442" r="4.79841" transform="rotate(-0.822087 102.467 62.442)" fill="#291117"/>
<defs>
<radialGradient id="paint0_radial_648_240" cx="0" cy="0" r="1" gradientUnits="userSpaceOnUse" gradientTransform="translate(109.613 65.613) rotate(90) scale(54.7201)">
<stop stop-color="#FFB9BF"/>
<stop offset="1" stop-color="#BDB6C4" stop-opacity="0"/>
</radialGradient>
<linearGradient id="paint1_linear_648_240" x1="90.8815" y1="47.794" x2="124.606" y2="79.8596" gradientUnits="userSpaceOnUse">
<stop offset="0.447917" stop-color="#F2ACAC"/>
<stop offset="1" stop-color="#A76ED9"/>
</linearGradient>
<radialGradient id="paint2_radial_648_240" cx="0" cy="0" r="1" gradientUnits="userSpaceOnUse" gradientTransform="translate(108.862 62.7775) rotate(89.1779) scale(20.3265)">
<stop stop-color="#572F7A" stop-opacity="0.51"/>
<stop offset="1" stop-color="#E4DAED" stop-opacity="0.36"/>
</radialGradient>
</defs>
</svg>
