<svg width="279" height="216" viewBox="0 0 279 216" fill="none" xmlns="http://www.w3.org/2000/svg">
<path d="M197.967 71.1166H127.209C117.059 71.1166 108.674 62.7239 108.674 52.5644V18.5522C108.674 8.39264 117.059 0 127.209 0H197.967C208.117 0 216.502 8.39264 216.502 18.5522V52.7117C216.502 62.8712 208.117 71.1166 197.967 71.1166Z" fill="#498E5C"/>
<path d="M185.61 126.331C185.61 126.331 187.669 124.27 187.081 120.736C186.492 117.202 186.051 114.552 182.374 113.521C178.696 112.344 174.577 112.049 173.253 108.368C173.253 108.368 172.812 106.307 173.694 101.448C174.43 96.5889 177.078 83.3374 177.078 83.3374C177.078 83.3374 177.519 76.8589 170.899 73.7668C164.427 70.6748 158.396 70.6748 158.396 70.6748C158.396 70.6748 148.687 71.1165 144.715 72.2944C140.743 73.4723 140.302 79.0674 140.302 81.4233C140.302 83.7791 140.302 86.2822 140.302 86.2822L160.602 100.859C160.602 100.859 156.63 103.362 155.306 109.546C153.982 115.73 155.453 121.767 159.278 124.123C163.103 126.478 172.076 127.362 178.696 122.945L185.61 126.331Z" fill="#572F7A"/>
<path d="M120.443 209.227L154.424 209.521C154.424 209.521 148.687 202.307 148.098 197.742C147.951 197.89 122.502 208.933 120.443 209.227Z" fill="#2E303D"/>
<path d="M13.645 133.693L19.5292 130.601H102.349L107.056 132.515L109.998 136.344L129.122 193.325L130.004 197.742L129.416 201.423L126.915 205.693L124.12 207.902L121.178 209.227H116.03L34.828 209.669L13.645 133.693Z" fill="#363E40"/>
<path d="M249.747 193.178V192.147C249.747 192.147 247.394 190.675 239.597 190.675C231.8 190.675 230.477 192.442 230.477 192.442V214.233C230.477 214.233 232.977 215.558 240.038 215.558C247.099 215.558 249.6 214.233 249.6 214.233L249.894 210.699C249.894 210.699 258.573 209.816 258.573 202.012C258.573 194.061 253.719 193.914 249.747 193.178ZM249.894 207.607V196.27C249.894 196.27 255.484 195.534 255.631 200.245C255.926 205.84 249.894 207.607 249.894 207.607Z" fill="white"/>
<path d="M267.106 62.7239H206.646C200.615 62.7239 195.613 67.73 195.613 73.7668V90.1104V114.258L208.853 101.006H267.106C273.137 101.006 278.139 95.9999 278.139 89.9631V73.6196C278.139 67.5828 273.137 62.7239 267.106 62.7239Z" fill="#448C58"/>
<path d="M50.421 85.8405L44.8311 70.2332H13.645L21.4415 92.319H52.1863L50.421 85.8405Z" fill="#448C58"/>
<path d="M112.794 209.669H35.2696C30.121 209.669 25.5608 206.577 23.9426 201.865L5.70169 148.712C3.20092 141.35 8.93799 133.841 17.0287 133.841H94.5526C99.7013 133.841 104.261 136.933 105.88 141.644L124.268 194.798C126.621 202.012 120.884 209.669 112.794 209.669Z" fill="#A6AFB1"/>
<path d="M148.393 118.528C148.393 118.528 133.388 120.589 126.916 129.129C120.443 137.669 114.853 148.859 114.853 148.859L128.975 192.736C128.975 192.736 130.446 189.35 131.623 189.202C132.8 189.055 136.33 189.202 137.654 190.528C137.654 190.528 141.479 188.761 146.039 191.558C146.039 191.558 150.746 190.969 155.012 193.325C159.278 195.681 162.956 197.301 162.956 197.301C162.956 197.301 163.397 205.693 157.66 209.521L212.089 209.669C212.089 209.669 216.208 200.834 215.619 193.325C215.031 185.816 212.677 171.975 209.441 165.35C206.352 158.724 202.821 149.742 198.702 143.264C194.583 136.785 190.612 131.485 186.64 127.509L179.138 122.798C179.138 122.798 170.753 126.773 164.427 125.742C158.102 124.712 157.807 123.092 157.807 123.092C157.807 123.092 153.247 129.718 150.452 129.276C147.804 128.834 148.393 118.528 148.393 118.528Z" fill="#448C58"/>
<path d="M239.892 192.147C235.626 192.147 232.242 192.883 232.242 193.767L239.892 194.209L247.541 193.767C247.688 192.883 244.158 192.147 239.892 192.147Z" fill="white"/>
<path d="M142.656 77.5951C142.656 77.5951 140.743 84.2209 140.596 85.6933C140.449 87.3129 140.302 96.1472 140.008 98.9448C139.714 101.742 141.038 111.313 147.804 110.429L148.54 118.528C148.54 118.528 147.804 128.982 150.599 129.276C153.394 129.423 157.955 123.092 157.955 123.092C157.955 123.092 154.571 120 154.718 113.963C154.865 107.779 157.66 103.362 161.191 100.859C161.191 100.859 158.984 95.411 160.75 92.1718C160.75 92.1718 153.541 90.9939 150.011 87.7546C146.48 84.3681 144.421 82.6012 142.656 77.5951Z" fill="white"/>
<path d="M163.103 197.448C163.103 197.448 157.807 194.209 153.394 192.736C148.981 191.264 146.48 191.706 146.48 191.706C146.48 191.706 142.95 190.38 141.332 190.086C139.567 189.939 137.801 190.822 137.801 190.822C137.801 190.822 136.183 189.35 133.829 189.35C131.476 189.35 129.858 190.528 128.828 192.883C128.828 192.883 130.152 196.712 129.858 198.773C129.416 200.834 128.092 206.577 124.121 208.049C124.121 208.049 126.474 210.994 129.858 207.902C129.858 207.902 132.211 210.258 138.095 209.669C138.095 209.669 142.95 210.11 144.715 208.344C146.333 206.724 148.393 203.043 148.393 203.043C148.393 203.043 149.717 209.963 156.631 209.669C156.631 209.669 159.131 208.933 161.191 204.81C163.25 200.834 163.103 197.448 163.103 197.448Z" fill="white"/>
<path d="M62.4486 181.296C65.1222 179.751 65.3796 175.188 63.0235 171.103C60.6675 167.019 56.5901 164.96 53.9166 166.505C51.243 168.05 50.9856 172.614 53.3417 176.698C55.6978 180.783 59.7751 182.841 62.4486 181.296Z" fill="white"/>
<path d="M54.0986 94.9693H95.582L106.026 124.27H64.543L54.0986 94.9693Z" fill="#448C58"/>
<path d="M208.558 82.3068C211.32 82.3068 213.56 80.0655 213.56 77.3006C213.56 74.5358 211.32 72.2945 208.558 72.2945C205.796 72.2945 203.557 74.5358 203.557 77.3006C203.557 80.0655 205.796 82.3068 208.558 82.3068Z" fill="white"/>
<path d="M232.389 82.3068C235.152 82.3068 237.391 80.0655 237.391 77.3006C237.391 74.5358 235.152 72.2945 232.389 72.2945C229.627 72.2945 227.388 74.5358 227.388 77.3006C227.388 80.0655 229.627 82.3068 232.389 82.3068Z" fill="white"/>
<path d="M257.397 82.3068C260.159 82.3068 262.399 80.0655 262.399 77.3006C262.399 74.5358 260.159 72.2945 257.397 72.2945C254.635 72.2945 252.396 74.5358 252.396 77.3006C252.396 80.0655 254.635 82.3068 257.397 82.3068Z" fill="white"/>
<path d="M143.832 109.546C143.832 109.546 139.566 115.288 143.244 119.558L148.54 118.528L147.804 110.429C147.804 110.577 144.862 110.577 143.832 109.546Z" fill="#2E303D"/>
<path d="M166.045 103.951C169.295 103.951 171.929 100.127 171.929 95.411C171.929 90.6946 169.295 86.8712 166.045 86.8712C162.796 86.8712 160.161 90.6946 160.161 95.411C160.161 100.127 162.796 103.951 166.045 103.951Z" fill="#CCCCCC"/>
<path d="M167.222 103.804C169.578 103.804 171.488 100.112 171.488 95.5583C171.488 91.0045 169.578 87.3129 167.222 87.3129C164.866 87.3129 162.956 91.0045 162.956 95.5583C162.956 100.112 164.866 103.804 167.222 103.804Z" fill="white"/>
<path d="M164.28 86.8711C164.28 86.8711 163.691 78.773 159.278 75.2392C154.424 71.2638 148.981 71.2638 148.981 71.2638C148.981 71.2638 150.011 70.0858 153.1 69.9386C156.042 69.9386 159.572 70.9693 162.662 73.3251C165.751 75.6809 167.663 81.1288 167.222 86.5766L164.28 86.8711Z" fill="#448C58"/>
<path d="M162.809 197.301C162.809 197.301 153.394 191.853 149.717 191.706C145.892 191.558 146.627 191.558 146.627 191.558C146.627 191.558 139.714 188.761 138.39 190.086C138.39 190.086 143.244 183.607 151.923 184.344C160.455 185.08 162.809 196.123 162.809 197.301Z" fill="#16361F"/>
<path d="M29.0913 65.5215C28.0616 63.4601 27.6203 61.6932 27.3261 59.9264C27.3261 59.6319 27.4732 59.4847 27.7674 59.3374C28.0616 59.3374 28.2087 59.4847 28.3558 59.7791C28.65 61.546 29.0913 63.3129 29.6797 64.9325C29.8268 65.227 29.6797 65.5215 29.3855 65.5215C29.2384 65.5215 29.0913 65.5215 29.0913 65.5215ZM27.3261 54.9202C27.0319 54.9202 26.8848 54.773 26.8848 54.4785C26.8848 52.7116 27.179 50.7975 27.4732 49.0307C27.4732 48.7362 27.7674 48.5889 28.0616 48.5889C28.3558 48.5889 28.5029 48.8834 28.5029 49.1779C28.2087 50.9448 27.9145 52.7116 27.9145 54.4785C27.7674 54.773 27.6203 54.9202 27.3261 54.9202ZM29.3855 44.319C28.9442 44.1718 28.7971 43.8773 28.9442 43.7301C29.3855 42.5521 29.974 41.3742 30.5624 40.3435C30.8566 39.9018 31.1508 39.3129 31.445 38.8712C31.5921 38.5767 31.8863 38.5767 32.0334 38.7239C32.1805 38.8712 32.3276 39.1656 32.1805 39.3129C31.8863 39.7546 31.5921 40.1963 31.2979 40.7853C30.7095 41.8159 30.2682 42.9939 29.8268 44.1718C29.8268 44.1718 29.6797 44.319 29.3855 44.319ZM65.5732 43.2883C64.9847 43.2883 64.3963 43.1411 63.8079 42.8466C63.5137 42.6994 63.5137 42.4049 63.5137 42.2577C63.6608 41.9632 63.955 41.9632 64.1021 41.9632C64.5434 42.2577 65.1318 42.2577 65.5732 42.2577C67.0442 42.2577 67.6326 41.0797 67.9268 40.3435C68.0739 40.0491 68.221 40.0491 68.5152 40.0491C68.8095 40.1963 68.9566 40.3435 68.8095 40.638C68.0739 42.4049 66.8971 43.2883 65.5732 43.2883ZM59.8361 39.3129C58.3651 37.6932 57.6295 35.9264 57.1882 34.0123C57.1882 33.7178 57.3353 33.5705 57.4824 33.4233C57.7766 33.4233 57.9237 33.5705 58.0709 33.7178C58.5122 35.4847 59.2477 37.1043 60.2774 38.4294C60.4245 38.5767 60.4245 38.8712 60.1303 39.0184C59.9832 39.3129 59.9832 39.3129 59.8361 39.3129ZM68.0739 35.7791C67.1913 34.3067 66.4558 33.2761 65.5732 32.5399C65.1318 32.2454 64.8376 31.8037 64.3963 31.5092C64.2492 31.362 64.1021 31.0675 64.2492 30.773C64.3963 30.6258 64.6905 30.4785 64.9847 30.6258C65.4261 30.9202 65.8674 31.362 66.1616 31.6564C67.1913 32.5399 67.9268 33.7178 68.3681 35.0429C68.5152 35.3374 68.3681 35.6319 68.0739 35.6319C68.221 35.7791 68.0739 35.7791 68.0739 35.7791ZM35.1226 35.1902C34.6813 34.8957 34.5342 34.6012 34.8284 34.454C36.1523 33.1288 37.4763 31.9509 38.9473 30.9202C39.0944 30.773 39.3886 30.773 39.5357 31.0675C39.6828 31.2147 39.6828 31.5092 39.3886 31.6564C37.9176 32.6871 36.5936 33.865 35.4168 35.1902C35.4168 35.0429 35.2697 35.1902 35.1226 35.1902ZM57.0411 29.1534C56.7469 29.1534 56.5998 29.0061 56.5998 28.7116C56.5998 28.5644 56.5998 28.2699 56.5998 28.1227C56.0114 27.9754 55.2759 27.8282 54.6874 27.8282C54.3932 27.8282 54.2461 27.5337 54.2461 27.2393C54.2461 26.9448 54.5403 26.7975 54.8346 26.7975C55.423 26.9448 56.0114 26.9448 56.7469 27.092C56.894 25.7669 57.0411 24.4417 57.3353 23.2638C57.3353 22.9693 57.6295 22.8221 57.9237 22.9693C58.218 22.9693 58.3651 23.2638 58.218 23.5583C57.9237 24.8834 57.6295 26.2086 57.6295 27.3865C58.5122 27.681 59.3948 27.8282 60.2774 28.2699C60.5716 28.4172 60.5716 28.7116 60.5716 28.8589C60.4245 29.1534 60.1303 29.1534 59.9832 29.1534C59.2477 28.8589 58.5122 28.5644 57.6295 28.4172C57.4824 28.8589 57.1882 29.1534 57.0411 29.1534ZM44.096 29.0061C43.5075 28.4172 43.6546 28.1227 43.9488 28.1227C44.8315 27.681 45.8612 27.3865 46.7438 27.2393C47.4793 27.092 48.362 26.9448 49.2446 26.7975C49.5388 26.7975 49.6859 26.9448 49.833 27.2393C49.833 27.5337 49.6859 27.681 49.3917 27.8282C48.5091 27.9754 47.7736 28.1227 47.038 28.2699C46.1554 28.5644 45.2728 28.8589 44.2431 29.1534C44.2431 29.0061 44.096 29.0061 44.096 29.0061ZM59.5419 18.6994C59.1006 18.5521 58.9535 18.2577 59.1006 17.9632C59.9832 16.1963 61.16 14.7239 62.3369 13.546C62.484 13.3988 62.9253 13.2515 63.0724 13.546C63.2195 13.6932 63.3666 13.9877 63.0724 14.135C61.7485 15.3129 60.8658 16.638 59.9832 18.4049C59.9832 18.5521 59.8361 18.6994 59.5419 18.6994ZM67.0442 10.7485C66.4558 10.3067 66.6029 10.0123 66.75 9.86502C68.221 8.6871 69.8392 7.65643 71.3102 6.77299C71.6044 6.62575 71.7515 6.77299 71.8986 6.92023C72.0457 7.21471 71.8986 7.36195 71.7515 7.50919C70.2805 8.39262 68.8095 9.4233 67.3384 10.454C67.1913 10.7485 67.0442 10.7485 67.0442 10.7485ZM102.496 7.65643C100.731 6.62575 99.1129 5.88956 97.4948 5.3006C97.2006 5.15336 97.0535 4.85888 97.2006 4.5644C97.2006 4.41716 97.4948 4.26992 97.789 4.26992C99.5542 4.85888 101.172 5.74232 102.791 6.62575C103.085 6.77299 103.085 7.06747 102.938 7.21471C102.791 7.50919 102.643 7.65643 102.496 7.65643ZM76.3118 5.44784C75.7234 4.85888 75.8704 4.5644 76.1647 4.5644C77.9299 3.82821 79.6952 3.38649 81.4604 2.94477C81.7546 2.94477 81.9017 3.09201 82.0488 3.23925C82.0488 3.53373 81.9017 3.68097 81.6075 3.82821C79.8423 4.12268 78.2241 4.71164 76.4589 5.3006C76.4589 5.44784 76.4589 5.44784 76.3118 5.44784ZM92.3461 3.82821C90.5809 3.53373 88.9627 3.38649 87.3446 3.38649C86.7562 3.38649 86.6091 3.23925 86.6091 2.94477C86.6091 2.65029 86.7562 2.50305 87.0504 2.50305C89.1098 2.50305 90.8751 2.65029 92.4932 2.94477C92.7874 2.94477 92.9345 3.23925 92.9345 3.53373C92.7874 3.68097 92.6403 3.82821 92.3461 3.82821Z" fill="white"/>
<path d="M162.662 89.227C151.188 89.227 146.774 73.3252 146.333 71.8528C145.745 72 145.009 72.1473 144.568 72.2945C140.596 73.4724 140.155 79.0675 140.155 81.4233C140.155 83.7792 140.155 86.2822 140.155 86.2822L157.219 98.5031C162.956 94.9693 171.047 89.227 162.662 89.227Z" fill="white"/>
<path d="M159.426 114.994C158.102 107.485 162.515 102.184 162.515 102.184C162.515 102.184 165.457 94.5276 165.31 93.7914C165.163 93.2024 156.631 94.0859 152.07 94.5276L160.602 100.712C160.602 100.712 156.631 103.215 155.307 109.399C153.983 115.583 155.454 121.62 159.278 123.975C161.632 125.448 166.192 126.331 170.9 125.742C165.31 125.153 160.455 121.031 159.426 114.994Z" fill="white"/>
<path d="M146.774 110.429C145.892 110.282 144.421 110.135 143.832 109.546C143.832 109.546 139.566 115.288 143.244 119.558L146.333 118.969C143.979 113.963 146.774 110.429 146.774 110.429Z" fill="white"/>
<path d="M238.126 181.546C234.007 181.546 230.918 180.221 228.859 177.423C225.769 173.448 225.916 167.853 226.652 165.202C227.829 161.227 227.535 160.049 226.799 156.074C226.064 152.834 227.093 149.742 229.006 147.534C230.918 145.325 233.713 144.442 236.655 144.736C239.744 145.031 242.098 146.356 243.422 148.564C244.893 150.92 245.187 154.159 244.157 157.399C242.392 162.552 244.157 164.613 244.304 164.613C246.805 167.411 248.57 172.712 246.805 176.687C245.923 178.748 243.863 181.251 238.715 181.399C238.567 181.546 238.273 181.546 238.126 181.546ZM235.625 145.62C232.683 145.62 230.918 146.945 229.741 148.123C227.976 150.037 227.093 152.982 227.535 155.337C228.417 159.755 228.711 161.227 227.535 165.497C226.799 168.147 226.799 173.301 229.447 176.834C231.506 179.485 234.449 180.663 238.567 180.515C242.245 180.368 244.746 178.896 245.923 176.393C247.394 172.712 245.923 167.853 243.569 165.202C243.422 165.055 241.362 162.699 243.275 157.104C244.304 154.159 244.01 151.215 242.686 149.006C241.509 147.092 239.303 145.914 236.508 145.62C236.214 145.62 235.92 145.62 235.625 145.62Z" fill="white"/>
<path d="M224.151 139.73C222.092 139.73 220.327 137.374 220.327 134.282C220.327 131.19 221.945 128.834 224.151 128.834C226.211 128.834 227.976 131.19 227.976 134.282C227.976 137.374 226.211 139.73 224.151 139.73ZM224.151 129.718C222.68 129.718 221.356 131.779 221.356 134.282C221.356 136.785 222.68 138.847 224.151 138.847C225.622 138.847 226.946 136.785 226.946 134.282C226.946 131.779 225.622 129.718 224.151 129.718Z" fill="white"/>
<path d="M249.748 208.196C249.6 208.196 249.306 208.049 249.306 207.755C249.306 207.46 249.453 207.313 249.6 207.166C249.748 207.166 254.749 205.988 255.043 200.982C255.19 199.656 254.749 198.626 254.014 197.89C252.543 196.417 249.748 196.712 249.748 196.712C249.453 196.712 249.306 196.564 249.159 196.27C249.159 195.975 249.306 195.828 249.6 195.681C249.748 195.681 252.837 195.387 254.749 197.153C255.632 198.037 256.073 199.362 256.073 200.982C255.779 206.724 249.895 208.049 249.748 208.196Z" fill="#2E303D"/>
<path d="M249.894 211.141C249.6 211.141 249.453 210.994 249.453 210.699C249.453 210.405 249.6 210.258 249.894 210.11C250.189 210.11 258.721 209.08 258.132 200.982C257.985 198.479 257.103 196.564 255.631 195.239C253.278 193.325 250.042 193.62 250.042 193.62C249.747 193.62 249.6 193.472 249.453 193.178C249.453 192.883 249.6 192.736 249.894 192.589C250.042 192.589 253.572 192.147 256.22 194.356C257.985 195.828 258.868 197.89 259.162 200.687C259.75 210.11 250.042 211.141 249.894 211.141C250.042 211.141 250.042 211.141 249.894 211.141Z" fill="#2E303D"/>
<path d="M240.039 216C238.421 216 230.036 215.853 230.036 213.939C230.036 213.644 230.183 213.497 230.477 213.497C230.771 213.497 230.918 213.644 230.918 213.939C231.36 214.38 234.743 215.117 240.039 215.117C245.334 215.117 248.865 214.38 249.306 213.939C249.306 213.644 249.453 213.497 249.748 213.497C250.042 213.497 250.189 213.791 250.189 214.086C250.189 215.853 241.804 216 240.039 216Z" fill="#2E303D"/>
<path d="M230.477 214.528C230.183 214.528 230.036 214.38 230.036 214.086V192.589C230.036 192.294 230.183 192.147 230.477 192.147C230.771 192.147 230.918 192.294 230.918 192.589V214.086C231.065 214.233 230.771 214.528 230.477 214.528Z" fill="#2E303D"/>
<path d="M249.747 214.528C249.453 214.528 249.306 214.38 249.306 214.086V192.295C249.306 192 249.453 191.853 249.747 191.853C250.042 191.853 250.189 192 250.189 192.295V214.086C250.189 214.233 250.042 214.528 249.747 214.528Z" fill="#2E303D"/>
<path d="M240.186 194.798C239.745 194.798 230.036 194.798 230.036 192.442C230.036 190.233 239.745 190.086 240.186 190.086C240.627 190.086 250.336 190.086 250.336 192.442C250.189 194.65 240.48 194.798 240.186 194.798ZM231.065 192.442C231.507 192.883 234.743 193.767 240.186 193.767C245.776 193.767 249.159 192.883 249.306 192.442C249.012 192 245.776 191.117 240.186 191.117C234.596 191.117 231.36 192 231.065 192.442Z" fill="#2E303D"/>
<path d="M185.169 126.773C184.58 126.331 184.727 126.037 184.875 125.89C186.787 124.859 186.64 122.061 186.493 120.442C186.198 117.644 185.022 115.583 183.256 114.405C182.815 114.11 182.374 113.963 181.932 113.669C181.05 113.374 180.167 113.08 179.285 112.785C177.519 112.344 175.607 111.755 174.136 110.429C172.812 109.251 172.224 107.337 172.518 105.129C174.43 91.4355 176.195 83.7791 176.342 83.0429C176.195 79.5092 174.43 76.5644 171.488 74.503C167.222 71.5582 161.191 70.9693 156.925 70.822C156.63 70.822 156.483 70.5276 156.483 70.3803C156.483 70.0858 156.63 69.9386 156.925 69.9386C161.338 70.0858 167.516 70.822 172.076 73.7668C175.46 75.9754 177.225 79.0674 177.372 83.0429C177.372 83.1901 175.46 90.9938 173.4 105.276C173.106 107.19 173.695 108.81 174.724 109.84C176.048 111.018 177.666 111.46 179.579 111.902C180.461 112.196 181.491 112.344 182.374 112.785C182.962 113.08 183.403 113.227 183.845 113.521C185.904 114.847 187.081 117.055 187.522 120.147C187.964 123.239 187.228 125.448 185.463 126.478C185.316 126.773 185.316 126.773 185.169 126.773Z" fill="white"/>
<path d="M140.449 85.546C140.155 85.546 140.008 85.3987 140.008 85.1042C138.537 72.4417 145.451 71.2638 145.745 71.2638C146.333 71.1165 147.216 70.822 148.246 70.6748C148.54 70.6748 148.687 70.822 148.834 71.1165C148.834 71.411 148.687 71.5582 148.393 71.7055C147.363 71.8527 146.48 72.1472 145.892 72.2944C145.598 72.2944 139.567 73.4723 140.89 85.1042C140.89 85.2515 140.743 85.546 140.449 85.546Z" fill="#2E303D"/>
<path d="M201.35 200.393C185.904 187.141 152.07 184.933 151.776 184.933C151.482 184.933 151.335 184.638 151.335 184.491C151.335 184.196 151.629 184.049 151.776 184.049C152.07 184.049 186.346 186.258 201.645 199.656C201.792 199.804 201.792 200.098 201.645 200.393C201.645 200.393 201.497 200.393 201.35 200.393Z" fill="#2E303D"/>
<path d="M212.383 209.669C211.941 209.521 211.794 209.227 211.941 208.933C221.797 189.939 206.793 156.81 197.525 141.939C195.172 138.11 192.524 134.135 189.434 130.454C186.64 127.215 182.962 125.153 178.696 122.945C178.402 122.798 178.402 122.503 178.549 122.356C178.696 122.061 178.99 122.061 179.137 122.209C183.256 124.417 187.228 126.626 190.023 130.012C193.112 133.693 195.76 137.669 198.114 141.497C208.117 157.546 222.533 189.939 212.53 209.374C212.677 209.669 212.53 209.669 212.383 209.669Z" fill="#2E303D"/>
<path d="M114.853 149.448C114.412 149.301 114.265 149.006 114.412 148.859C114.559 148.417 114.706 147.975 115 147.681C122.208 130.896 131.917 121.62 144.568 118.969C145.598 118.822 148.54 118.233 148.54 118.233L148.687 119.117C148.687 119.117 145.745 119.558 144.715 119.853C132.211 122.356 123.091 131.337 115.883 147.975C115.736 148.417 115.588 148.859 115.294 149.153C115.147 149.301 115 149.448 114.853 149.448Z" fill="#2E303D"/>
<path d="M147.657 111.018C146.627 111.018 145.745 110.871 144.862 110.577C142.802 109.988 141.479 108.515 140.743 106.16C139.566 102.479 139.566 98.6503 139.713 94.9693C139.713 92.4663 139.86 90.5521 139.86 88.4908L140.008 85.3988C140.155 84.9571 140.449 84.8098 140.596 84.8098C140.89 84.9571 141.037 85.1043 140.89 85.3988L140.743 88.4908C140.743 90.4049 140.596 92.4663 140.596 94.3804C140.596 98.5031 140.449 102.331 141.626 105.718C142.361 107.779 143.391 109.104 145.156 109.546C146.186 109.84 147.363 109.988 148.981 109.84C150.599 109.693 152.806 109.399 154.424 109.104C154.718 109.104 154.865 109.252 155.012 109.546C155.012 109.84 154.865 109.988 154.571 110.135C152.953 110.429 150.599 110.724 149.128 110.871C148.54 111.018 148.098 111.018 147.657 111.018Z" fill="#2E303D"/>
<path d="M160.602 92.4663C147.951 90.1104 144.127 82.454 142.95 78.6258C142.509 80.5399 141.773 83.1902 141.038 85.3988C140.89 85.6933 140.743 85.8405 140.449 85.6933C140.155 85.546 140.008 85.3988 140.155 85.1043C141.332 81.5706 142.509 76.4172 142.509 76.4172C142.509 76.1227 142.803 76.1227 142.95 75.9755C143.244 75.9755 143.391 76.1227 143.391 76.4172C143.391 76.8589 144.715 88.4908 160.602 91.4356C160.897 91.4356 161.044 91.7301 161.044 92.0245C161.044 92.319 160.749 92.4663 160.602 92.4663Z" fill="#2E303D"/>
<path d="M152.364 90.5521C151.923 90.5521 151.776 90.6994 151.629 92.0245C151.482 93.4969 151.923 93.7914 152.217 93.7914C152.511 93.7914 152.953 93.3497 152.953 92.1718C152.806 91.1411 152.806 90.6994 152.364 90.5521Z" fill="#2E303D"/>
<path d="M141.92 89.9632C141.479 89.9632 141.332 90.1104 141.185 91.4356C141.038 92.908 141.332 93.2025 141.773 93.2025C142.067 93.2025 142.509 92.7608 142.509 91.7301C142.362 90.5522 142.362 90.1104 141.92 89.9632Z" fill="#2E303D"/>
<path d="M140.449 87.3129C139.861 87.0184 140.008 86.724 140.155 86.4295C140.743 85.9878 141.773 85.2516 143.833 85.8405C144.127 85.8405 144.274 86.135 144.127 86.4295C144.127 86.724 143.833 86.8712 143.538 86.724C141.92 86.2822 141.332 86.724 140.743 87.1657C140.743 87.3129 140.596 87.3129 140.449 87.3129Z" fill="#2E303D"/>
<path d="M150.746 129.718C147.51 128.54 147.804 120.147 147.951 118.528L147.51 110.577C147.51 110.282 147.657 110.135 147.951 110.135C148.245 110.135 148.392 110.282 148.392 110.577L148.834 118.528C148.539 122.209 148.834 128.098 150.452 128.687C151.923 129.276 155.6 125.595 157.807 122.798C157.954 122.65 158.248 122.503 158.543 122.65C158.69 122.798 158.837 123.092 158.69 123.387C157.66 124.564 153.394 129.718 150.746 129.718Z" fill="#2E303D"/>
<path d="M142.95 119.558C138.978 114.258 143.685 109.399 143.685 109.399C143.832 109.252 144.127 109.252 144.421 109.399C144.568 109.546 144.568 109.84 144.421 110.135C144.274 110.282 140.302 114.552 143.391 118.969C143.538 119.117 143.538 119.411 143.244 119.558C143.244 119.558 143.097 119.558 142.95 119.558Z" fill="#2E303D"/>
<path d="M166.34 126.331C163.986 126.331 161.632 125.89 159.573 124.712C156.337 122.798 154.424 119.117 154.13 113.963C153.689 107.337 158.249 102.184 160.75 100.27C160.897 100.123 161.191 100.123 161.338 100.417C161.485 100.564 161.485 100.859 161.191 101.006C158.837 102.626 154.571 107.485 154.865 113.816C155.16 118.675 156.778 122.061 159.867 123.828C166.781 127.804 178.549 122.356 178.549 122.209C178.843 122.061 179.138 122.209 179.138 122.356C179.285 122.65 179.138 122.945 178.991 122.945C178.843 123.386 172.518 126.331 166.34 126.331Z" fill="#2E303D"/>
<path d="M182.227 190.675C181.932 190.675 181.785 190.38 181.785 190.086C183.403 173.742 174.283 146.503 174.136 146.209C173.989 145.914 174.136 145.767 174.43 145.62C174.724 145.472 174.871 145.62 175.018 145.914C175.166 146.209 184.286 173.595 182.668 190.086C182.668 190.38 182.521 190.675 182.227 190.675Z" fill="#2E303D"/>
<path d="M148.098 103.362C147.657 103.362 147.216 103.362 146.627 103.215C146.333 103.215 146.186 102.92 146.333 102.626C146.333 102.331 146.627 102.184 146.922 102.331C147.951 102.626 148.834 102.479 149.422 102.037C150.452 101.301 150.599 99.681 150.599 99.681C150.599 99.3865 150.746 99.2393 151.188 99.2393C151.482 99.2393 151.629 99.5337 151.629 99.8282C151.629 99.9755 151.482 101.89 150.011 102.773C149.422 103.215 148.834 103.362 148.098 103.362Z" fill="#2E303D"/>
<path d="M191.2 77.7423H175.018C174.724 77.7423 174.577 77.5951 174.577 77.3006C174.577 77.0061 174.724 76.8589 175.018 76.8589H191.2C191.494 76.8589 191.641 77.0061 191.641 77.3006C191.641 77.5951 191.494 77.7423 191.2 77.7423Z" fill="white"/>
<path d="M140.155 77.7423H132.947C122.061 77.7423 113.235 68.908 113.235 58.0123V25.3252C113.235 14.4295 122.061 5.59509 132.947 5.59509H202.233C213.119 5.59509 221.945 14.4295 221.945 25.3252V58.0123C221.945 58.3068 221.798 58.454 221.504 58.454C221.209 58.454 221.062 58.3068 221.062 58.0123V25.3252C221.062 15.0184 212.677 6.62577 202.233 6.62577H132.947C122.65 6.62577 114.265 15.0184 114.265 25.3252V58.0123C114.265 68.319 122.65 76.7117 132.947 76.7117H140.155C140.449 76.7117 140.596 76.8589 140.596 77.1534C140.596 77.5951 140.449 77.7423 140.155 77.7423Z" fill="white"/>
<path d="M62.0426 178.454C59.3948 178.454 56.4527 176.393 54.3932 173.153C51.8924 168.883 52.1867 164.025 55.1287 162.258C56.5998 161.374 58.365 161.522 60.2774 162.405C62.0426 163.288 63.8079 164.908 64.9847 166.969C67.4855 171.239 67.1913 176.098 64.2492 177.865C63.6608 178.16 62.9253 178.454 62.0426 178.454ZM57.4824 162.552C56.894 162.552 56.3056 162.699 55.7172 162.994C53.2164 164.466 53.0693 168.736 55.2758 172.564C57.4824 176.393 61.3071 178.454 63.8079 176.982C66.3087 175.509 66.4558 171.239 64.2492 167.411C63.2195 165.497 61.6013 164.025 59.9832 163.141C59.1006 162.699 58.365 162.552 57.4824 162.552Z" fill="white"/>
<path d="M275.729 210.11H253.423C253.228 210.11 253.131 209.963 253.131 209.669C253.131 209.374 253.228 209.227 253.423 209.227H275.729C275.924 209.227 276.022 209.374 276.022 209.669C276.022 209.963 275.924 210.11 275.729 210.11Z" fill="white"/>
<path d="M230.52 210.11H0.398364C0.132788 210.11 0 209.963 0 209.669C0 209.374 0.132788 209.227 0.398364 209.227H230.52C230.785 209.227 230.918 209.374 230.918 209.669C230.918 209.963 230.785 210.11 230.52 210.11Z" fill="white"/>
<path d="M118.089 210.11C117.795 210.11 117.648 209.963 117.648 209.669C117.648 209.374 117.795 209.227 118.089 209.227C121.767 209.227 125.15 207.46 127.357 204.515C129.563 201.571 130.152 197.742 128.975 194.209L110.587 138.552C108.969 133.841 104.703 130.748 99.8481 130.748H22.1771C21.2945 130.748 20.4118 130.896 19.6763 131.043C19.3821 131.043 19.235 130.896 19.0879 130.748C19.0879 130.454 19.235 130.307 19.3821 130.16C20.2647 130.012 21.1474 129.865 22.1771 129.865H99.701C104.997 129.865 109.704 133.252 111.469 138.258L129.857 193.767C131.181 197.595 130.446 201.571 128.092 204.81C125.738 208.196 122.061 210.11 118.089 210.11Z" fill="white"/>
<path d="M112.793 210.11H35.2694C29.9736 210.11 25.2663 206.871 23.5011 202.012L5.11303 148.859C3.9362 145.325 4.37751 141.497 6.58407 138.405C8.93774 135.166 12.7624 133.252 16.7343 133.252H94.2581C99.5539 133.252 104.261 136.491 106.026 141.35L124.415 194.503C125.591 198.037 125.15 201.865 122.943 204.957C120.737 208.196 116.912 210.11 112.793 210.11ZM16.8814 134.282C13.0567 134.282 9.52616 136.049 7.4667 138.994C5.40724 141.791 4.96593 145.325 6.14276 148.564L24.5308 201.718C26.1489 206.135 30.415 209.227 35.2694 209.227H112.793C116.618 209.227 120.148 207.46 122.208 204.515C124.267 201.718 124.709 198.184 123.532 194.945L105.291 141.644C103.673 137.227 99.4068 134.135 94.5524 134.135H16.8814V134.282Z" fill="white"/>
<path d="M140.89 210.11C139.125 210.11 137.801 209.669 137.36 208.638C136.183 206.724 137.801 203.779 138.978 201.423C139.272 200.982 139.419 200.393 139.714 200.098C139.861 199.656 140.155 199.215 140.302 198.626C141.626 195.239 143.538 190.233 150.452 191.411C150.894 191.558 158.543 193.62 163.103 197.006C163.25 197.153 163.397 197.448 163.25 197.595C163.103 197.742 162.809 197.89 162.662 197.742C158.102 194.503 150.305 192.442 150.305 192.295C144.127 191.264 142.509 195.681 141.185 198.92C140.89 199.509 140.743 200.098 140.596 200.54C140.449 200.982 140.155 201.423 139.861 201.865C138.831 203.926 137.36 206.871 138.095 208.196C138.537 208.785 139.419 209.227 140.89 209.227C147.216 209.227 148.246 201.276 148.246 201.276C148.246 200.982 148.393 200.834 148.687 200.834C148.981 200.834 149.128 200.982 149.128 201.276C149.128 202.307 147.51 210.11 140.89 210.11Z" fill="#2E303D"/>
<path d="M135.3 210.11C131.476 209.816 130.152 208.491 129.71 207.46C129.122 205.988 129.858 204.368 130.74 203.485C131.476 202.748 132.211 200.834 132.947 198.773C133.977 195.975 135.3 192.736 137.066 190.969C140.155 187.583 146.627 191.117 146.922 191.264C147.216 191.411 147.216 191.706 147.069 191.853C146.922 192.147 146.627 192.147 146.48 192C146.48 192 140.449 188.613 137.801 191.411C136.183 193.178 135.006 196.27 133.977 198.92C133.094 201.129 132.358 203.043 131.623 203.926C131.034 204.663 130.299 205.841 130.74 207.018C131.182 208.196 132.8 208.933 135.448 209.08C135.742 209.08 135.889 209.374 135.889 209.521C135.742 209.963 135.448 210.11 135.3 210.11Z" fill="#2E303D"/>
<path d="M157.513 210.11C148.54 209.669 147.951 202.748 147.951 202.748C147.951 202.454 148.098 202.307 148.392 202.307C148.687 202.307 148.834 202.454 148.834 202.748C148.834 203.043 149.422 208.933 157.072 209.227C157.513 209.227 157.954 209.227 158.396 209.227C158.69 209.227 158.837 209.374 158.984 209.669C158.984 209.963 158.837 210.11 158.543 210.258C158.248 210.11 157.807 210.11 157.513 210.11Z" fill="#2E303D"/>
<path d="M157.219 210.11C156.631 209.669 156.778 209.374 156.925 209.227C161.191 206.429 163.25 201.276 162.515 195.975C161.338 188.761 155.012 183.755 148.099 184.933C145.892 185.227 142.509 186.258 138.537 190.38C138.39 190.528 138.095 190.528 137.801 190.38C137.654 190.233 137.654 189.939 137.801 189.644C141.92 185.227 145.598 184.196 147.951 183.902C155.307 182.724 162.221 188.025 163.397 195.828C164.28 201.423 161.926 207.018 157.366 209.963C157.366 210.11 157.366 210.11 157.219 210.11Z" fill="#2E303D"/>
<path d="M129.122 193.472C128.681 193.325 128.534 193.178 128.681 192.883C128.681 192.736 129.563 189.791 131.77 188.761C134.712 187.583 137.948 190.233 138.095 190.38C138.242 190.528 138.39 190.822 138.095 191.117C137.948 191.264 137.654 191.411 137.36 191.117C137.36 191.117 134.418 188.761 132.064 189.644C130.152 190.38 129.416 193.031 129.416 193.031C129.563 193.325 129.416 193.472 129.122 193.472Z" fill="#2E303D"/>
<path d="M126.621 209.669C125.739 209.669 124.856 209.521 123.826 208.785C123.532 208.638 123.532 208.344 123.679 208.196C123.826 207.902 124.12 207.902 124.268 208.049C127.651 209.963 129.858 207.313 129.858 207.313C130.005 207.166 130.299 207.018 130.593 207.313C130.74 207.46 130.887 207.755 130.593 208.049C130.593 207.755 129.122 209.669 126.621 209.669Z" fill="#2E303D"/>
<path d="M167.075 104.393H166.045C162.515 104.393 159.72 100.417 159.72 95.411C159.72 90.4049 162.515 86.4294 166.045 86.4294H166.781C167.075 86.4294 167.222 86.5767 167.222 86.8712C167.222 87.1656 167.075 87.3129 166.781 87.3129H166.045C163.103 87.3129 160.602 90.8466 160.602 95.2638C160.602 99.681 162.956 103.215 166.045 103.215H167.075C167.369 103.215 167.516 103.362 167.516 103.656C167.516 104.098 167.222 104.393 167.075 104.393Z" fill="#2E303D"/>
<path d="M167.222 104.393C164.427 104.393 162.22 100.417 162.22 95.411C162.22 90.4049 164.427 86.4294 167.222 86.4294C170.017 86.4294 172.223 90.4049 172.223 95.411C172.223 100.417 170.017 104.393 167.222 104.393ZM167.222 87.3129C165.015 87.3129 163.103 90.9939 163.103 95.2638C163.103 99.681 165.015 103.215 167.222 103.215C169.428 103.215 171.341 99.5337 171.341 95.2638C171.341 90.9939 169.428 87.3129 167.222 87.3129Z" fill="#2E303D"/>
<path d="M140.155 102.92C138.096 101.301 137.213 98.7975 137.213 95.411C137.213 92.1718 138.096 89.6687 139.861 88.1963C140.008 88.0491 140.302 88.0491 140.596 88.1963C140.743 88.3435 140.743 88.638 140.596 88.9325C139.125 90.2577 138.243 92.6135 138.243 95.5583C138.243 98.6503 138.978 101.006 140.596 102.331C140.743 102.479 140.743 102.773 140.596 103.067C140.449 102.92 140.302 102.92 140.155 102.92Z" fill="#14141C"/>
<path d="M164.28 87.3129C163.985 87.3129 163.838 87.0184 163.838 86.8712C163.985 82.6013 162.809 79.2148 160.455 76.5644C156.042 71.8528 148.834 71.5583 148.834 71.5583C148.687 70.6749 152.07 68.1718 156.777 70.0859C157.807 70.2332 168.693 72 168.104 86.8712C168.104 87.1657 167.957 87.3129 167.663 87.3129C167.369 87.3129 167.222 87.0184 167.222 86.8712C167.663 72.2945 156.777 71.1166 156.63 71.1166C153.982 70.0859 151.776 70.3804 150.599 70.8221C153.1 71.1166 157.807 72.2945 161.338 75.9755C163.985 78.773 165.162 82.454 165.015 86.8712C164.721 87.0184 164.574 87.3129 164.28 87.3129Z" fill="#2E303D"/>
<path d="M131.034 190.38C122.649 161.08 128.975 143.117 128.975 142.969C129.122 142.675 129.269 142.528 129.563 142.675C129.857 142.822 130.005 142.969 129.857 143.264C129.857 143.411 123.532 161.227 131.476 189.791C131.476 190.086 131.328 190.233 131.034 190.38Z" fill="#2E303D"/>
<path d="M12.7627 134.871C12.1743 134.429 12.3214 134.135 12.4685 133.988L19.2353 130.159C19.5295 130.012 19.6766 130.159 19.8237 130.307C19.9708 130.601 19.8237 130.748 19.6766 130.896L12.9098 134.724C12.9098 134.871 12.7627 134.871 12.7627 134.871Z" fill="white"/>
<path d="M191.2 110.577C190.759 110.135 190.759 69.4969 190.759 69.4969C190.759 63.1656 195.907 58.0122 202.233 58.0122H262.693C269.018 58.0122 274.167 63.1656 274.167 69.4969V85.9877C274.167 92.319 269.018 97.4723 262.693 97.4723H204.587L191.494 110.577C191.494 110.577 191.347 110.577 191.2 110.577ZM202.233 59.0429C196.496 59.0429 191.789 63.7545 191.789 69.4969V108.957L204.145 96.5889C204.439 96.4417 262.693 96.4417 262.693 96.4417C268.43 96.4417 273.137 91.73 273.137 85.9877V69.4969C273.137 63.7545 268.43 59.0429 262.693 59.0429H202.233Z" fill="white"/>
<path d="M232.389 82.7485C229.3 82.7485 226.946 80.2454 226.946 77.3006C226.946 74.2086 229.447 71.8528 232.389 71.8528C235.478 71.8528 237.832 74.3558 237.832 77.3006C237.979 80.2454 235.478 82.7485 232.389 82.7485ZM232.389 72.7362C229.888 72.7362 227.829 74.7976 227.829 77.3006C227.829 79.8037 229.888 81.865 232.389 81.865C234.89 81.865 236.949 79.8037 236.949 77.3006C236.949 74.7976 234.89 72.7362 232.389 72.7362Z" fill="#2E303D"/>
<path d="M208.558 82.7485C205.469 82.7485 203.115 80.2454 203.115 77.3006C203.115 74.2086 205.616 71.8528 208.558 71.8528C211.647 71.8528 214.001 74.3558 214.001 77.3006C214.001 80.2454 211.5 82.7485 208.558 82.7485ZM208.558 72.7362C206.057 72.7362 203.998 74.7976 203.998 77.3006C203.998 79.8037 206.057 81.865 208.558 81.865C211.059 81.865 213.118 79.8037 213.118 77.3006C212.971 74.7976 211.059 72.7362 208.558 72.7362Z" fill="#2E303D"/>
<path d="M257.397 82.7485C254.308 82.7485 251.954 80.2454 251.954 77.3006C251.954 74.2086 254.455 71.8528 257.397 71.8528C260.486 71.8528 262.84 74.3558 262.84 77.3006C262.84 80.2454 260.339 82.7485 257.397 82.7485ZM257.397 72.7362C254.896 72.7362 252.837 74.7976 252.837 77.3006C252.837 79.8037 254.896 81.865 257.397 81.865C259.898 81.865 261.957 79.8037 261.957 77.3006C261.81 74.7976 259.898 72.7362 257.397 72.7362Z" fill="#2E303D"/>
<path d="M100.731 118.967H59.2475C58.9533 118.967 58.8062 118.82 58.8062 118.526C58.8062 118.231 58.9533 118.084 59.2475 118.084H99.9954L89.9923 89.6666H48.8031C48.5089 89.6666 48.3618 89.5194 48.3618 89.2249C48.3618 88.9304 48.5089 88.7832 48.8031 88.7832H90.2865C90.7278 89.0777 101.025 118.378 101.025 118.378C101.025 118.967 100.878 118.967 100.731 118.967Z" fill="white"/>
<path d="M59.246 118.969C58.8047 118.675 48.5074 89.3743 48.5074 89.3743C48.3603 89.0798 48.5074 88.7853 48.8016 88.7853C49.0958 88.6381 49.2429 88.7853 49.39 89.0798L59.6874 118.38C59.8345 118.675 59.6874 118.969 59.3931 118.969C59.3931 118.969 59.3931 118.969 59.246 118.969Z" fill="white"/>
<path d="M51.1569 95.8528H27.4731C27.1788 95.8528 27.0317 95.7055 27.0317 95.411C27.0317 95.1165 27.1788 94.9693 27.4731 94.9693H51.1569C51.4511 94.9693 51.5982 95.1165 51.5982 95.411C51.5982 95.5583 51.304 95.8528 51.1569 95.8528Z" fill="white"/>
<path d="M56.4523 89.6666C56.011 89.3721 50.4211 73.7648 50.4211 73.7648H19.5292C19.235 73.7648 19.0879 73.6175 19.0879 73.3231C19.0879 73.0286 19.235 72.8813 19.5292 72.8813H50.8624C51.3037 73.1758 56.8937 89.0777 56.8937 89.0777C57.0408 89.3721 56.8937 89.6666 56.5995 89.6666C56.5995 89.6666 56.5994 89.6666 56.4523 89.6666Z" fill="white"/>
<path d="M27.4713 95.8528C27.03 95.5583 19.2335 73.4724 19.2335 73.4724C19.0864 73.1779 19.2335 72.8834 19.5277 72.8834C19.8219 72.7362 20.1161 72.8834 20.1161 73.1779L27.9126 95.2638C28.0597 95.5583 27.9126 95.8528 27.6184 95.8528C27.4713 95.8528 27.4713 95.8528 27.4713 95.8528Z" fill="white"/>
<path d="M86.7562 101.301H60.5717C60.2775 101.301 60.1304 101.153 60.1304 100.859C60.1304 100.564 60.2775 100.417 60.5717 100.417H86.9033C87.1975 100.417 87.3446 100.564 87.3446 100.859C87.3446 101.153 87.0504 101.301 86.7562 101.301Z" fill="#2E303D"/>
<path d="M88.9624 107.337H62.6308C62.3366 107.337 62.1895 107.19 62.1895 106.896C62.1895 106.601 62.3366 106.454 62.6308 106.454H88.9624C89.2566 106.454 89.4037 106.601 89.4037 106.896C89.4037 107.043 89.2566 107.337 88.9624 107.337Z" fill="#2E303D"/>
<path d="M43.0662 123.828C41.301 122.65 39.977 121.472 38.6531 120.147C38.506 120 38.506 119.706 38.6531 119.411C38.8002 119.264 39.0944 119.264 39.3886 119.411C40.7125 120.736 42.0365 121.914 43.5075 122.945C43.6546 123.092 43.8017 123.387 43.6546 123.534C43.3604 123.828 43.2133 123.828 43.0662 123.828ZM35.4168 116.172C33.9457 114.552 32.916 112.933 32.0334 111.313C31.8863 111.018 32.0334 110.871 32.1805 110.724C32.4747 110.577 32.7689 110.724 32.7689 110.871C33.6515 112.491 34.6813 113.963 35.711 115.436C35.8581 115.583 35.8581 115.877 35.5639 116.025C35.5639 116.172 35.5639 116.172 35.4168 116.172ZM30.121 106.748C29.2384 105.423 28.9442 104.393 28.65 103.362C28.5029 103.068 28.65 102.92 28.9442 102.773C29.2384 102.626 29.3855 102.773 29.5326 103.068C29.8268 104.098 30.2681 105.129 30.5623 106.16C30.7095 106.454 30.5623 106.748 30.2681 106.748C30.2681 106.748 30.2681 106.748 30.121 106.748Z" fill="white"/>
<path d="M144.715 99.8282C143.832 99.8282 143.097 99.5337 142.508 98.7975C141.92 98.0613 141.626 97.1779 142.067 96.1472C142.508 94.9693 143.391 94.9693 143.832 95.1165C144.421 94.3803 144.715 91.5828 144.715 89.8159C144.715 89.5214 145.009 89.3742 145.156 89.3742C145.45 89.3742 145.597 89.6687 145.597 89.8159C145.597 90.2576 145.303 94.3803 145.009 95.2638C144.715 96 143.979 96 143.685 95.8527C143.244 95.8527 143.097 95.8527 142.95 96.2945C142.802 96.8834 142.803 97.4724 143.244 98.0613C143.685 98.6503 144.421 98.7975 145.156 98.6503C145.45 98.6503 145.597 98.7975 145.745 99.092C145.745 99.3865 145.597 99.5337 145.303 99.681C145.009 99.8282 144.862 99.8282 144.715 99.8282Z" fill="#2E303D"/>
<path d="M126.896 25H129.99C131.201 25 132.217 24.6484 133.037 23.9453C133.857 23.2422 134.268 22.2578 134.268 20.9922V20.4766C134.268 19.207 133.857 18.2227 133.037 17.5234C132.217 16.8203 131.201 16.4688 129.99 16.4688H126.896V25ZM129.023 23.4824V17.9922H129.961C130.586 17.9922 131.094 18.1973 131.484 18.6074C131.875 19.0137 132.07 19.625 132.07 20.4414V21.0273C132.07 21.8438 131.875 22.457 131.484 22.8672C131.094 23.2773 130.586 23.4824 129.961 23.4824H129.023ZM126.023 21.625H129.961V20.0547H126.023V21.625ZM135.252 21.9414C135.252 22.918 135.559 23.7031 136.172 24.2969C136.785 24.8867 137.623 25.1816 138.686 25.1816C139.357 25.1816 139.945 25.0605 140.449 24.8184C140.957 24.5762 141.311 24.2598 141.51 23.8691L140.051 22.9199C139.906 23.1309 139.715 23.3184 139.477 23.4824C139.242 23.6465 138.967 23.7285 138.65 23.7285C138.213 23.7285 137.879 23.5801 137.648 23.2832C137.418 22.9824 137.303 22.5684 137.303 22.041V21.6484C137.303 21.1094 137.408 20.6895 137.619 20.3887C137.834 20.084 138.131 19.9316 138.51 19.9316C138.885 19.9316 139.162 20.0469 139.342 20.2773C139.525 20.5078 139.617 20.7598 139.617 21.0332L139.623 21.1504H136.729V22.3691H141.674V21.6484C141.674 20.6719 141.395 19.9062 140.836 19.3516C140.281 18.7969 139.52 18.5195 138.551 18.5195C137.594 18.5195 136.805 18.8145 136.184 19.4043C135.562 19.9941 135.252 20.7773 135.252 21.7539V21.9414ZM139.025 15.373H138.047L136.201 17.7344H137.695L138.533 16.832L139.389 17.7344H140.895L139.025 15.373ZM140.121 15.9648H141.082V15.7715C141.617 15.7285 142.021 15.5859 142.295 15.3438C142.568 15.0977 142.705 14.7676 142.705 14.3535C142.705 13.959 142.572 13.6465 142.307 13.416C142.041 13.1816 141.652 13.0645 141.141 13.0645C140.793 13.0645 140.455 13.1074 140.127 13.1934C139.799 13.2754 139.561 13.3555 139.412 13.4336L139.822 14.3711C139.869 14.3359 140.008 14.2852 140.238 14.2188C140.473 14.1484 140.682 14.1133 140.865 14.1133C141.018 14.1133 141.137 14.1387 141.223 14.1895C141.309 14.2402 141.352 14.3203 141.352 14.4297C141.352 14.543 141.32 14.625 141.258 14.6758C141.199 14.7227 141.092 14.7559 140.936 14.7754C140.666 14.8066 140.463 14.9004 140.326 15.0566C140.189 15.209 140.121 15.4316 140.121 15.7246V15.9648ZM144.879 25H146.76L148.57 22.2871H148.934L151.254 18.7012H149.373L147.768 21.2734H147.387L144.879 25ZM145.061 18.7012L147.457 22.3105H147.469L149.15 25H151.541L149.092 21.2617H149.08L147.457 18.7012H145.061ZM151.928 21.9414C151.928 22.918 152.234 23.7031 152.848 24.2969C153.461 24.8867 154.299 25.1816 155.361 25.1816C156.033 25.1816 156.621 25.0605 157.125 24.8184C157.633 24.5762 157.986 24.2598 158.186 23.8691L156.727 22.9199C156.582 23.1309 156.391 23.3184 156.152 23.4824C155.918 23.6465 155.643 23.7285 155.326 23.7285C154.889 23.7285 154.555 23.5801 154.324 23.2832C154.094 22.9824 153.979 22.5684 153.979 22.041V21.6484C153.979 21.1094 154.084 20.6895 154.295 20.3887C154.51 20.084 154.807 19.9316 155.186 19.9316C155.561 19.9316 155.838 20.0469 156.018 20.2773C156.201 20.5078 156.293 20.7598 156.293 21.0332L156.299 21.1504H153.404V22.3691H158.35V21.6484C158.35 20.6719 158.07 19.9062 157.512 19.3516C156.957 18.7969 156.195 18.5195 155.227 18.5195C154.27 18.5195 153.48 18.8145 152.859 19.4043C152.238 19.9941 151.928 20.7773 151.928 21.7539V21.9414ZM159.393 25H161.473V20.8926C161.574 20.6309 161.713 20.4336 161.889 20.3008C162.064 20.1641 162.273 20.0957 162.516 20.0957C162.797 20.0957 163.008 20.1855 163.148 20.3652C163.289 20.541 163.361 20.8125 163.365 21.1797V25H165.445V20.8926C165.551 20.6387 165.693 20.4434 165.873 20.3066C166.057 20.166 166.27 20.0957 166.512 20.0957C166.785 20.0996 166.99 20.1895 167.127 20.3652C167.264 20.5371 167.334 20.8008 167.338 21.1562V25H169.418V21.2734C169.418 20.3047 169.213 19.6133 168.803 19.1992C168.396 18.7852 167.871 18.5781 167.227 18.5781C166.812 18.5781 166.406 18.6738 166.008 18.8652C165.613 19.0566 165.316 19.3262 165.117 19.6738H165.1C164.951 19.3262 164.709 19.0566 164.373 18.8652C164.037 18.6738 163.641 18.5781 163.184 18.5781C162.836 18.5781 162.504 18.6465 162.188 18.7832C161.875 18.916 161.631 19.1172 161.455 19.3867H161.42L161.385 18.7012H159.393V25ZM173.396 22.9609V23.0488C173.396 23.7285 173.662 24.2539 174.193 24.625C174.729 24.9922 175.479 25.1758 176.443 25.1758C177.424 25.1758 178.168 24.9902 178.676 24.6191C179.188 24.248 179.443 23.7305 179.443 23.0664C179.443 22.543 179.273 22.125 178.934 21.8125C178.598 21.4961 178.037 21.2695 177.252 21.1328C176.475 21 176.008 20.8828 175.852 20.7812C175.695 20.6758 175.617 20.5391 175.617 20.3711C175.617 20.2109 175.68 20.084 175.805 19.9902C175.934 19.8965 176.143 19.8496 176.432 19.8496C176.725 19.8496 176.941 19.916 177.082 20.0488C177.223 20.1777 177.293 20.3555 177.293 20.582V20.6934H179.332V20.5996C179.332 19.9629 179.068 19.457 178.541 19.082C178.018 18.7031 177.318 18.5137 176.443 18.5137C175.561 18.5137 174.863 18.6934 174.352 19.0527C173.84 19.4082 173.584 19.8984 173.584 20.5234C173.584 21.0156 173.746 21.4277 174.07 21.7598C174.395 22.0918 174.951 22.3262 175.74 22.4629C176.482 22.5957 176.938 22.707 177.105 22.7969C177.277 22.8828 177.363 23.0254 177.363 23.2246C177.363 23.4277 177.289 23.584 177.141 23.6934C176.996 23.7988 176.762 23.8516 176.438 23.8516C176.129 23.8516 175.885 23.791 175.705 23.6699C175.529 23.5488 175.441 23.3555 175.441 23.0898V22.9668L173.396 22.9609ZM180.621 25H182.701V18.7012H180.621V25ZM180.469 17.0781C180.469 17.3828 180.57 17.6387 180.773 17.8457C180.98 18.0488 181.275 18.1504 181.658 18.1504C182.041 18.1504 182.336 18.0488 182.543 17.8457C182.75 17.6387 182.854 17.3848 182.854 17.084C182.854 16.7832 182.75 16.5312 182.543 16.3281C182.34 16.1211 182.045 16.0176 181.658 16.0176C181.275 16.0176 180.98 16.1191 180.773 16.3223C180.57 16.5254 180.469 16.7773 180.469 17.0781ZM184.201 25H186.281V20.8926C186.383 20.6309 186.521 20.4336 186.697 20.3008C186.873 20.1641 187.082 20.0957 187.324 20.0957C187.605 20.0957 187.816 20.1855 187.957 20.3652C188.098 20.541 188.17 20.8125 188.174 21.1797V25H190.254V20.8926C190.359 20.6387 190.502 20.4434 190.682 20.3066C190.865 20.166 191.078 20.0957 191.32 20.0957C191.594 20.0996 191.799 20.1895 191.936 20.3652C192.072 20.5371 192.143 20.8008 192.146 21.1562V25H194.227V21.2734C194.227 20.3047 194.021 19.6133 193.611 19.1992C193.205 18.7852 192.68 18.5781 192.035 18.5781C191.621 18.5781 191.215 18.6738 190.816 18.8652C190.422 19.0566 190.125 19.3262 189.926 19.6738H189.908C189.76 19.3262 189.518 19.0566 189.182 18.8652C188.846 18.6738 188.449 18.5781 187.992 18.5781C187.645 18.5781 187.312 18.6465 186.996 18.7832C186.684 18.916 186.439 19.1172 186.264 19.3867H186.229L186.193 18.7012H184.201V25ZM126.744 39H128.824V34.8926C128.926 34.6309 129.064 34.4336 129.24 34.3008C129.416 34.1641 129.625 34.0957 129.867 34.0957C130.148 34.0957 130.359 34.1855 130.5 34.3652C130.641 34.541 130.713 34.8125 130.717 35.1797V39H132.797V34.8926C132.902 34.6387 133.045 34.4434 133.225 34.3066C133.408 34.166 133.621 34.0957 133.863 34.0957C134.137 34.0996 134.342 34.1895 134.479 34.3652C134.615 34.5371 134.686 34.8008 134.689 35.1562V39H136.77V35.2734C136.77 34.3047 136.564 33.6133 136.154 33.1992C135.748 32.7852 135.223 32.5781 134.578 32.5781C134.164 32.5781 133.758 32.6738 133.359 32.8652C132.965 33.0566 132.668 33.3262 132.469 33.6738H132.451C132.303 33.3262 132.061 33.0566 131.725 32.8652C131.389 32.6738 130.992 32.5781 130.535 32.5781C130.188 32.5781 129.855 32.6465 129.539 32.7832C129.227 32.916 128.982 33.1172 128.807 33.3867H128.771L128.736 32.7012H126.744V39ZM137.877 35.9414C137.877 36.9336 138.193 37.7207 138.826 38.3027C139.463 38.8848 140.289 39.1758 141.305 39.1758C142.316 39.1758 143.139 38.8848 143.771 38.3027C144.408 37.7207 144.727 36.9336 144.727 35.9414V35.7539C144.727 34.7578 144.408 33.9707 143.771 33.3926C143.139 32.8105 142.316 32.5195 141.305 32.5195C140.289 32.5195 139.463 32.8105 138.826 33.3926C138.193 33.9707 137.877 34.7578 137.877 35.7539V35.9414ZM140.004 35.6484C140.004 35.1016 140.119 34.6953 140.35 34.4297C140.584 34.1641 140.902 34.0312 141.305 34.0312C141.699 34.0312 142.012 34.1641 142.242 34.4297C142.477 34.6953 142.594 35.0996 142.594 35.6426V36.0469C142.594 36.5977 142.48 37.0059 142.254 37.2715C142.027 37.5371 141.711 37.6699 141.305 37.6699C140.895 37.6699 140.574 37.5371 140.344 37.2715C140.117 37.0059 140.004 36.5977 140.004 36.0469V35.6484ZM142.506 32.7012V33.709C142.623 33.752 142.764 33.7891 142.928 33.8203C143.096 33.8516 143.285 33.8672 143.496 33.8672C143.938 33.8672 144.318 33.7617 144.639 33.5508C144.963 33.3398 145.125 33.0156 145.125 32.5781C145.125 32.2617 145.088 31.9766 145.014 31.7227C144.939 31.4648 144.855 31.2539 144.762 31.0898H143.625C143.668 31.25 143.701 31.4121 143.725 31.5762C143.752 31.7363 143.766 31.9199 143.766 32.127C143.766 32.3574 143.691 32.5117 143.543 32.5898C143.398 32.6641 143.225 32.7012 143.021 32.7012H142.506ZM139.857 30.9258L141 31.7402L142.916 29.9121L141.398 28.9043L139.857 30.9258ZM145.91 39H147.99V32.7012H145.91V39ZM145.758 31.0781C145.758 31.3828 145.859 31.6387 146.062 31.8457C146.27 32.0488 146.564 32.1504 146.947 32.1504C147.33 32.1504 147.625 32.0488 147.832 31.8457C148.039 31.6387 148.143 31.3848 148.143 31.084C148.143 30.7832 148.039 30.5312 147.832 30.3281C147.629 30.1211 147.334 30.0176 146.947 30.0176C146.564 30.0176 146.27 30.1191 146.062 30.3223C145.859 30.5254 145.758 30.7773 145.758 31.0781ZM152.42 39H154.5V34.8926C154.602 34.6309 154.74 34.4336 154.916 34.3008C155.092 34.1641 155.301 34.0957 155.543 34.0957C155.824 34.0957 156.035 34.1855 156.176 34.3652C156.316 34.541 156.389 34.8125 156.393 35.1797V39H158.473V34.8926C158.578 34.6387 158.721 34.4434 158.9 34.3066C159.084 34.166 159.297 34.0957 159.539 34.0957C159.812 34.0996 160.018 34.1895 160.154 34.3652C160.291 34.5371 160.361 34.8008 160.365 35.1562V39H162.445V35.2734C162.445 34.3047 162.24 33.6133 161.83 33.1992C161.424 32.7852 160.898 32.5781 160.254 32.5781C159.84 32.5781 159.434 32.6738 159.035 32.8652C158.641 33.0566 158.344 33.3262 158.145 33.6738H158.127C157.979 33.3262 157.736 33.0566 157.4 32.8652C157.064 32.6738 156.668 32.5781 156.211 32.5781C155.863 32.5781 155.531 32.6465 155.215 32.7832C154.902 32.916 154.658 33.1172 154.482 33.3867H154.447L154.412 32.7012H152.42V39ZM163.822 36.4336C163.822 37.3984 164.033 38.0879 164.455 38.502C164.881 38.916 165.42 39.123 166.072 39.123C166.463 39.123 166.82 39.0547 167.145 38.918C167.469 38.7773 167.717 38.5801 167.889 38.3262H167.918L167.959 39H169.945V32.7012H167.871V36.8262C167.777 37.0449 167.633 37.2305 167.438 37.3828C167.242 37.5312 167.023 37.6055 166.781 37.6055C166.516 37.6055 166.303 37.5254 166.143 37.3652C165.982 37.2051 165.902 36.916 165.902 36.498V32.7012H163.822V36.4336ZM171.135 37.1484C171.135 37.8086 171.352 38.3008 171.785 38.625C172.219 38.9492 172.754 39.1113 173.391 39.1113C173.902 39.1113 174.334 39.0234 174.686 38.8477C175.037 38.668 175.27 38.4629 175.383 38.2324C175.398 38.3691 175.424 38.5098 175.459 38.6543C175.494 38.7949 175.533 38.9102 175.576 39H177.621V38.9062C177.543 38.75 177.48 38.5586 177.434 38.332C177.387 38.1055 177.363 37.8672 177.363 37.6172V34.6465C177.363 33.9199 177.107 33.3848 176.596 33.041C176.084 32.6973 175.379 32.5254 174.48 32.5254C173.586 32.5254 172.855 32.7129 172.289 33.0879C171.723 33.4629 171.439 33.9395 171.439 34.5176V34.6172H173.496V34.5176C173.496 34.3301 173.564 34.1738 173.701 34.0488C173.842 33.9199 174.076 33.8555 174.404 33.8555C174.732 33.8555 174.961 33.9277 175.09 34.0723C175.223 34.2168 175.289 34.4062 175.289 34.6406V34.998H174.17C173.299 35.002 172.574 35.1816 171.996 35.5371C171.422 35.8926 171.135 36.4297 171.135 37.1484ZM173.221 36.9844C173.221 36.7266 173.318 36.5312 173.514 36.3984C173.709 36.2617 174.012 36.1934 174.422 36.1934H175.289V36.6973C175.289 37.0059 175.176 37.2656 174.949 37.4766C174.727 37.6836 174.439 37.7871 174.088 37.7871C173.783 37.7871 173.562 37.7129 173.426 37.5645C173.289 37.416 173.221 37.2227 173.221 36.9844ZM181.881 39H183.961V34.8809C184.062 34.6309 184.213 34.4375 184.412 34.3008C184.615 34.1641 184.83 34.0957 185.057 34.0957C185.338 34.0957 185.553 34.1699 185.701 34.3184C185.854 34.4668 185.93 34.7266 185.93 35.0977V39H188.004V35.1562C188.004 34.1953 187.789 33.5254 187.359 33.1465C186.93 32.7637 186.377 32.5723 185.701 32.5723C185.318 32.5723 184.967 32.6465 184.646 32.7949C184.326 32.9434 184.092 33.1367 183.943 33.375H183.914L183.873 32.7012H181.881V39ZM189.135 37.1484C189.135 37.8086 189.352 38.3008 189.785 38.625C190.219 38.9492 190.754 39.1113 191.391 39.1113C191.902 39.1113 192.334 39.0234 192.686 38.8477C193.037 38.668 193.27 38.4629 193.383 38.2324C193.398 38.3691 193.424 38.5098 193.459 38.6543C193.494 38.7949 193.533 38.9102 193.576 39H195.621V38.9062C195.543 38.75 195.48 38.5586 195.434 38.332C195.387 38.1055 195.363 37.8672 195.363 37.6172V34.6465C195.363 33.9199 195.107 33.3848 194.596 33.041C194.084 32.6973 193.379 32.5254 192.48 32.5254C191.586 32.5254 190.855 32.7129 190.289 33.0879C189.723 33.4629 189.439 33.9395 189.439 34.5176V34.6172H191.496V34.5176C191.496 34.3301 191.564 34.1738 191.701 34.0488C191.842 33.9199 192.076 33.8555 192.404 33.8555C192.732 33.8555 192.961 33.9277 193.09 34.0723C193.223 34.2168 193.289 34.4062 193.289 34.6406V34.998H192.17C191.299 35.002 190.574 35.1816 189.996 35.5371C189.422 35.8926 189.135 36.4297 189.135 37.1484ZM191.221 36.9844C191.221 36.7266 191.318 36.5312 191.514 36.3984C191.709 36.2617 192.012 36.1934 192.422 36.1934H193.289V36.6973C193.289 37.0059 193.176 37.2656 192.949 37.4766C192.727 37.6836 192.439 37.7871 192.088 37.7871C191.783 37.7871 191.562 37.7129 191.426 37.5645C191.289 37.416 191.221 37.2227 191.221 36.9844ZM192.826 31.7402L193.975 30.9316L192.428 28.9102L190.91 29.918L192.826 31.7402ZM196.84 41.4316C196.949 41.4785 197.078 41.5137 197.227 41.5371C197.379 41.5605 197.545 41.5723 197.725 41.5723C198.326 41.5723 198.83 41.416 199.236 41.1035C199.643 40.791 199.963 40.332 200.197 39.7266L202.898 32.7012H201.006L199.834 36.1465C199.783 36.2988 199.744 36.4434 199.717 36.5801C199.689 36.7129 199.662 36.8535 199.635 37.002H199.6C199.576 36.8535 199.547 36.7109 199.512 36.5742C199.48 36.4375 199.439 36.2949 199.389 36.1465L198.17 32.7012H196.049L198.574 38.959L198.727 38.9648C198.621 39.3945 198.471 39.6914 198.275 39.8555C198.084 40.0234 197.852 40.1074 197.578 40.1074C197.469 40.1074 197.346 40.0957 197.209 40.0723C197.072 40.0488 196.957 40.0215 196.863 39.9902L196.84 41.4316ZM126 48.1543H130.037V46.7012H126V48.1543ZM126.867 51.0078C126.867 51.7539 127.07 52.3008 127.477 52.6484C127.883 52.9961 128.42 53.1699 129.088 53.1699C129.275 53.1699 129.449 53.1523 129.609 53.1172C129.773 53.082 129.898 53.041 129.984 52.9941V51.5879C129.91 51.6191 129.83 51.6465 129.744 51.6699C129.658 51.6934 129.574 51.7051 129.492 51.7051C129.324 51.7051 129.189 51.6523 129.088 51.5469C128.986 51.4414 128.936 51.248 128.936 50.9668V45.3652H126.873V47.2754L126.867 47.4453V51.0078ZM130.576 49.9414C130.576 50.9336 130.893 51.7207 131.525 52.3027C132.162 52.8848 132.988 53.1758 134.004 53.1758C135.016 53.1758 135.838 52.8848 136.471 52.3027C137.107 51.7207 137.426 50.9336 137.426 49.9414V49.7539C137.426 48.7578 137.107 47.9707 136.471 47.3926C135.838 46.8105 135.016 46.5195 134.004 46.5195C132.988 46.5195 132.162 46.8105 131.525 47.3926C130.893 47.9707 130.576 48.7578 130.576 49.7539V49.9414ZM132.703 49.6484C132.703 49.1016 132.818 48.6953 133.049 48.4297C133.283 48.1641 133.602 48.0312 134.004 48.0312C134.398 48.0312 134.711 48.1641 134.941 48.4297C135.176 48.6953 135.293 49.0996 135.293 49.6426V50.0469C135.293 50.5977 135.18 51.0059 134.953 51.2715C134.727 51.5371 134.41 51.6699 134.004 51.6699C133.594 51.6699 133.273 51.5371 133.043 51.2715C132.816 51.0059 132.703 50.5977 132.703 50.0469V49.6484ZM134.496 43.373H133.512L131.666 45.7344H133.16L134.004 44.832L134.854 45.7344H136.365L134.496 43.373ZM135.562 43.4785L136.705 44.293L138.621 42.4707L137.104 41.457L135.562 43.4785ZM137.848 48.1543H141.885V46.7012H137.848V48.1543ZM138.715 51.0078C138.715 51.7539 138.918 52.3008 139.324 52.6484C139.73 52.9961 140.268 53.1699 140.936 53.1699C141.123 53.1699 141.297 53.1523 141.457 53.1172C141.621 53.082 141.746 53.041 141.832 52.9941V51.5879C141.758 51.6191 141.678 51.6465 141.592 51.6699C141.506 51.6934 141.422 51.7051 141.34 51.7051C141.172 51.7051 141.037 51.6523 140.936 51.5469C140.834 51.4414 140.783 51.248 140.783 50.9668V45.3652H138.721V47.2754L138.715 47.4453V51.0078ZM145.787 53H147.861V51.0605L151.863 46.7012H149.602L147.861 48.6934V44.0352H145.787V53ZM149.648 53H152.127L149.033 48.6758L147.68 50.1816L149.648 53ZM152.689 53H154.77V48.9395C154.859 48.6699 154.99 48.4629 155.162 48.3184C155.334 48.1699 155.547 48.0957 155.801 48.0957C156.074 48.0957 156.293 48.1777 156.457 48.3418C156.625 48.5059 156.709 48.7852 156.709 49.1797V53H158.783V49.0684C158.783 48.1895 158.582 47.5547 158.18 47.1641C157.781 46.7734 157.26 46.5781 156.615 46.5781C156.162 46.5781 155.783 46.666 155.479 46.8418C155.178 47.0137 154.939 47.2402 154.764 47.5215V44.0352H152.689V53ZM159.92 49.9414C159.92 50.9336 160.236 51.7207 160.869 52.3027C161.506 52.8848 162.332 53.1758 163.348 53.1758C164.359 53.1758 165.182 52.8848 165.814 52.3027C166.451 51.7207 166.77 50.9336 166.77 49.9414V49.7539C166.77 48.7578 166.451 47.9707 165.814 47.3926C165.182 46.8105 164.359 46.5195 163.348 46.5195C162.332 46.5195 161.506 46.8105 160.869 47.3926C160.236 47.9707 159.92 48.7578 159.92 49.7539V49.9414ZM162.047 49.6484C162.047 49.1016 162.162 48.6953 162.393 48.4297C162.627 48.1641 162.945 48.0312 163.348 48.0312C163.742 48.0312 164.055 48.1641 164.285 48.4297C164.52 48.6953 164.637 49.0996 164.637 49.6426V50.0469C164.637 50.5977 164.523 51.0059 164.297 51.2715C164.07 51.5371 163.754 51.6699 163.348 51.6699C162.938 51.6699 162.617 51.5371 162.387 51.2715C162.16 51.0059 162.047 50.5977 162.047 50.0469V49.6484ZM163.834 43.373H162.855L161.004 45.7344H162.504L163.342 44.832L164.191 45.7344H165.703L163.834 43.373ZM167.936 53H170.016V48.8809C170.117 48.6309 170.268 48.4375 170.467 48.3008C170.67 48.1641 170.885 48.0957 171.111 48.0957C171.393 48.0957 171.607 48.1699 171.756 48.3184C171.908 48.4668 171.984 48.7266 171.984 49.0977V53H174.059V49.1562C174.059 48.1953 173.844 47.5254 173.414 47.1465C172.984 46.7637 172.432 46.5723 171.756 46.5723C171.373 46.5723 171.021 46.6465 170.701 46.7949C170.381 46.9434 170.146 47.1367 169.998 47.375H169.969L169.928 46.7012H167.936V53ZM175.617 54.6992C175.922 54.9414 176.316 55.1445 176.801 55.3086C177.289 55.4766 177.822 55.5605 178.4 55.5605C179.354 55.5605 180.146 55.293 180.779 54.7578C181.412 54.2266 181.729 53.4648 181.729 52.4727V46.7012H179.73L179.695 47.3809H179.666C179.545 47.1426 179.326 46.9512 179.01 46.8066C178.697 46.6582 178.348 46.584 177.961 46.584C177.125 46.584 176.449 46.873 175.934 47.4512C175.422 48.0254 175.166 48.793 175.166 49.7539V49.9414C175.166 50.9023 175.424 51.6719 175.939 52.25C176.455 52.8242 177.129 53.1113 177.961 53.1113C178.355 53.1113 178.699 53.0508 178.992 52.9297C179.289 52.8047 179.51 52.625 179.654 52.3906V52.5254C179.654 53.0566 179.527 53.4512 179.273 53.709C179.023 53.9707 178.697 54.1016 178.295 54.1016C177.881 54.1016 177.498 54.0332 177.146 53.8965C176.795 53.7637 176.537 53.627 176.373 53.4863L175.617 54.6992ZM177.293 50.041V49.6602C177.293 49.1875 177.396 48.8066 177.604 48.5176C177.811 48.2285 178.113 48.084 178.512 48.084C178.793 48.084 179.031 48.1602 179.227 48.3125C179.422 48.4648 179.564 48.6699 179.654 48.9277V50.8145C179.572 51.0215 179.434 51.207 179.238 51.3711C179.047 51.5352 178.814 51.6172 178.541 51.6172C178.123 51.6172 177.811 51.4727 177.604 51.1836C177.396 50.8945 177.293 50.5137 177.293 50.041ZM183.246 51.957C183.246 52.2812 183.355 52.5586 183.574 52.7891C183.797 53.0156 184.113 53.1289 184.523 53.1289C184.938 53.1289 185.254 53.0156 185.473 52.7891C185.695 52.5586 185.807 52.2812 185.807 51.957C185.807 51.6289 185.695 51.3516 185.473 51.125C185.254 50.8984 184.938 50.7852 184.523 50.7852C184.113 50.7852 183.797 50.9004 183.574 51.1309C183.355 51.3574 183.246 51.6328 183.246 51.957ZM187.418 51.957C187.418 52.2812 187.527 52.5586 187.746 52.7891C187.969 53.0156 188.285 53.1289 188.695 53.1289C189.109 53.1289 189.426 53.0156 189.645 52.7891C189.867 52.5586 189.979 52.2812 189.979 51.957C189.979 51.6289 189.867 51.3516 189.645 51.125C189.426 50.8984 189.109 50.7852 188.695 50.7852C188.285 50.7852 187.969 50.9004 187.746 51.1309C187.527 51.3574 187.418 51.6328 187.418 51.957ZM191.59 51.957C191.59 52.2812 191.699 52.5586 191.918 52.7891C192.141 53.0156 192.457 53.1289 192.867 53.1289C193.281 53.1289 193.598 53.0156 193.816 52.7891C194.039 52.5586 194.15 52.2812 194.15 51.957C194.15 51.6289 194.039 51.3516 193.816 51.125C193.598 50.8984 193.281 50.7852 192.867 50.7852C192.457 50.7852 192.141 50.9004 191.918 51.1309C191.699 51.3574 191.59 51.6328 191.59 51.957Z" fill="white"/>
</svg>
