<svg width="186" height="186" viewBox="0 0 186 186" fill="none" xmlns="http://www.w3.org/2000/svg">
<path d="M15.0056 2.90259L167.45 0.71515C175.457 0.600252 182.042 6.99831 182.157 15.0056L184.344 167.45C184.459 175.457 178.061 182.042 170.053 182.157L17.6092 184.344C9.60186 184.459 3.0175 178.061 2.90261 170.053L0.715163 17.6091C0.600266 9.60184 6.99832 3.01749 15.0056 2.90259Z" fill="url(#paint0_linear_655_458)" stroke="url(#paint1_radial_655_458)"/>
<path fill-rule="evenodd" clip-rule="evenodd" d="M155.509 50.0625C155.488 48.5373 154.778 47.0945 153.532 46.215C144.061 39.5322 132.481 35.6786 120.024 35.8574C88.5832 36.3085 63.463 62.2746 63.9162 93.8542C64.3693 125.434 90.2242 150.668 121.665 150.217C134.122 150.039 145.587 145.854 154.862 138.903C156.083 137.988 156.75 136.525 156.728 135L156.674 131.215C156.64 128.852 154.942 126.872 152.691 126.151C150.243 125.366 147.91 124.319 145.725 123.043C143.782 121.907 141.336 121.942 139.426 123.133C134.184 126.402 128.018 128.327 121.399 128.421C101.968 128.7 85.9884 113.104 85.7084 93.5871C85.4283 74.0698 100.953 58.0218 120.385 57.743C127.004 57.648 133.222 59.3951 138.556 62.5117C140.5 63.6473 142.945 63.6122 144.855 62.4213C147.002 61.0826 149.304 59.9694 151.729 59.1149C153.958 58.3293 155.599 56.3014 155.565 53.9381L155.509 50.0625Z" fill="#291117"/>
<circle cx="120.185" cy="90.2149" r="21.5364" transform="rotate(-0.822088 120.185 90.2149)" fill="white"/>
<path fill-rule="evenodd" clip-rule="evenodd" d="M29.7026 133.518C29.7246 135.052 30.4421 136.502 31.7011 137.38C41.0473 143.893 52.4492 147.643 64.709 147.467C95.8454 147.02 120.724 121.417 120.278 90.2807C119.831 59.1443 94.2275 34.2654 63.0911 34.7122C50.8313 34.8881 39.5417 38.9641 30.3861 45.7424C29.1529 46.6554 28.4773 48.126 28.4993 49.6602L28.5432 52.719C28.5773 55.0915 30.2883 57.0761 32.5504 57.7921C35.1583 58.6176 37.6348 59.742 39.9392 61.1256C41.8525 62.2745 44.2733 62.2807 46.1928 61.1421C51.2527 58.1404 57.1422 56.3811 63.4468 56.2906C82.6902 56.0145 98.5139 71.3905 98.7901 90.6339C99.0662 109.877 83.6902 125.701 64.4468 125.977C57.7185 126.074 51.4083 124.257 46.0345 121.03C44.1211 119.881 41.7003 119.875 39.7809 121.014C37.8053 122.186 35.7033 123.168 33.4996 123.936C31.2589 124.717 29.6055 126.75 29.6395 129.122L29.7026 133.518Z" fill="white"/>
<circle cx="63.831" cy="91.0236" r="21.5364" transform="rotate(-0.822088 63.831 91.0236)" fill="#291117"/>
<defs>
<linearGradient id="paint0_linear_655_458" x1="11.8304" y1="25.2802" x2="163.196" y2="169.198" gradientUnits="userSpaceOnUse">
<stop offset="0.447917" stop-color="#F2ACAC"/>
<stop offset="1" stop-color="#A76ED9"/>
</linearGradient>
<radialGradient id="paint1_radial_655_458" cx="0" cy="0" r="1" gradientUnits="userSpaceOnUse" gradientTransform="translate(92.5296 92.5296) rotate(89.1779) scale(91.23)">
<stop stop-color="#572F7A" stop-opacity="0.51"/>
<stop offset="1" stop-color="#E4DAED" stop-opacity="0.36"/>
</radialGradient>
</defs>
</svg>
