<svg width="160" height="160" viewBox="0 0 160 160" fill="none" xmlns="http://www.w3.org/2000/svg">
<path d="M0 20C0 8.9543 8.95431 0 20 0H140C151.046 0 160 8.9543 160 20V140C160 151.046 151.046 160 140 160H20C8.95431 160 0 151.046 0 140V20Z" fill="url(#paint0_linear_625_2)"/>
<path fill-rule="evenodd" clip-rule="evenodd" d="M135.758 43.853C135.758 42.3276 135.07 40.8731 133.831 39.9832C125.655 34.1108 115.641 30.6549 104.823 30.6549C77.2499 30.6549 54.8975 53.1063 54.8975 80.8015C54.8975 108.497 77.2499 130.948 104.823 130.948C115.641 130.948 125.655 127.492 133.831 121.62C135.07 120.73 135.758 119.275 135.758 117.75V115.226C135.758 112.863 134.085 110.863 131.857 110.073C130.042 109.429 128.305 108.62 126.664 107.663C124.719 106.529 122.277 106.529 120.333 107.663C115.785 110.315 110.5 111.834 104.863 111.834C87.8215 111.834 74.0069 97.958 74.0069 80.8414C74.0069 63.7248 87.8215 49.8491 104.863 49.8491C110.5 49.8491 115.785 51.3677 120.333 54.0199C122.277 55.1539 124.719 55.1539 126.664 54.0199C128.305 53.0628 130.042 52.2534 131.857 51.6097C134.085 50.8196 135.758 48.8202 135.758 46.4567V43.853Z" fill="#291117"/>
<circle cx="104.281" cy="78.3184" r="18.8854" fill="white"/>
<path fill-rule="evenodd" clip-rule="evenodd" d="M24.3988 114.85C24.3988 116.384 25.0944 117.846 26.346 118.734C34.4141 124.456 44.2727 127.82 54.917 127.82C82.2234 127.82 104.36 105.684 104.36 78.3772C104.36 51.0708 82.2234 28.9345 54.917 28.9345C44.2727 28.9345 34.4141 32.2981 26.346 38.0203C25.0944 38.908 24.3988 40.3703 24.3988 41.9048V43.7874C24.3988 46.16 26.0843 48.1641 28.323 48.9497C30.2761 49.6351 32.1385 50.5132 33.8874 51.5613C35.8017 52.7086 38.2186 52.7495 40.1709 51.668C44.5522 49.241 49.5929 47.8592 54.9563 47.8592C71.8327 47.8592 85.5136 61.5402 85.5136 78.4166C85.5136 95.2929 71.8327 108.974 54.9563 108.974C49.2217 108.974 43.856 107.394 39.2706 104.646C37.3563 103.499 34.9393 103.458 32.9871 104.54C31.5036 105.361 29.9446 106.063 28.323 106.632C26.0842 107.418 24.3988 109.422 24.3988 111.795V114.85Z" fill="white"/>
<circle cx="54.858" cy="78.3184" r="18.8854" fill="#291117"/>
<defs>
<linearGradient id="paint0_linear_625_2" x1="10.088" y1="20.0195" x2="140.997" y2="148.113" gradientUnits="userSpaceOnUse">
<stop offset="0.432292" stop-color="#F57C7C"/>
<stop offset="1" stop-color="#572F7A"/>
</linearGradient>
</defs>
</svg>
